<svg width="202" height="210" viewBox="0 0 202 210" fill="none" xmlns="http://www.w3.org/2000/svg">
<path d="M196.824 111.065C196.824 154.012 161.886 190.419 117.311 192.448C71.0158 194.557 32.1544 159.04 32.1544 113.045C32.1544 67.0502 71.0158 30.599 117.311 31.5943C161.886 32.5522 196.824 68.1183 196.824 111.065Z" fill="url(#paint0_linear_1_152)"/>
<path d="M202 111.065C202 154.012 167.062 190.419 122.487 192.448C76.1919 194.557 37.3305 159.04 37.3305 113.045C37.3305 67.0502 76.1919 30.599 122.487 31.5943C167.062 32.5522 202 68.1183 202 111.065Z" fill="url(#paint1_linear_1_152)"/>
<path d="M197.08 111.124C197.08 151.59 164.124 185.828 122.16 187.655C78.6756 189.548 42.2514 156.145 42.2514 112.985C42.2514 69.8254 78.6756 35.5463 122.16 36.394C164.124 37.2123 197.08 70.6584 197.08 111.124Z" fill="url(#paint2_linear_1_152)"/>
<path d="M105.245 115.003C108.619 110.639 110.307 104.114 110.307 95.425C110.307 86.7358 108.591 80.7205 105.159 76.244C101.726 71.7676 96.8055 69.5294 90.3971 69.5294C77.3136 69.5294 70.7718 78.162 70.7718 95.425C70.7718 103.887 72.4782 110.356 75.891 114.832C79.3046 119.309 84.1393 121.547 90.3964 121.547C96.6536 121.547 101.868 119.365 105.244 115.002L105.245 115.003ZM90.5115 109.818C88.6148 109.818 87.2402 108.638 86.3877 106.277C85.5345 103.917 85.1075 100.337 85.1075 95.5388C85.1075 90.7406 85.5345 87.181 86.3877 84.8575C87.2409 82.5341 88.6148 81.3728 90.5115 81.3728C94.1522 81.3728 95.9729 86.0953 95.9729 95.5388C95.9729 104.982 94.1529 109.818 90.5115 109.818Z" fill="white"/>
<path d="M163.41 109.336C159.977 104.86 155.057 102.621 148.648 102.621C135.564 102.621 129.023 111.254 129.023 128.517C129.023 136.941 130.73 143.391 134.143 147.868C137.555 152.344 142.391 154.582 148.648 154.582C154.905 154.582 160.12 152.401 163.495 148.037C166.869 143.674 168.558 137.168 168.558 128.517C168.558 119.866 166.842 113.813 163.41 109.336ZM148.762 142.909C146.866 142.909 145.491 141.729 144.638 139.368C143.785 137.008 143.358 133.428 143.358 128.63C143.358 123.832 143.785 120.272 144.638 117.949C145.491 115.625 146.866 114.464 148.762 114.464C152.403 114.464 154.223 119.187 154.223 128.63C154.223 138.074 152.403 142.909 148.762 142.909Z" fill="white"/>
<path d="M147.931 71.5825C147.606 71.0323 147.013 70.6702 146.372 70.6702H137.937C136.614 70.6702 135.394 71.4099 134.752 72.5631L91.1493 150.872C90.8381 151.43 90.847 152.13 91.1722 152.68C91.4974 153.23 92.0903 153.586 92.7311 153.586H102.246C102.903 153.586 103.509 153.218 103.828 152.646L147.955 73.3903C148.266 72.832 148.257 72.1327 147.932 71.5832L147.931 71.5825Z" fill="white"/>
<g style="mix-blend-mode:multiply" opacity="0.3">
<path style="mix-blend-mode:multiply" opacity="0.3" d="M86.6067 77.4935C83.8694 68.6053 83.9947 55.1062 97.3445 35.1621C62.907 45.0442 37.3305 76.1515 37.3305 113.362C37.3305 159.357 76.1919 194.873 122.487 192.766C139.557 191.988 155.185 186.185 167.956 176.975C167.56 164.709 164.881 151.282 157.348 138.897C136.631 104.844 95.1964 105.38 86.6067 77.4942V77.4935Z" fill="url(#paint3_linear_1_152)"/>
</g>
<mask id="mask0_1_152" style="mask-type:luminance" maskUnits="userSpaceOnUse" x="0" y="0" width="180" height="132">
<path d="M108.576 0C31.0203 0 22.244 65.9917 22.244 65.9917H0V71.9887L43.727 131.892L97.1572 62.3534H76.1123L105.893 27.5807C105.893 27.5807 140.117 33.6724 151.93 37.6243C167.196 43.2305 179.201 55.9532 179.201 55.9532C179.201 55.9532 167.279 0.00146913 108.576 0.00146913L108.576 0Z" fill="white"/>
</mask>
<g mask="url(#mask0_1_152)">
<path d="M177.564 67.6026V67.8531C175.25 64.8561 171.104 60.6926 168.622 58.281C168.576 58.1745 168.498 58.068 168.452 57.9615C167.067 54.8102 165.198 51.3996 162.759 47.9949C160.336 44.5807 157.256 41.22 153.666 38.1253C153.236 37.7243 152.739 37.3695 152.28 36.9904C152.045 36.8053 151.809 36.6143 151.57 36.4292L151.222 36.1471C151.1 36.0531 150.974 35.9686 150.851 35.8776C150.359 35.5235 149.866 35.1658 149.37 34.8051L149 34.5355L148.61 34.285C148.352 34.1161 148.094 33.9464 147.836 33.7804C146.818 33.0811 145.72 32.4758 144.65 31.8367C144.104 31.526 143.532 31.241 142.977 30.9464C142.703 30.7988 142.422 30.6482 142.141 30.5042C141.853 30.3691 141.563 30.2317 141.278 30.0965C136.69 27.8987 131.685 26.3091 126.551 25.4343C125.91 25.3336 125.269 25.2337 124.621 25.1331C123.976 25.0486 123.321 24.995 122.681 24.923L121.709 24.8194L120.734 24.7695L119.759 24.7129C119.435 24.6975 119.114 24.6659 118.787 24.6725C118.139 24.6696 117.491 24.663 116.84 24.66C116.682 24.66 116.51 24.6505 116.361 24.66L115.928 24.6821L115.062 24.7262L114.202 24.7666C114.126 24.7695 114.073 24.7695 113.974 24.7761L113.092 24.8385L111.912 24.9171L111.029 24.9796L110.88 24.9891L110.827 24.9921C110.827 24.9921 110.52 24.9921 111.036 25.0016L109.128 25.2683C108.814 25.3153 108.497 25.3432 108.183 25.4093L107.248 25.5878L106.312 25.7634L105.846 25.8515C105.69 25.8794 105.538 25.9235 105.386 25.958C104.775 26.1057 104.164 26.2496 103.555 26.4002C103.248 26.4627 102.951 26.5633 102.653 26.6478L101.76 26.9144L100.868 27.1686L99.9956 27.4727C99.4138 27.6798 98.8319 27.8613 98.2671 28.0809C97.7051 28.3064 97.1403 28.5327 96.5813 28.7611C92.1353 30.6357 88.1384 33.0598 84.7373 35.8276L84.0958 36.3352L83.4874 36.8773C83.084 37.235 82.6673 37.5766 82.2839 37.9432C82.2677 37.9556 82.2544 37.9747 82.2374 37.9872C81.4904 38.7211 80.7331 39.4108 80.062 40.1696C79.8835 40.3547 79.708 40.5428 79.5362 40.7308L79.2714 41.007L79.0266 41.3016C78.6992 41.6843 78.3755 42.0699 78.0517 42.449C77.9721 42.543 77.8865 42.6341 77.8069 42.731L77.5857 43.0256C77.4338 43.2232 77.2848 43.4208 77.1358 43.6118C76.8453 44.007 76.5275 44.3706 76.2664 44.7783C74.0585 47.9134 72.3757 51.0485 71.2319 54.0396C70.0778 57.0242 69.3942 59.8243 69.0004 62.2976C68.9577 62.6083 68.9142 62.9124 68.8714 63.2129C68.8353 63.5104 68.7726 63.802 68.7593 64.0936C68.7099 64.6769 68.6597 65.2315 68.6103 65.7618C68.5772 66.301 68.5772 66.8181 68.5543 67.3044C68.5447 67.549 68.5277 67.787 68.5248 68.0162C68.5344 68.2513 68.541 68.4804 68.5447 68.6993C68.5513 69.1415 68.558 69.558 68.5646 69.9474C68.5617 70.0568 68.5816 70.1134 68.5882 70.189C68.5978 70.261 68.6081 70.333 68.6177 70.4021C68.631 70.5402 68.6509 70.5211 68.6642 70.6467C68.6738 70.7532 68.687 70.8031 68.6974 70.8031H90.4584L77.2361 84.7077L46.4968 116.593L2.52942 70.8039H25.6458C25.679 70.8039 25.7152 70.4278 25.7513 70.1332C25.8405 69.4971 25.9364 68.8756 26.0418 68.1205C26.1016 67.7444 26.1539 67.3933 26.2173 66.9885C26.2505 66.7909 26.28 66.6029 26.3132 66.3957C26.3427 66.1923 26.3729 65.9726 26.4157 65.7941C26.578 65.0353 26.7461 64.2361 26.9245 63.3833C27.0204 62.9602 27.1133 62.5275 27.2121 62.0824C27.3183 61.6372 27.4437 61.1855 27.5691 60.722C27.8205 59.7972 28.0646 58.8253 28.3692 57.8249C28.6929 56.831 29.0307 55.7997 29.3773 54.7272C29.5461 54.188 29.7674 53.6584 29.9724 53.1097C30.1803 52.5705 30.3957 52.0152 30.6139 51.451C32.4089 46.9834 34.8586 42.1177 38.1343 37.2262C41.3967 32.3318 45.5522 27.4565 50.4842 22.936C51.0822 22.3557 51.7437 21.8261 52.3816 21.2715C52.7053 20.999 53.0261 20.7228 53.3498 20.4466L53.8424 20.033L54.3446 19.6378C55.0223 19.1141 55.7067 18.5845 56.3873 18.0548L56.9028 17.6596L57.4382 17.2836C57.7988 17.0294 58.1557 16.7789 58.5156 16.5277C59.927 15.5022 61.4447 14.5774 62.952 13.6247C63.7123 13.1604 64.4991 12.7278 65.2823 12.2797C65.6687 12.0601 66.0625 11.8404 66.4555 11.6149C66.8589 11.4078 67.2623 11.2014 67.6649 10.9942C74.0976 7.65195 81.205 5.11551 88.5831 3.5979C89.5056 3.42528 90.434 3.24971 91.3595 3.07709C92.285 2.91402 93.2274 2.8009 94.1595 2.66647L95.5614 2.47842L96.9729 2.34694L98.3806 2.21839C98.8504 2.17799 99.3164 2.1273 99.7891 2.11188C100.728 2.07147 101.67 1.96423 102.612 1.92383C102.844 1.91428 103.081 1.8298 103.316 1.8298H104.023L105.428 1.90473L106.833 1.9488C107.302 1.9488 107.772 2.0083 108.238 2.03034L111.031 2.19047C111.666 2.20002 111.25 2.2059 111.411 2.20957L111.483 2.21912L111.632 2.23455L111.923 2.27201L112.511 2.34106L113.682 2.47916L114.27 2.54821L114.561 2.58273L114.921 2.62974L116.402 2.83689L117.883 3.04991L118.617 3.15936C118.858 3.19683 119.073 3.24751 119.304 3.29085C120.207 3.47302 121.108 3.6574 122.011 3.83663C122.461 3.92111 122.903 4.04378 123.347 4.15323L124.679 4.48892L126.001 4.82462L127.307 5.21688C128.172 5.48352 129.042 5.73401 129.891 6.02269C130.741 6.32386 131.584 6.62503 132.427 6.92547C139.114 9.44649 145.216 12.8101 150.462 16.726C150.792 16.9677 151.12 17.2123 151.447 17.4532C151.768 17.7037 152.082 17.9579 152.396 18.215C153.025 18.7226 153.656 19.2118 154.261 19.7326C155.454 20.7955 156.644 21.8143 157.732 22.9177C158.009 23.1872 158.28 23.4598 158.558 23.7264L158.965 24.1275L159.355 24.5447C159.874 25.103 160.386 25.6576 160.892 26.2063L161.271 26.6199L161.635 27.0459C161.869 27.3309 162.111 27.6137 162.346 27.8958C162.815 28.4636 163.308 29.0028 163.731 29.589C166.127 32.658 168.157 35.7681 169.836 38.8349C170.656 40.3239 171.386 41.807 172.031 43.2709C174.025 47.7415 175.304 51.9961 176.11 55.7864C176.199 56.2632 176.295 56.7304 176.384 57.1909C176.47 57.6486 176.572 58.0974 176.629 58.5455C176.755 59.4387 176.881 60.2952 176.996 61.1194C177.096 61.9472 177.148 62.7435 177.221 63.4994C177.251 63.8755 177.291 64.2427 177.314 64.6063C177.327 64.9641 177.407 65.3152 177.423 65.6597C177.443 66.3429 177.558 66.9988 177.558 67.6034L177.564 67.6026Z" fill="url(#paint4_linear_1_152)"/>
<path style="mix-blend-mode:multiply" opacity="0.4" d="M177.564 67.6026V67.8531C175.25 64.8561 171.104 60.6926 168.622 58.281C168.576 58.1745 168.498 58.068 168.452 57.9615C167.067 54.8102 165.198 51.3996 162.759 47.9949C160.336 44.5807 157.256 41.22 153.666 38.1253C153.236 37.7242 152.739 37.3694 152.28 36.9904C152.045 36.8053 151.809 36.6143 151.57 36.4292L151.222 36.1471C151.1 36.0531 150.974 35.9686 150.851 35.8776C150.359 35.5235 149.866 35.1658 149.37 34.8051L149 34.5355L148.61 34.285C148.352 34.1161 148.094 33.9464 147.836 33.7804C146.818 33.0811 145.72 32.4758 144.65 31.8367C144.104 31.526 143.532 31.241 142.977 30.9464C142.703 30.7988 142.422 30.6482 142.141 30.5042C141.853 30.3691 141.563 30.2317 141.278 30.0965C136.69 27.8987 131.685 26.3091 126.551 25.4343C125.91 25.3336 125.269 25.2337 124.621 25.1331C123.976 25.0486 123.321 24.995 122.681 24.923L121.709 24.8194L120.734 24.7695L119.759 24.7129C119.435 24.6975 119.114 24.6659 118.787 24.6725C118.139 24.6696 117.491 24.663 116.84 24.66C116.682 24.66 116.51 24.6505 116.361 24.66L115.928 24.6821L115.062 24.7261L114.202 24.7665C114.126 24.7695 114.073 24.7695 113.974 24.7761L113.092 24.8385L111.912 24.9171L111.029 24.9796L110.88 24.9891L110.827 24.9921C110.827 24.9921 110.52 24.992 111.036 25.0016L109.128 25.2682C108.814 25.3153 108.497 25.3432 108.183 25.4093L107.248 25.5878L106.312 25.7633L105.846 25.8515C105.69 25.8794 105.538 25.9235 105.386 25.958C104.775 26.1056 104.164 26.2496 103.555 26.4002C103.248 26.4626 102.951 26.5633 102.653 26.6478L101.76 26.9144L100.868 27.1686L99.9956 27.4727C99.4138 27.6798 98.832 27.8613 98.2671 28.0809C97.7052 28.3064 97.1403 28.5326 96.5813 28.7611C92.1353 30.6357 88.1384 33.0598 84.7373 35.8276L84.0958 36.3352L83.4874 36.8773C83.084 37.235 82.6674 37.5766 82.2839 37.9431C82.2677 37.9556 82.2544 37.9747 82.2374 37.9872C92.0055 26.5155 107.829 19.0627 125.686 19.0627C143.543 19.0627 160.145 26.885 169.843 38.8334C170.663 40.3224 171.393 41.8055 172.039 43.2695C174.032 47.74 175.311 51.9946 176.117 55.785C176.207 56.2617 176.303 56.7289 176.392 57.1894C176.477 57.6471 176.58 58.0959 176.637 58.544C176.762 59.4372 176.888 60.2937 177.004 61.1179C177.103 61.9457 177.156 62.742 177.229 63.4979C177.258 63.874 177.298 64.2413 177.321 64.6049C177.334 64.9626 177.414 65.3137 177.43 65.6582C177.45 66.3414 177.566 66.9973 177.566 67.6019L177.564 67.6026Z" fill="url(#paint5_linear_1_152)"/>
</g>
<path d="M15.8851 199.388V206.083C15.8851 208.246 29.451 209.999 46.1849 209.999C62.9188 209.999 76.4847 208.246 76.4847 206.083V199.388H15.8851Z" fill="url(#paint6_linear_1_152)"/>
<path d="M76.4847 199.388C76.4847 201.552 62.9188 203.305 46.1849 203.305C29.451 203.305 15.8852 201.552 15.8852 199.388C15.8852 197.225 29.451 195.472 46.1849 195.472C62.9188 195.472 76.4847 197.225 76.4847 199.388Z" fill="url(#paint7_linear_1_152)"/>
<path d="M46.1849 203.576C31.3647 203.576 15.8674 202.165 15.8674 199.446C15.8674 199.297 15.9213 199.034 16.071 199.034C16.2207 199.034 16.1565 199.239 16.1565 199.388C16.1565 201.113 28.4887 203.035 46.1849 203.035C63.8812 203.035 76.2133 201.113 76.2133 199.388C76.2133 199.239 76.2391 199.099 76.3888 199.099C76.5385 199.099 76.5024 199.298 76.5024 199.448C76.5024 202.167 61.0052 203.576 46.1849 203.576Z" fill="url(#paint8_linear_1_152)"/>
<path d="M43.3214 199.607C43.6186 199.402 43.935 199.2 44.2735 199C44.609 198.801 45.0456 198.62 45.575 198.459C46.1075 198.298 46.7734 198.168 47.572 198.066C48.3714 197.964 49.3706 197.911 50.5638 197.905C51.7348 197.899 52.8329 197.936 53.8616 198.016C54.8874 198.095 55.7922 198.215 56.5739 198.373C57.3519 198.532 57.9876 198.728 58.478 198.962C58.9647 199.196 59.2545 199.463 59.3481 199.765L62.7595 199.8C63.0073 199.801 63.2263 199.821 63.4136 199.86C63.6039 199.899 63.6968 199.948 63.6968 200.007L63.6983 200.287L59.312 200.245C59.1579 200.588 58.7663 200.901 58.1358 201.185C57.509 201.47 56.7074 201.716 55.731 201.924L54.1337 201.703C53.9907 201.681 53.8734 201.654 53.7812 201.62C53.6891 201.587 53.6448 201.55 53.6441 201.511C53.6441 201.457 53.7672 201.395 54.0143 201.326C54.2613 201.257 54.5401 201.171 54.8505 201.07C55.161 200.969 55.4655 200.848 55.7657 200.709C56.0636 200.571 56.2627 200.405 56.3659 200.213L46.0131 200.111C45.741 200.31 45.4342 200.506 45.0987 200.698C44.7602 200.891 44.3133 201.064 43.7558 201.218C43.1983 201.372 42.5036 201.496 41.6725 201.592C40.8385 201.688 39.7943 201.739 38.5318 201.745C37.5827 201.749 36.6594 201.713 35.7546 201.638C34.8498 201.561 34.046 201.447 33.3439 201.295C32.6419 201.143 32.0667 200.955 31.6146 200.731C31.1663 200.507 30.9141 200.25 30.8617 199.959L28.0528 199.931C27.805 199.929 27.586 199.91 27.3891 199.873C27.1952 199.835 27.0964 199.786 27.0964 199.723L27.0949 199.444L30.9347 199.48C31.1043 199.186 31.4524 198.929 31.9848 198.71C32.5165 198.491 33.1662 198.296 33.9339 198.126L35.22 198.302C35.6108 198.356 35.8048 198.42 35.8048 198.494C35.8048 198.533 35.7258 198.583 35.5643 198.641C35.3999 198.7 35.2096 198.771 34.9877 198.852C34.7694 198.934 34.5541 199.03 34.3483 199.139C34.1396 199.249 33.9848 199.374 33.8808 199.513L43.3192 199.606L43.3214 199.607ZM33.8469 199.988C33.9243 200.172 34.0961 200.329 34.3572 200.462C34.6182 200.595 34.942 200.705 35.3328 200.791C35.7236 200.877 36.1617 200.939 36.6476 200.98C37.1366 201.02 37.6476 201.038 38.1808 201.036C38.8024 201.033 39.3452 201.006 39.8083 200.956C40.2685 200.905 40.674 200.837 41.0258 200.75C41.3746 200.664 41.6821 200.564 41.9417 200.449C42.2013 200.335 42.4321 200.21 42.6415 200.077L33.8476 199.988H33.8469ZM56.3836 199.737C56.307 199.552 56.1182 199.389 55.8261 199.248C55.5334 199.109 55.158 198.99 54.7038 198.896C54.2495 198.8 53.7193 198.73 53.1124 198.683C52.5092 198.636 51.8425 198.614 51.1125 198.618C50.465 198.621 49.9038 198.65 49.437 198.705C48.9709 198.76 48.5646 198.832 48.2195 198.925C47.8773 199.017 47.5823 199.124 47.3449 199.247C47.1045 199.369 46.8796 199.501 46.6738 199.64L56.3822 199.737L56.3836 199.737Z" fill="#FCB048"/>
<path d="M46.1893 195.896C32.6795 195.896 18.6122 197.08 16.3622 199.372C16.45 199.453 16.5319 199.539 16.6078 199.63C18.5045 198.038 30.1199 196.436 46.1893 196.436C62.2588 196.436 74.473 198.122 75.9021 199.753C75.9722 199.663 76.0474 199.578 76.1285 199.497C74.2702 197.124 59.9388 195.896 46.1886 195.896H46.1893Z" fill="url(#paint9_linear_1_152)"/>
<path d="M7.46213 192.356V199.051C7.46213 201.214 21.028 202.967 37.7619 202.967C54.4958 202.967 68.0617 201.214 68.0617 199.051V192.356H7.46213Z" fill="url(#paint10_linear_1_152)"/>
<path d="M68.0617 192.356C68.0617 194.52 54.4958 196.273 37.7619 196.273C21.028 196.273 7.46216 194.52 7.46216 192.356C7.46216 190.193 21.028 188.44 37.7619 188.44C54.4958 188.44 68.0617 190.193 68.0617 192.356Z" fill="url(#paint11_linear_1_152)"/>
<path d="M37.7619 196.544C22.9417 196.544 7.44443 195.133 7.44443 192.414C7.44443 192.265 7.49826 192.002 7.64796 192.002C7.79766 192.002 7.7335 192.207 7.7335 192.356C7.7335 194.081 20.0656 196.003 37.7619 196.003C55.4582 196.003 67.7903 194.081 67.7903 192.356C67.7903 192.207 67.8161 192.067 67.9658 192.067C68.1155 192.067 68.0794 192.266 68.0794 192.416C68.0794 195.135 52.5822 196.544 37.7619 196.544Z" fill="url(#paint12_linear_1_152)"/>
<path d="M34.8984 192.575C35.1956 192.37 35.512 192.168 35.8505 191.969C36.186 191.77 36.6226 191.589 37.152 191.428C37.6845 191.267 38.3504 191.136 39.1498 191.034C39.9491 190.933 40.9484 190.879 42.1415 190.873C43.3126 190.868 44.4106 190.905 45.4394 190.984C46.4651 191.064 47.37 191.183 48.1516 191.342C48.9304 191.501 49.5653 191.697 50.0557 191.93C50.5424 192.165 50.8322 192.432 50.9259 192.734L54.3373 192.769C54.585 192.77 54.8041 192.79 54.9914 192.829C55.1824 192.868 55.2745 192.916 55.2745 192.976L55.276 193.256L50.8898 193.214C50.7356 193.557 50.344 193.87 49.7135 194.154C49.0867 194.438 48.2851 194.684 47.3088 194.893L45.7115 194.672C45.5684 194.65 45.4512 194.623 45.359 194.589C45.2668 194.556 45.2218 194.519 45.2218 194.479C45.2218 194.426 45.345 194.364 45.592 194.296C45.839 194.227 46.1178 194.141 46.4283 194.039C46.7387 193.938 47.0425 193.818 47.3434 193.679C47.6413 193.54 47.8405 193.375 47.9437 193.182L37.5916 193.08C37.3194 193.279 37.0127 193.475 36.6771 193.668C36.3387 193.86 35.8918 194.034 35.3343 194.187C34.7768 194.341 34.0821 194.465 33.251 194.562C32.417 194.657 31.3728 194.709 30.1103 194.714C29.1612 194.719 28.2379 194.684 27.3331 194.607C26.4282 194.531 25.6252 194.417 24.9224 194.265C24.2204 194.113 23.6452 193.925 23.1931 193.701C22.7448 193.477 22.4926 193.22 22.4402 192.929L19.6313 192.9C19.3835 192.899 19.1645 192.88 18.9676 192.842C18.7737 192.805 18.6756 192.755 18.6748 192.693L18.6734 192.413L22.5132 192.45C22.6828 192.155 23.0309 191.898 23.5633 191.679C24.095 191.46 24.7447 191.266 25.5124 191.095L26.7984 191.271C27.1893 191.325 27.3832 191.389 27.3832 191.463C27.3832 191.502 27.3043 191.551 27.1428 191.61C26.9784 191.669 26.7881 191.739 26.5662 191.821C26.3479 191.903 26.1325 191.999 25.9268 192.108C25.7181 192.218 25.5632 192.342 25.4593 192.481L34.8977 192.575L34.8984 192.575ZM25.4239 192.957C25.5013 193.14 25.6731 193.298 25.9342 193.431C26.1952 193.564 26.519 193.674 26.9098 193.76C27.3006 193.845 27.7387 193.908 28.2246 193.948C28.7136 193.988 29.2246 194.007 29.7578 194.005C30.3794 194.002 30.9222 193.975 31.3853 193.925C31.8455 193.874 32.251 193.806 32.6028 193.72C32.9516 193.633 33.2584 193.533 33.5187 193.419C33.7783 193.304 34.0091 193.18 34.2185 193.046L25.4239 192.958V192.957ZM47.9607 192.706C47.8832 192.52 47.6952 192.357 47.4031 192.217C47.1104 192.077 46.7358 191.959 46.2808 191.864C45.8265 191.769 45.2963 191.698 44.6901 191.652C44.0869 191.606 43.4203 191.584 42.6902 191.587C42.0427 191.59 41.4815 191.62 41.0147 191.674C40.5487 191.729 40.1424 191.802 39.7972 191.894C39.4551 191.986 39.1601 192.094 38.9226 192.216C38.6822 192.339 38.4573 192.47 38.2516 192.61L47.9599 192.706H47.9607Z" fill="#FCB048"/>
<path d="M37.7656 188.864C24.2558 188.864 10.1884 190.048 7.93851 192.34C8.02626 192.421 8.10812 192.508 8.18407 192.598C10.0808 191.006 21.6961 189.404 37.7656 189.404C53.8351 189.404 66.0492 191.09 67.4784 192.721C67.5484 192.631 67.6236 192.546 67.7048 192.465C65.8464 190.092 51.5151 188.864 37.7649 188.864H37.7656Z" fill="url(#paint13_linear_1_152)"/>
<path d="M14.7303 185.346V192.04C14.7303 194.203 28.2962 195.957 45.0301 195.957C61.764 195.957 75.3298 194.203 75.3298 192.04V185.346H14.7303Z" fill="url(#paint14_linear_1_152)"/>
<path d="M75.3299 185.346C75.3299 187.509 61.764 189.263 45.0301 189.263C28.2962 189.263 14.7303 187.509 14.7303 185.346C14.7303 183.183 28.2962 181.429 45.0301 181.429C61.764 181.429 75.3299 183.183 75.3299 185.346Z" fill="url(#paint15_linear_1_152)"/>
<path d="M45.0293 189.532C30.2091 189.532 14.7119 188.122 14.7119 185.402C14.7119 185.253 14.7657 184.99 14.9154 184.99C15.0651 184.99 15.0009 185.195 15.0009 185.345C15.0009 187.07 27.3331 188.991 45.0293 188.991C62.7256 188.991 75.0577 187.07 75.0577 185.345C75.0577 185.196 75.0835 185.056 75.2332 185.056C75.3829 185.056 75.3468 185.255 75.3468 185.405C75.3468 188.124 59.8496 189.532 45.0293 189.532Z" fill="url(#paint16_linear_1_152)"/>
<path d="M42.1666 185.564C42.4638 185.359 42.7802 185.157 43.1186 184.957C43.4542 184.758 43.8907 184.578 44.4202 184.417C44.9526 184.256 45.6185 184.125 46.4179 184.023C47.2173 183.922 48.2165 183.868 49.4097 183.862C50.5808 183.856 51.6788 183.894 52.7075 183.973C53.7333 184.052 54.6381 184.172 55.4198 184.331C56.1985 184.489 56.8335 184.685 57.3239 184.919C57.8106 185.153 58.1004 185.421 58.194 185.723L61.6054 185.757C61.8532 185.759 62.0722 185.779 62.2595 185.817C62.4505 185.856 62.5427 185.905 62.5427 185.964L62.5442 186.244L58.1579 186.202C58.0038 186.545 57.6122 186.858 56.9817 187.143C56.3549 187.427 55.5533 187.673 54.5769 187.882L52.9796 187.66C52.8366 187.638 52.7193 187.611 52.6271 187.577C52.535 187.544 52.49 187.508 52.49 187.468C52.49 187.414 52.6131 187.353 52.8602 187.284C53.1072 187.215 53.386 187.129 53.6964 187.028C54.0069 186.927 54.3107 186.806 54.6116 186.667C54.9095 186.528 55.1086 186.363 55.2119 186.171L44.859 186.069C44.5869 186.268 44.2801 186.464 43.9446 186.656C43.6061 186.849 43.1592 187.022 42.6017 187.176C42.0442 187.329 41.3495 187.454 40.5184 187.55C39.6844 187.647 38.6402 187.697 37.3777 187.703C36.4286 187.707 35.5053 187.672 34.6005 187.596C33.6957 187.519 32.8919 187.406 32.1898 187.254C31.4878 187.101 30.9126 186.913 30.4605 186.689C30.0122 186.465 29.76 186.208 29.7076 185.917L26.8987 185.889C26.6509 185.887 26.4319 185.868 26.235 185.831C26.0411 185.793 25.9423 185.744 25.9423 185.682L25.9408 185.402L29.7814 185.438C29.951 185.144 30.299 184.887 30.8315 184.668C31.3632 184.449 32.0128 184.254 32.7805 184.084L34.0666 184.259C34.4574 184.314 34.6514 184.378 34.6514 184.451C34.6514 184.491 34.5725 184.54 34.411 184.599C34.2465 184.658 34.0563 184.728 33.8343 184.81C33.616 184.891 33.4007 184.987 33.195 185.097C32.9863 185.206 32.8314 185.331 32.7274 185.47L42.1659 185.563L42.1666 185.564ZM32.692 185.945C32.7695 186.129 32.9413 186.287 33.2023 186.42C33.4634 186.553 33.7871 186.662 34.178 186.748C34.5688 186.834 35.0068 186.897 35.4928 186.937C35.9817 186.977 36.4928 186.996 37.0259 186.993C37.6476 186.991 38.1903 186.963 38.6535 186.913C39.1136 186.863 39.5192 186.794 39.871 186.708C40.2198 186.622 40.5273 186.522 40.7869 186.407C41.0464 186.293 41.2773 186.169 41.4867 186.035L32.6928 185.947L32.692 185.945ZM55.2288 185.695C55.1521 185.509 54.9641 185.346 54.6713 185.206C54.3785 185.066 54.0032 184.948 53.5489 184.853C53.0947 184.757 52.5645 184.687 51.9583 184.64C51.3551 184.594 50.6884 184.572 49.9584 184.575C49.3109 184.578 48.7497 184.608 48.2829 184.662C47.8168 184.717 47.4105 184.79 47.0654 184.882C46.7232 184.974 46.4282 185.081 46.1908 185.204C45.9504 185.327 45.7255 185.457 45.5197 185.598L55.2281 185.694L55.2288 185.695Z" fill="#FCB048"/>
<path d="M45.0337 181.853C31.5239 181.853 17.4566 183.037 15.2067 185.33C15.2944 185.41 15.3763 185.497 15.4522 185.588C17.3489 183.996 28.9643 182.394 45.0337 182.394C61.1032 182.394 73.3174 184.079 74.7465 185.71C74.8166 185.621 74.8918 185.535 74.9729 185.455C73.1146 183.081 58.7832 181.853 45.033 181.853H45.0337Z" fill="url(#paint17_linear_1_152)"/>
<path d="M19.1402 178.314V185.008C19.1402 187.171 32.706 188.925 49.4399 188.925C66.1738 188.925 79.7397 187.171 79.7397 185.008V178.314H19.1402Z" fill="url(#paint18_linear_1_152)"/>
<path d="M49.44 182.231C66.1741 182.231 79.7398 180.477 79.7398 178.314C79.7398 176.151 66.1741 174.397 49.44 174.397C32.7059 174.397 19.1402 176.151 19.1402 178.314C19.1402 180.477 32.7059 182.231 49.44 182.231Z" fill="url(#paint19_linear_1_152)"/>
<path d="M49.4399 182.501C34.6197 182.501 19.1225 181.09 19.1225 178.371C19.1225 178.222 19.1763 177.959 19.326 177.959C19.4757 177.959 19.4115 178.165 19.4115 178.314C19.4115 180.039 31.7437 181.96 49.4399 181.96C67.1362 181.96 79.4683 180.039 79.4683 178.314C79.4683 178.165 79.4942 178.024 79.6439 178.024C79.7936 178.024 79.7574 178.223 79.7574 178.373C79.7574 181.093 64.2602 182.501 49.4399 182.501Z" fill="url(#paint20_linear_1_152)"/>
<path d="M46.5772 178.532C46.8744 178.327 47.1908 178.125 47.5292 177.925C47.8648 177.726 48.3021 177.546 48.8308 177.385C49.3632 177.224 50.0292 177.093 50.8285 176.991C51.6279 176.89 52.6271 176.836 53.8203 176.83C54.9914 176.824 56.0894 176.862 57.1181 176.941C58.1439 177.02 59.0487 177.14 59.8304 177.299C60.6084 177.457 61.2441 177.653 61.7345 177.887C62.2212 178.121 62.511 178.389 62.6047 178.691L66.016 178.725C66.2638 178.727 66.4828 178.747 66.6701 178.785C66.8604 178.824 66.9533 178.873 66.9533 178.932L66.9548 179.212L62.5685 179.17C62.4144 179.513 62.0228 179.826 61.3923 180.111C60.7655 180.395 59.9639 180.641 58.9875 180.85L57.3902 180.628C57.2472 180.606 57.1299 180.579 57.0378 180.545C56.9456 180.512 56.9013 180.476 56.9006 180.436C56.9006 180.382 57.0237 180.321 57.2708 180.252C57.5178 180.183 57.7966 180.097 58.107 179.996C58.4175 179.895 58.7213 179.774 59.0222 179.635C59.3201 179.497 59.5192 179.331 59.6225 179.139L49.2703 179.037C48.9982 179.236 48.6914 179.432 48.3559 179.624C48.0174 179.817 47.5705 179.99 47.013 180.144C46.4555 180.297 45.7609 180.422 44.9298 180.518C44.0957 180.614 43.0515 180.665 41.789 180.671C40.84 180.675 39.9167 180.64 39.0119 180.564C38.107 180.487 37.304 180.374 36.6012 180.222C35.8991 180.069 35.3239 179.881 34.8719 179.657C34.4235 179.433 34.1713 179.176 34.119 178.885L31.3101 178.857C31.0623 178.855 30.8433 178.836 30.6464 178.799C30.4524 178.761 30.3544 178.712 30.3536 178.65L30.3521 178.37L34.192 178.406C34.3616 178.112 34.7097 177.855 35.2421 177.636C35.7745 177.417 36.4235 177.222 37.1911 177.052L38.4772 177.227C38.8681 177.282 39.062 177.346 39.062 177.419C39.062 177.459 38.9831 177.508 38.8216 177.567C38.6571 177.626 38.4669 177.696 38.2449 177.778C38.0266 177.859 37.8113 177.955 37.6056 178.065C37.3969 178.174 37.242 178.299 37.138 178.438L46.5765 178.532H46.5772ZM37.1026 178.913C37.1801 179.097 37.3519 179.255 37.6129 179.388C37.874 179.521 38.1977 179.63 38.5886 179.716C38.9794 179.802 39.4174 179.865 39.9034 179.905C40.3923 179.945 40.9034 179.964 41.4365 179.961C42.0582 179.959 42.601 179.931 43.0641 179.881C43.5242 179.831 43.9298 179.762 44.2816 179.676C44.6304 179.589 44.9379 179.489 45.1975 179.375C45.4571 179.26 45.6879 179.136 45.8973 179.002L37.1026 178.914V178.913ZM59.6394 178.663C59.562 178.477 59.3739 178.314 59.0819 178.174C58.7892 178.034 58.4145 177.916 57.9603 177.821C57.506 177.725 56.9758 177.655 56.3696 177.609C55.7664 177.562 55.0998 177.54 54.3697 177.544C53.7222 177.547 53.161 177.576 52.6942 177.631C52.2282 177.686 51.8219 177.759 51.4767 177.851C51.1346 177.943 50.8396 178.05 50.6021 178.173C50.3617 178.296 50.1368 178.427 49.9311 178.567L59.6394 178.663Z" fill="#FCB048"/>
<path d="M49.4444 174.821C35.9345 174.821 21.8672 176.005 19.6173 178.298C19.705 178.378 19.7869 178.464 19.8636 178.556C21.7603 176.964 33.3756 175.362 49.4451 175.362C65.5146 175.362 77.7287 177.047 79.1579 178.678C79.2279 178.589 79.3031 178.503 79.3843 178.423C77.5259 176.049 63.1946 174.821 49.4444 174.821Z" fill="url(#paint21_linear_1_152)"/>
<path d="M15.8851 170.727V177.421C15.8851 179.585 29.451 181.338 46.1849 181.338C62.9188 181.338 76.4847 179.585 76.4847 177.421V170.727H15.8851Z" fill="url(#paint22_linear_1_152)"/>
<path d="M76.4847 170.727C76.4847 172.891 62.9188 174.644 46.1849 174.644C29.451 174.644 15.8852 172.891 15.8852 170.727C15.8852 168.564 29.451 166.811 46.1849 166.811C62.9188 166.811 76.4847 168.564 76.4847 170.727Z" fill="url(#paint23_linear_1_152)"/>
<path d="M46.1849 174.914C31.3647 174.914 15.8674 173.504 15.8674 170.785C15.8674 170.635 15.9213 170.372 16.071 170.372C16.2207 170.372 16.1565 170.578 16.1565 170.727C16.1565 172.452 28.4887 174.374 46.1849 174.374C63.8812 174.374 76.2133 172.452 76.2133 170.727C76.2133 170.578 76.2391 170.438 76.3888 170.438C76.5385 170.438 76.5024 170.637 76.5024 170.787C76.5024 173.506 61.0052 174.914 46.1849 174.914Z" fill="url(#paint24_linear_1_152)"/>
<path d="M43.3214 170.945C43.6186 170.741 43.935 170.539 44.2735 170.339C44.609 170.14 45.0456 169.959 45.575 169.798C46.1075 169.637 46.7734 169.506 47.572 169.404C48.3714 169.303 49.3706 169.249 50.5638 169.243C51.7348 169.238 52.8329 169.275 53.8616 169.354C54.8874 169.434 55.7922 169.553 56.5739 169.712C57.3519 169.871 57.9876 170.067 58.478 170.301C58.9647 170.534 59.2545 170.802 59.3481 171.104L62.7595 171.139C63.0073 171.14 63.2263 171.16 63.4136 171.199C63.6039 171.238 63.6968 171.286 63.6968 171.346L63.6983 171.626L59.312 171.584C59.1579 171.927 58.7663 172.24 58.1358 172.524C57.509 172.808 56.7074 173.055 55.731 173.263L54.1337 173.042C53.9907 173.02 53.8734 172.993 53.7812 172.959C53.6891 172.926 53.6448 172.889 53.6441 172.849C53.6441 172.796 53.7672 172.734 54.0143 172.666C54.2613 172.597 54.5401 172.511 54.8505 172.409C55.161 172.308 55.4655 172.188 55.7657 172.049C56.0636 171.91 56.2627 171.745 56.3659 171.552L46.0131 171.45C45.741 171.649 45.4342 171.845 45.0987 172.038C44.7602 172.23 44.3133 172.404 43.7558 172.557C43.1983 172.711 42.5036 172.835 41.6725 172.932C40.8385 173.027 39.7943 173.079 38.5318 173.085C37.5827 173.089 36.6594 173.053 35.7546 172.977C34.8498 172.901 34.046 172.787 33.3439 172.635C32.6419 172.483 32.0667 172.295 31.6146 172.071C31.1663 171.847 30.9141 171.59 30.8617 171.299L28.0528 171.27C27.805 171.269 27.586 171.25 27.3891 171.212C27.1952 171.175 27.0964 171.125 27.0964 171.063L27.0949 170.783L30.9347 170.82C31.1043 170.525 31.4524 170.268 31.9848 170.049C32.5165 169.83 33.1662 169.636 33.9339 169.465L35.22 169.641C35.6108 169.696 35.8048 169.76 35.8048 169.833C35.8048 169.873 35.7258 169.922 35.5643 169.981C35.3999 170.04 35.2096 170.11 34.9877 170.192C34.7694 170.273 34.5541 170.37 34.3483 170.479C34.1396 170.588 33.9848 170.713 33.8808 170.852L43.3192 170.945H43.3214ZM33.8469 171.327C33.9243 171.51 34.0961 171.668 34.3572 171.801C34.6182 171.934 34.942 172.044 35.3328 172.13C35.7236 172.216 36.1617 172.278 36.6476 172.318C37.1366 172.358 37.6476 172.377 38.1808 172.375C38.8024 172.372 39.3452 172.345 39.8083 172.295C40.2685 172.244 40.674 172.176 41.0258 172.089C41.3746 172.002 41.6821 171.903 41.9417 171.788C42.2013 171.673 42.4321 171.549 42.6415 171.416L33.8476 171.327L33.8469 171.327ZM56.3836 171.076C56.307 170.89 56.1182 170.727 55.8261 170.587C55.5334 170.447 55.158 170.329 54.7038 170.234C54.2495 170.139 53.7193 170.068 53.1124 170.022C52.5092 169.976 51.8425 169.954 51.1125 169.957C50.465 169.96 49.9038 169.99 49.437 170.044C48.9709 170.099 48.5646 170.172 48.2195 170.265C47.8773 170.356 47.5823 170.464 47.3449 170.586C47.1045 170.709 46.8796 170.84 46.6738 170.98L56.3822 171.076H56.3836Z" fill="#FCB048"/>
<path d="M46.1893 167.234C32.6795 167.234 18.6122 168.419 16.3622 170.711C16.45 170.792 16.5319 170.879 16.6078 170.969C18.5045 169.377 30.1199 167.775 46.1893 167.775C62.2588 167.775 74.473 169.461 75.9021 171.092C75.9722 171.002 76.0474 170.917 76.1285 170.836C74.2702 168.463 59.9388 167.234 46.1886 167.234H46.1893Z" fill="url(#paint25_linear_1_152)"/>
<path d="M7.46213 163.696V170.391C7.46213 172.554 21.028 174.308 37.7619 174.308C54.4958 174.308 68.0617 172.554 68.0617 170.391V163.696H7.46213Z" fill="url(#paint26_linear_1_152)"/>
<path d="M37.7619 167.613C54.496 167.613 68.0617 165.859 68.0617 163.696C68.0617 161.533 54.496 159.779 37.7619 159.779C21.0278 159.779 7.46216 161.533 7.46216 163.696C7.46216 165.859 21.0278 167.613 37.7619 167.613Z" fill="url(#paint27_linear_1_152)"/>
<path d="M37.7619 167.882C22.9417 167.882 7.44443 166.472 7.44443 163.753C7.44443 163.603 7.49826 163.34 7.64796 163.34C7.79766 163.34 7.7335 163.545 7.7335 163.695C7.7335 165.42 20.0656 167.342 37.7619 167.342C55.4582 167.342 67.7903 165.42 67.7903 163.695C67.7903 163.546 67.8161 163.406 67.9658 163.406C68.1155 163.406 68.0794 163.605 68.0794 163.755C68.0794 166.474 52.5822 167.882 37.7619 167.882Z" fill="url(#paint28_linear_1_152)"/>
<path d="M34.8984 163.914C35.1956 163.709 35.512 163.507 35.8505 163.307C36.186 163.108 36.6226 162.928 37.152 162.767C37.6845 162.606 38.3504 162.475 39.1498 162.373C39.9491 162.272 40.9484 162.218 42.1415 162.212C43.3126 162.206 44.4106 162.244 45.4394 162.323C46.4651 162.402 47.37 162.522 48.1516 162.681C48.9304 162.84 49.5653 163.036 50.0557 163.269C50.5424 163.503 50.8322 163.771 50.9259 164.073L54.3373 164.107C54.585 164.109 54.8041 164.129 54.9914 164.168C55.1824 164.207 55.2745 164.255 55.2745 164.315L55.276 164.594L50.8898 164.553C50.7356 164.896 50.344 165.209 49.7135 165.493C49.0867 165.777 48.2851 166.024 47.3088 166.232L45.7115 166.011C45.5684 165.989 45.4512 165.961 45.359 165.928C45.2668 165.895 45.2218 165.858 45.2218 165.818C45.2218 165.765 45.345 165.703 45.592 165.634C45.839 165.565 46.1178 165.479 46.4283 165.377C46.7387 165.276 47.0425 165.156 47.3434 165.017C47.6413 164.878 47.8405 164.713 47.9437 164.52L37.5916 164.418C37.3194 164.617 37.0127 164.813 36.6771 165.006C36.3387 165.198 35.8918 165.372 35.3343 165.525C34.7768 165.679 34.0821 165.804 33.251 165.9C32.417 165.996 31.3728 166.047 30.1103 166.053C29.1612 166.057 28.2379 166.022 27.3331 165.945C26.4282 165.869 25.6252 165.755 24.9224 165.603C24.2204 165.451 23.6452 165.263 23.1931 165.039C22.7448 164.815 22.4926 164.558 22.4402 164.267L19.6313 164.238C19.3835 164.237 19.1645 164.218 18.9676 164.18C18.7737 164.143 18.6756 164.093 18.6748 164.031L18.6734 163.751L22.5132 163.788C22.6828 163.493 23.0309 163.236 23.5633 163.017C24.095 162.798 24.7447 162.604 25.5124 162.433L26.7984 162.609C27.1893 162.663 27.3832 162.727 27.3832 162.801C27.3832 162.84 27.3043 162.89 27.1428 162.948C26.9784 163.007 26.7881 163.078 26.5662 163.159C26.3479 163.241 26.1325 163.336 25.9268 163.446C25.7181 163.556 25.5632 163.681 25.4593 163.819L34.8977 163.913L34.8984 163.914ZM25.4239 164.295C25.5013 164.479 25.6731 164.637 25.9342 164.77C26.1952 164.903 26.519 165.012 26.9098 165.098C27.3006 165.184 27.7387 165.247 28.2246 165.287C28.7136 165.328 29.2246 165.346 29.7578 165.344C30.3794 165.341 30.9222 165.314 31.3853 165.264C31.8455 165.213 32.251 165.145 32.6028 165.058C32.9516 164.971 33.2584 164.871 33.5187 164.757C33.7783 164.642 34.0091 164.518 34.2185 164.384L25.4239 164.296V164.295ZM47.9607 164.045C47.8832 163.859 47.6952 163.696 47.4031 163.556C47.1104 163.416 46.7358 163.298 46.2808 163.203C45.8265 163.108 45.2963 163.037 44.6901 162.99C44.0869 162.944 43.4203 162.923 42.6902 162.925C42.0427 162.928 41.4815 162.958 41.0147 163.012C40.5487 163.067 40.1424 163.14 39.7972 163.233C39.4551 163.324 39.1601 163.432 38.9226 163.554C38.6822 163.677 38.4573 163.808 38.2516 163.948L47.9599 164.044L47.9607 164.045Z" fill="#FCB048"/>
<path d="M37.7656 160.203C24.2558 160.203 10.1884 161.387 7.93851 163.68C8.02626 163.761 8.10812 163.847 8.18407 163.938C10.0808 162.346 21.6961 160.744 37.7656 160.744C53.8351 160.744 66.0492 162.43 67.4784 164.06C67.5484 163.971 67.6236 163.886 67.7048 163.805C65.8464 161.431 51.5151 160.203 37.7649 160.203H37.7656Z" fill="url(#paint29_linear_1_152)"/>
<path d="M14.7303 156.685V163.379C14.7303 165.542 28.2962 167.295 45.0301 167.295C61.764 167.295 75.3298 165.542 75.3298 163.379V156.685H14.7303Z" fill="url(#paint30_linear_1_152)"/>
<path d="M45.0301 160.601C61.7642 160.601 75.3299 158.848 75.3299 156.685C75.3299 154.521 61.7642 152.768 45.0301 152.768C28.296 152.768 14.7303 154.521 14.7303 156.685C14.7303 158.848 28.296 160.601 45.0301 160.601Z" fill="url(#paint31_linear_1_152)"/>
<path d="M45.0293 160.872C30.2091 160.872 14.7119 159.461 14.7119 156.742C14.7119 156.593 14.7657 156.33 14.9154 156.33C15.0651 156.33 15.0009 156.536 15.0009 156.685C15.0009 158.409 27.3331 160.331 45.0293 160.331C62.7256 160.331 75.0577 158.409 75.0577 156.685C75.0577 156.536 75.0835 156.395 75.2332 156.395C75.3829 156.395 75.3468 156.594 75.3468 156.744C75.3468 159.463 59.8496 160.872 45.0293 160.872Z" fill="url(#paint32_linear_1_152)"/>
<path d="M42.1666 156.903C42.4638 156.698 42.7802 156.496 43.1186 156.296C43.4542 156.097 43.8907 155.916 44.4202 155.755C44.9526 155.595 45.6185 155.464 46.4179 155.362C47.2173 155.26 48.2165 155.207 49.4097 155.201C50.5808 155.195 51.6788 155.232 52.7075 155.312C53.7333 155.391 54.6381 155.511 55.4198 155.669C56.1985 155.828 56.8335 156.024 57.3239 156.258C57.8106 156.491 58.1004 156.76 58.194 157.061L61.6054 157.096C61.8532 157.097 62.0722 157.117 62.2595 157.156C62.4505 157.195 62.5427 157.244 62.5427 157.303L62.5442 157.583L58.1579 157.541C58.0038 157.884 57.6122 158.197 56.9817 158.481C56.3549 158.766 55.5533 159.012 54.5769 159.22L52.9796 158.999C52.8366 158.977 52.7193 158.95 52.6271 158.916C52.535 158.883 52.49 158.846 52.49 158.807C52.49 158.753 52.6131 158.691 52.8602 158.622C53.1072 158.553 53.386 158.467 53.6964 158.366C54.0069 158.265 54.3107 158.144 54.6116 158.005C54.9095 157.867 55.1086 157.701 55.2119 157.509L44.859 157.407C44.5869 157.606 44.2801 157.802 43.9446 157.994C43.6061 158.187 43.1592 158.36 42.6017 158.514C42.0442 158.667 41.3495 158.792 40.5184 158.888C39.6844 158.985 38.6402 159.035 37.3777 159.041C36.4286 159.046 35.5053 159.01 34.6005 158.934C33.6957 158.857 32.8919 158.744 32.1898 158.592C31.4878 158.44 30.9126 158.251 30.4605 158.027C30.0122 157.803 29.76 157.546 29.7076 157.255L26.8987 157.227C26.6509 157.225 26.4319 157.206 26.235 157.169C26.0411 157.131 25.9423 157.082 25.9423 157.02L25.9408 156.74L29.7814 156.776C29.951 156.482 30.299 156.225 30.8315 156.006C31.3632 155.787 32.0128 155.592 32.7805 155.422L34.0666 155.597C34.4574 155.652 34.6514 155.716 34.6514 155.79C34.6514 155.83 34.5725 155.879 34.411 155.938C34.2465 155.996 34.0563 156.067 33.8343 156.148C33.616 156.23 33.4007 156.326 33.195 156.436C32.9863 156.545 32.8314 156.67 32.7274 156.809L42.1659 156.902L42.1666 156.903ZM32.692 157.284C32.7695 157.468 32.9413 157.626 33.2023 157.759C33.4634 157.892 33.7871 158.001 34.178 158.087C34.5688 158.173 35.0068 158.235 35.4928 158.276C35.9817 158.316 36.4928 158.334 37.0259 158.332C37.6476 158.329 38.1903 158.302 38.6535 158.252C39.1136 158.202 39.5192 158.133 39.871 158.047C40.2198 157.96 40.5273 157.86 40.7869 157.745C41.0464 157.631 41.2773 157.507 41.4867 157.373L32.6928 157.285L32.692 157.284ZM55.2288 157.034C55.1521 156.848 54.9641 156.685 54.6713 156.544C54.3785 156.405 54.0032 156.287 53.5489 156.192C53.0947 156.096 52.5645 156.026 51.9583 155.979C51.3551 155.932 50.6884 155.911 49.9584 155.914C49.3109 155.917 48.7497 155.946 48.2829 156.001C47.8168 156.056 47.4105 156.129 47.0654 156.221C46.7232 156.313 46.4282 156.421 46.1908 156.543C45.9504 156.666 45.7255 156.797 45.5197 156.937L55.2281 157.033L55.2288 157.034Z" fill="#FCB048"/>
<path d="M45.0337 153.192C31.5239 153.192 17.4566 154.376 15.2067 156.668C15.2944 156.749 15.3763 156.836 15.4522 156.926C17.3489 155.335 28.9643 153.732 45.0337 153.732C61.1032 153.732 73.3174 155.418 74.7465 157.049C74.8166 156.959 74.8918 156.874 74.9729 156.793C73.1146 154.42 58.7832 153.192 45.033 153.192H45.0337Z" fill="url(#paint33_linear_1_152)"/>
<path d="M10.9495 149.653V156.347C10.9495 158.511 24.5153 160.264 41.2492 160.264C57.9831 160.264 71.549 158.511 71.549 156.347V149.653H10.9495Z" fill="url(#paint34_linear_1_152)"/>
<path d="M41.2493 153.57C57.9834 153.57 71.549 151.817 71.549 149.653C71.549 147.49 57.9834 145.737 41.2493 145.737C24.5152 145.737 10.9495 147.49 10.9495 149.653C10.9495 151.817 24.5152 153.57 41.2493 153.57Z" fill="url(#paint35_linear_1_152)"/>
<path d="M41.2492 153.84C26.429 153.84 10.9318 152.429 10.9318 149.71C10.9318 149.561 10.9856 149.298 11.1353 149.298C11.285 149.298 11.2208 149.503 11.2208 149.653C11.2208 151.377 23.553 153.299 41.2492 153.299C58.9455 153.299 71.2776 151.377 71.2776 149.653C71.2776 149.504 71.3035 149.363 71.4532 149.363C71.6029 149.363 71.5667 149.562 71.5667 149.712C71.5667 152.432 56.0695 153.84 41.2492 153.84Z" fill="url(#paint36_linear_1_152)"/>
<path d="M38.3865 149.872C38.6837 149.667 39.0001 149.465 39.3385 149.265C39.6741 149.066 40.1114 148.885 40.6401 148.724C41.1725 148.563 41.8385 148.433 42.6378 148.33C43.4372 148.229 44.4364 148.175 45.6296 148.17C46.8007 148.164 47.8987 148.201 48.9274 148.28C49.9532 148.36 50.858 148.48 51.6397 148.638C52.4184 148.797 53.0534 148.993 53.5438 149.227C54.0305 149.461 54.3203 149.728 54.414 150.03L57.8253 150.065C58.0731 150.066 58.2921 150.086 58.4794 150.125C58.6704 150.164 58.7626 150.212 58.7626 150.272L58.7641 150.552L54.3778 150.51C54.2237 150.852 53.8321 151.166 53.2016 151.45C52.5748 151.734 51.7732 151.981 50.7968 152.189L49.1995 151.968C49.0565 151.946 48.9392 151.919 48.847 151.885C48.7549 151.852 48.7099 151.815 48.7099 151.776C48.7099 151.722 48.833 151.66 49.0801 151.591C49.3271 151.522 49.6059 151.436 49.9163 151.335C50.2268 151.233 50.5306 151.113 50.8315 150.974C51.1294 150.835 51.3285 150.67 51.4318 150.478L41.0796 150.375C40.8075 150.575 40.5007 150.771 40.1652 150.963C39.8267 151.156 39.3798 151.329 38.8223 151.482C38.2648 151.636 37.5702 151.761 36.7391 151.857C35.905 151.953 34.8608 152.004 33.5983 152.01C32.6493 152.014 31.726 151.979 30.8212 151.903C29.9163 151.826 29.1125 151.712 28.4105 151.56C27.7084 151.408 27.1332 151.22 26.6812 150.996C26.2328 150.772 25.9806 150.515 25.9283 150.224L23.1194 150.195C22.8716 150.194 22.6526 150.175 22.4557 150.137C22.2617 150.1 22.1637 150.051 22.1629 149.988L22.1614 149.708L26.002 149.745C26.1716 149.451 26.5197 149.194 27.0521 148.975C27.5838 148.756 28.2335 148.561 29.0012 148.391L30.2872 148.566C30.6781 148.621 30.872 148.684 30.872 148.758C30.872 148.798 30.7931 148.847 30.6316 148.906C30.4672 148.964 30.2769 149.035 30.055 149.116C29.8367 149.198 29.6213 149.294 29.4156 149.404C29.2069 149.513 29.052 149.637 28.9481 149.777L38.3865 149.87V149.872ZM28.9119 150.253C28.9894 150.436 29.1612 150.594 29.4222 150.727C29.6833 150.86 30.007 150.97 30.3979 151.056C30.7887 151.142 31.2267 151.204 31.7127 151.244C32.2016 151.285 32.7127 151.303 33.2458 151.301C33.8682 151.298 34.4103 151.271 34.8734 151.221C35.3335 151.17 35.7391 151.102 36.0909 151.015C36.4397 150.929 36.7465 150.829 37.0068 150.714C37.2663 150.599 37.4972 150.475 37.7066 150.342L28.9119 150.254V150.253ZM51.4487 150.002C51.372 149.816 51.184 149.653 50.8912 149.513C50.5985 149.374 50.2238 149.255 49.7688 149.16C49.3146 149.065 48.7844 148.994 48.1782 148.947C47.575 148.901 46.9083 148.88 46.1783 148.883C45.5308 148.886 44.9696 148.915 44.5028 148.969C44.0367 149.024 43.6304 149.097 43.2853 149.19C42.9431 149.282 42.6482 149.39 42.4107 149.512C42.1703 149.634 41.9454 149.766 41.7396 149.905L51.448 150.002L51.4487 150.002Z" fill="#FCB048"/>
<path d="M41.2537 146.161C27.7438 146.161 13.6765 147.345 11.4266 149.637C11.5143 149.718 11.5962 149.805 11.6721 149.895C13.5688 148.303 25.1842 146.701 41.2537 146.701C57.3231 146.701 69.5373 148.387 70.9664 150.018C71.0365 149.928 71.1117 149.843 71.1928 149.762C69.3345 147.389 55.0032 146.161 41.2529 146.161H41.2537Z" fill="url(#paint37_linear_1_152)"/>
<path d="M80.1682 154.372L74.692 158.252C72.9221 159.506 79.3511 171.534 89.0506 185.117C98.7501 198.7 108.048 208.695 109.818 207.441L115.294 203.561L80.1689 154.371L80.1682 154.372Z" fill="url(#paint38_linear_1_152)"/>
<path d="M115.293 203.562C113.523 204.815 104.226 194.82 94.5261 181.237C84.8266 167.654 78.3983 155.627 80.1674 154.373C81.9373 153.119 91.2349 163.114 100.934 176.697C110.634 190.281 117.062 202.308 115.293 203.562Z" fill="url(#paint39_linear_1_152)"/>
<path d="M94.3056 181.394C85.7152 169.364 77.8865 155.968 80.1114 154.391C80.2338 154.305 80.4794 154.196 80.5664 154.318C80.6534 154.44 80.4477 154.506 80.326 154.593C78.9153 155.592 84.491 166.717 94.748 181.08C105.005 195.445 113.725 204.341 115.137 203.341C115.259 203.254 115.388 203.194 115.475 203.316C115.562 203.438 115.378 203.524 115.256 203.611C113.031 205.187 102.897 193.424 94.3063 181.394H94.3056Z" fill="url(#paint40_linear_1_152)"/>
<path d="M95.8925 176.769C96.2325 176.892 96.5813 177.031 96.9404 177.19C97.2981 177.346 97.6985 177.597 98.1373 177.933C98.5775 178.272 99.0709 178.737 99.6166 179.327C100.163 179.917 100.786 180.697 101.482 181.662C102.166 182.609 102.772 183.522 103.303 184.403C103.833 185.282 104.259 186.086 104.582 186.812C104.904 187.536 105.111 188.166 105.205 188.698C105.296 189.229 105.245 189.62 105.052 189.871L107.001 192.66C107.144 192.862 107.254 193.051 107.331 193.225C107.41 193.403 107.423 193.506 107.374 193.541L107.147 193.704L104.639 190.119C104.269 190.192 103.785 190.057 103.187 189.71C102.591 189.366 101.925 188.858 101.189 188.186L100.444 186.761C100.379 186.633 100.333 186.521 100.308 186.427C100.282 186.333 100.285 186.276 100.318 186.252C100.362 186.221 100.484 186.285 100.683 186.446C100.883 186.606 101.114 186.783 101.378 186.977C101.641 187.17 101.915 187.347 102.203 187.511C102.488 187.672 102.74 187.738 102.957 187.71L97.04 179.248C96.7192 179.143 96.3814 179.007 96.0297 178.846C95.6757 178.683 95.2753 178.421 94.8262 178.057C94.3771 177.694 93.8727 177.202 93.3122 176.584C92.7503 175.963 92.1036 175.145 91.3661 174.123C90.8123 173.356 90.3064 172.585 89.8441 171.806C89.3817 171.028 89.01 170.309 88.7269 169.651C88.4444 168.993 88.2645 168.417 88.1856 167.921C88.1089 167.426 88.173 167.073 88.381 166.862L86.7763 164.566C86.634 164.364 86.5227 164.175 86.4393 163.994C86.3575 163.814 86.3413 163.706 86.3914 163.67L86.6193 163.507L88.8154 166.645C89.1553 166.612 89.5668 166.745 90.0543 167.05C90.5417 167.355 91.0778 167.769 91.6619 168.294L92.2636 169.44C92.445 169.789 92.5055 169.982 92.4458 170.026C92.4133 170.049 92.3278 170.013 92.1854 169.916C92.0416 169.816 91.8742 169.703 91.6788 169.57C91.4849 169.44 91.2821 169.321 91.0726 169.218C90.8617 169.112 90.67 169.058 90.496 169.055L95.8903 176.771L95.8925 176.769ZM90.0889 169.3C89.9835 169.469 89.954 169.7 89.9967 169.989C90.0388 170.278 90.1376 170.605 90.2939 170.971C90.4503 171.338 90.653 171.73 90.9016 172.148C91.1523 172.568 91.4325 172.994 91.7444 173.425C92.1073 173.929 92.4435 174.353 92.7533 174.7C93.0615 175.044 93.3521 175.334 93.6271 175.569C93.9 175.802 94.1603 175.993 94.4044 176.137C94.6485 176.282 94.8837 176.397 95.1145 176.489L90.0896 169.299L90.0889 169.3ZM103.357 187.448C103.465 187.278 103.489 187.031 103.434 186.712C103.378 186.393 103.257 186.021 103.071 185.597C102.886 185.173 102.637 184.702 102.324 184.182C102.012 183.666 101.643 183.112 101.218 182.521C100.84 181.998 100.49 181.558 100.176 181.212C99.8607 180.865 99.5657 180.578 99.2899 180.351C99.0163 180.126 98.7575 179.95 98.52 179.828C98.2803 179.704 98.0429 179.597 97.8091 179.511L103.358 187.447L103.357 187.448Z" fill="#FCB048"/>
<path d="M100.59 176.946C92.7592 165.98 83.6371 155.248 80.4573 154.751C80.4425 154.869 80.4189 154.986 80.3887 155.099C82.7898 155.716 90.8337 164.216 100.148 177.26C109.701 190.638 115.162 201.195 114.657 203.301C114.77 203.306 114.884 203.317 114.997 203.337C115.862 200.452 108.559 188.108 100.59 176.947V176.946Z" fill="url(#paint41_linear_1_152)"/>
<defs>
<linearGradient id="paint0_linear_1_152" x1="56.5083" y1="222.345" x2="179.935" y2="-14.5258" gradientUnits="userSpaceOnUse">
<stop stop-color="#444B8C"/>
<stop offset="1" stop-color="#26264F"/>
</linearGradient>
<linearGradient id="paint1_linear_1_152" x1="-19.5221" y1="376.977" x2="103.905" y2="140.106" gradientUnits="userSpaceOnUse">
<stop stop-color="#AA80F9"/>
<stop offset="1" stop-color="#6165D7"/>
</linearGradient>
<linearGradient id="paint2_linear_1_152" x1="163.316" y1="63.8777" x2="-51.9106" y2="302.898" gradientUnits="userSpaceOnUse">
<stop stop-color="#AA80F9"/>
<stop offset="1" stop-color="#6165D7"/>
</linearGradient>
<linearGradient id="paint3_linear_1_152" x1="37.3305" y1="114.008" x2="167.956" y2="114.008" gradientUnits="userSpaceOnUse">
<stop stop-color="#AA80F9"/>
<stop offset="1" stop-color="#6165D7"/>
</linearGradient>
<linearGradient id="paint4_linear_1_152" x1="52.3218" y1="120.829" x2="135.761" y2="6.02916" gradientUnits="userSpaceOnUse">
<stop stop-color="#FCB148"/>
<stop offset="0.05" stop-color="#FDB946"/>
<stop offset="0.14" stop-color="#FEC144"/>
<stop offset="0.32" stop-color="#FFC444"/>
<stop offset="0.48" stop-color="#FDB946"/>
<stop offset="0.78" stop-color="#F99C4C"/>
<stop offset="0.87" stop-color="#F8924F"/>
<stop offset="1" stop-color="#F8924F"/>
</linearGradient>
<linearGradient id="paint5_linear_1_152" x1="120.477" y1="65.7831" x2="151.322" y2="23.3451" gradientUnits="userSpaceOnUse">
<stop stop-color="#FCB148"/>
<stop offset="0.05" stop-color="#FDB946"/>
<stop offset="0.14" stop-color="#FEC144"/>
<stop offset="0.32" stop-color="#FFC444"/>
<stop offset="0.48" stop-color="#FDB946"/>
<stop offset="0.78" stop-color="#F99C4C"/>
<stop offset="0.87" stop-color="#F8924F"/>
<stop offset="1" stop-color="#F8924F"/>
</linearGradient>
<linearGradient id="paint6_linear_1_152" x1="10.7046" y1="204.694" x2="80.4204" y2="204.694" gradientUnits="userSpaceOnUse">
<stop stop-color="#FCB148"/>
<stop offset="0.05" stop-color="#FDB946"/>
<stop offset="0.14" stop-color="#FEC144"/>
<stop offset="0.32" stop-color="#FFC444"/>
<stop offset="0.48" stop-color="#FDB946"/>
<stop offset="0.78" stop-color="#F99C4C"/>
<stop offset="0.87" stop-color="#F8924F"/>
<stop offset="1" stop-color="#F8924F"/>
</linearGradient>
<linearGradient id="paint7_linear_1_152" x1="45.8833" y1="196.871" x2="49.5305" y2="227.523" gradientUnits="userSpaceOnUse">
<stop stop-color="#FFDB44"/>
<stop offset="1" stop-color="#FEEF06"/>
</linearGradient>
<linearGradient id="paint8_linear_1_152" x1="45.7233" y1="195.505" x2="46.8436" y2="204.918" gradientUnits="userSpaceOnUse">
<stop stop-color="#FFDB44"/>
<stop offset="1" stop-color="#FEEF06"/>
</linearGradient>
<linearGradient id="paint9_linear_1_152" x1="46.7844" y1="203.93" x2="45.6677" y2="194.55" gradientUnits="userSpaceOnUse">
<stop stop-color="#F36F56"/>
<stop offset="0.31" stop-color="#F99C4C"/>
<stop offset="0.55" stop-color="#FDB946"/>
<stop offset="0.68" stop-color="#FFC444"/>
<stop offset="0.8" stop-color="#FEC144"/>
<stop offset="0.87" stop-color="#FDB946"/>
<stop offset="0.92" stop-color="#FBAC49"/>
<stop offset="0.96" stop-color="#F8994D"/>
<stop offset="1" stop-color="#F57E53"/>
</linearGradient>
<linearGradient id="paint10_linear_1_152" x1="2.28164" y1="197.662" x2="71.9974" y2="197.662" gradientUnits="userSpaceOnUse">
<stop stop-color="#FCB148"/>
<stop offset="0.05" stop-color="#FDB946"/>
<stop offset="0.14" stop-color="#FEC144"/>
<stop offset="0.32" stop-color="#FFC444"/>
<stop offset="0.48" stop-color="#FDB946"/>
<stop offset="0.78" stop-color="#F99C4C"/>
<stop offset="0.87" stop-color="#F8924F"/>
<stop offset="1" stop-color="#F8924F"/>
</linearGradient>
<linearGradient id="paint11_linear_1_152" x1="37.4596" y1="189.84" x2="41.1068" y2="220.491" gradientUnits="userSpaceOnUse">
<stop stop-color="#FFDB44"/>
<stop offset="1" stop-color="#FEEF06"/>
</linearGradient>
<linearGradient id="paint12_linear_1_152" x1="37.3003" y1="188.473" x2="38.4199" y2="197.887" gradientUnits="userSpaceOnUse">
<stop stop-color="#FFDB44"/>
<stop offset="1" stop-color="#FEEF06"/>
</linearGradient>
<linearGradient id="paint13_linear_1_152" x1="38.3607" y1="196.898" x2="37.2447" y2="187.518" gradientUnits="userSpaceOnUse">
<stop stop-color="#F36F56"/>
<stop offset="0.31" stop-color="#F99C4C"/>
<stop offset="0.55" stop-color="#FDB946"/>
<stop offset="0.68" stop-color="#FFC444"/>
<stop offset="0.8" stop-color="#FEC144"/>
<stop offset="0.87" stop-color="#FDB946"/>
<stop offset="0.92" stop-color="#FBAC49"/>
<stop offset="0.96" stop-color="#F8994D"/>
<stop offset="1" stop-color="#F57E53"/>
</linearGradient>
<linearGradient id="paint14_linear_1_152" x1="9.5498" y1="190.651" x2="79.2655" y2="190.651" gradientUnits="userSpaceOnUse">
<stop stop-color="#FCB148"/>
<stop offset="0.05" stop-color="#FDB946"/>
<stop offset="0.14" stop-color="#FEC144"/>
<stop offset="0.32" stop-color="#FFC444"/>
<stop offset="0.48" stop-color="#FDB946"/>
<stop offset="0.78" stop-color="#F99C4C"/>
<stop offset="0.87" stop-color="#F8924F"/>
<stop offset="1" stop-color="#F8924F"/>
</linearGradient>
<linearGradient id="paint15_linear_1_152" x1="44.7277" y1="182.828" x2="48.375" y2="213.48" gradientUnits="userSpaceOnUse">
<stop stop-color="#FFDB44"/>
<stop offset="1" stop-color="#FEEF06"/>
</linearGradient>
<linearGradient id="paint16_linear_1_152" x1="44.5684" y1="181.461" x2="45.6881" y2="190.875" gradientUnits="userSpaceOnUse">
<stop stop-color="#FFDB44"/>
<stop offset="1" stop-color="#FEEF06"/>
</linearGradient>
<linearGradient id="paint17_linear_1_152" x1="45.6289" y1="189.888" x2="44.5129" y2="180.507" gradientUnits="userSpaceOnUse">
<stop stop-color="#F36F56"/>
<stop offset="0.31" stop-color="#F99C4C"/>
<stop offset="0.55" stop-color="#FDB946"/>
<stop offset="0.68" stop-color="#FFC444"/>
<stop offset="0.8" stop-color="#FEC144"/>
<stop offset="0.87" stop-color="#FDB946"/>
<stop offset="0.92" stop-color="#FBAC49"/>
<stop offset="0.96" stop-color="#F8994D"/>
<stop offset="1" stop-color="#F57E53"/>
</linearGradient>
<linearGradient id="paint18_linear_1_152" x1="13.9597" y1="183.62" x2="83.6762" y2="183.62" gradientUnits="userSpaceOnUse">
<stop stop-color="#FCB148"/>
<stop offset="0.05" stop-color="#FDB946"/>
<stop offset="0.14" stop-color="#FEC144"/>
<stop offset="0.32" stop-color="#FFC444"/>
<stop offset="0.48" stop-color="#FDB946"/>
<stop offset="0.78" stop-color="#F99C4C"/>
<stop offset="0.87" stop-color="#F8924F"/>
<stop offset="1" stop-color="#F8924F"/>
</linearGradient>
<linearGradient id="paint19_linear_1_152" x1="49.1384" y1="175.797" x2="52.7856" y2="206.449" gradientUnits="userSpaceOnUse">
<stop stop-color="#FFDB44"/>
<stop offset="1" stop-color="#FEEF06"/>
</linearGradient>
<linearGradient id="paint20_linear_1_152" x1="48.9783" y1="174.43" x2="50.0987" y2="183.844" gradientUnits="userSpaceOnUse">
<stop stop-color="#FFDB44"/>
<stop offset="1" stop-color="#FEEF06"/>
</linearGradient>
<linearGradient id="paint21_linear_1_152" x1="50.0395" y1="182.856" x2="48.9235" y2="173.476" gradientUnits="userSpaceOnUse">
<stop stop-color="#F36F56"/>
<stop offset="0.31" stop-color="#F99C4C"/>
<stop offset="0.55" stop-color="#FDB946"/>
<stop offset="0.68" stop-color="#FFC444"/>
<stop offset="0.8" stop-color="#FEC144"/>
<stop offset="0.87" stop-color="#FDB946"/>
<stop offset="0.92" stop-color="#FBAC49"/>
<stop offset="0.96" stop-color="#F8994D"/>
<stop offset="1" stop-color="#F57E53"/>
</linearGradient>
<linearGradient id="paint22_linear_1_152" x1="10.7046" y1="176.033" x2="80.4204" y2="176.033" gradientUnits="userSpaceOnUse">
<stop stop-color="#FCB148"/>
<stop offset="0.05" stop-color="#FDB946"/>
<stop offset="0.14" stop-color="#FEC144"/>
<stop offset="0.32" stop-color="#FFC444"/>
<stop offset="0.48" stop-color="#FDB946"/>
<stop offset="0.78" stop-color="#F99C4C"/>
<stop offset="0.87" stop-color="#F8924F"/>
<stop offset="1" stop-color="#F8924F"/>
</linearGradient>
<linearGradient id="paint23_linear_1_152" x1="45.8833" y1="168.211" x2="49.5305" y2="198.862" gradientUnits="userSpaceOnUse">
<stop stop-color="#FFDB44"/>
<stop offset="1" stop-color="#FEEF06"/>
</linearGradient>
<linearGradient id="paint24_linear_1_152" x1="45.7233" y1="166.844" x2="46.8436" y2="176.257" gradientUnits="userSpaceOnUse">
<stop stop-color="#FFDB44"/>
<stop offset="1" stop-color="#FEEF06"/>
</linearGradient>
<linearGradient id="paint25_linear_1_152" x1="46.7844" y1="175.269" x2="45.6677" y2="165.889" gradientUnits="userSpaceOnUse">
<stop stop-color="#F36F56"/>
<stop offset="0.31" stop-color="#F99C4C"/>
<stop offset="0.55" stop-color="#FDB946"/>
<stop offset="0.68" stop-color="#FFC444"/>
<stop offset="0.8" stop-color="#FEC144"/>
<stop offset="0.87" stop-color="#FDB946"/>
<stop offset="0.92" stop-color="#FBAC49"/>
<stop offset="0.96" stop-color="#F8994D"/>
<stop offset="1" stop-color="#F57E53"/>
</linearGradient>
<linearGradient id="paint26_linear_1_152" x1="2.28164" y1="169.001" x2="71.9974" y2="169.001" gradientUnits="userSpaceOnUse">
<stop stop-color="#FCB148"/>
<stop offset="0.05" stop-color="#FDB946"/>
<stop offset="0.14" stop-color="#FEC144"/>
<stop offset="0.32" stop-color="#FFC444"/>
<stop offset="0.48" stop-color="#FDB946"/>
<stop offset="0.78" stop-color="#F99C4C"/>
<stop offset="0.87" stop-color="#F8924F"/>
<stop offset="1" stop-color="#F8924F"/>
</linearGradient>
<linearGradient id="paint27_linear_1_152" x1="37.4596" y1="161.179" x2="41.1068" y2="191.83" gradientUnits="userSpaceOnUse">
<stop stop-color="#FFDB44"/>
<stop offset="1" stop-color="#FEEF06"/>
</linearGradient>
<linearGradient id="paint28_linear_1_152" x1="37.3003" y1="159.812" x2="38.4199" y2="169.225" gradientUnits="userSpaceOnUse">
<stop stop-color="#FFDB44"/>
<stop offset="1" stop-color="#FEEF06"/>
</linearGradient>
<linearGradient id="paint29_linear_1_152" x1="38.3607" y1="168.238" x2="37.2447" y2="158.857" gradientUnits="userSpaceOnUse">
<stop stop-color="#F36F56"/>
<stop offset="0.31" stop-color="#F99C4C"/>
<stop offset="0.55" stop-color="#FDB946"/>
<stop offset="0.68" stop-color="#FFC444"/>
<stop offset="0.8" stop-color="#FEC144"/>
<stop offset="0.87" stop-color="#FDB946"/>
<stop offset="0.92" stop-color="#FBAC49"/>
<stop offset="0.96" stop-color="#F8994D"/>
<stop offset="1" stop-color="#F57E53"/>
</linearGradient>
<linearGradient id="paint30_linear_1_152" x1="9.5498" y1="161.99" x2="79.2655" y2="161.99" gradientUnits="userSpaceOnUse">
<stop stop-color="#FCB148"/>
<stop offset="0.05" stop-color="#FDB946"/>
<stop offset="0.14" stop-color="#FEC144"/>
<stop offset="0.32" stop-color="#FFC444"/>
<stop offset="0.48" stop-color="#FDB946"/>
<stop offset="0.78" stop-color="#F99C4C"/>
<stop offset="0.87" stop-color="#F8924F"/>
<stop offset="1" stop-color="#F8924F"/>
</linearGradient>
<linearGradient id="paint31_linear_1_152" x1="44.7277" y1="154.168" x2="48.375" y2="184.82" gradientUnits="userSpaceOnUse">
<stop stop-color="#FFDB44"/>
<stop offset="1" stop-color="#FEEF06"/>
</linearGradient>
<linearGradient id="paint32_linear_1_152" x1="44.5684" y1="152.801" x2="45.6881" y2="162.215" gradientUnits="userSpaceOnUse">
<stop stop-color="#FFDB44"/>
<stop offset="1" stop-color="#FEEF06"/>
</linearGradient>
<linearGradient id="paint33_linear_1_152" x1="45.6289" y1="161.226" x2="44.5129" y2="151.846" gradientUnits="userSpaceOnUse">
<stop stop-color="#F36F56"/>
<stop offset="0.31" stop-color="#F99C4C"/>
<stop offset="0.55" stop-color="#FDB946"/>
<stop offset="0.68" stop-color="#FFC444"/>
<stop offset="0.8" stop-color="#FEC144"/>
<stop offset="0.87" stop-color="#FDB946"/>
<stop offset="0.92" stop-color="#FBAC49"/>
<stop offset="0.96" stop-color="#F8994D"/>
<stop offset="1" stop-color="#F57E53"/>
</linearGradient>
<linearGradient id="paint34_linear_1_152" x1="5.76897" y1="154.958" x2="75.4855" y2="154.958" gradientUnits="userSpaceOnUse">
<stop stop-color="#FCB148"/>
<stop offset="0.05" stop-color="#FDB946"/>
<stop offset="0.14" stop-color="#FEC144"/>
<stop offset="0.32" stop-color="#FFC444"/>
<stop offset="0.48" stop-color="#FDB946"/>
<stop offset="0.78" stop-color="#F99C4C"/>
<stop offset="0.87" stop-color="#F8924F"/>
<stop offset="1" stop-color="#F8924F"/>
</linearGradient>
<linearGradient id="paint35_linear_1_152" x1="40.9477" y1="147.136" x2="44.5949" y2="177.788" gradientUnits="userSpaceOnUse">
<stop stop-color="#FFDB44"/>
<stop offset="1" stop-color="#FEEF06"/>
</linearGradient>
<linearGradient id="paint36_linear_1_152" x1="40.7876" y1="145.769" x2="41.908" y2="155.183" gradientUnits="userSpaceOnUse">
<stop stop-color="#FFDB44"/>
<stop offset="1" stop-color="#FEEF06"/>
</linearGradient>
<linearGradient id="paint37_linear_1_152" x1="41.8488" y1="154.194" x2="40.7328" y2="144.815" gradientUnits="userSpaceOnUse">
<stop stop-color="#F36F56"/>
<stop offset="0.31" stop-color="#F99C4C"/>
<stop offset="0.55" stop-color="#FDB946"/>
<stop offset="0.68" stop-color="#FFC444"/>
<stop offset="0.8" stop-color="#FEC144"/>
<stop offset="0.87" stop-color="#FDB946"/>
<stop offset="0.92" stop-color="#FBAC49"/>
<stop offset="0.96" stop-color="#F8994D"/>
<stop offset="1" stop-color="#F57E53"/>
</linearGradient>
<linearGradient id="paint38_linear_1_152" x1="72.8196" y1="153.239" x2="113.015" y2="209.98" gradientUnits="userSpaceOnUse">
<stop stop-color="#FCB148"/>
<stop offset="0.05" stop-color="#FDB946"/>
<stop offset="0.14" stop-color="#FEC144"/>
<stop offset="0.32" stop-color="#FFC444"/>
<stop offset="0.48" stop-color="#FDB946"/>
<stop offset="0.78" stop-color="#F99C4C"/>
<stop offset="0.87" stop-color="#F8924F"/>
<stop offset="1" stop-color="#F8924F"/>
</linearGradient>
<linearGradient id="paint39_linear_1_152" x1="99.6065" y1="177.262" x2="76.7469" y2="198.095" gradientUnits="userSpaceOnUse">
<stop stop-color="#FFDB44"/>
<stop offset="1" stop-color="#FEEF06"/>
</linearGradient>
<linearGradient id="paint40_linear_1_152" x1="100.632" y1="176.341" x2="93.6113" y2="182.738" gradientUnits="userSpaceOnUse">
<stop stop-color="#FFDB44"/>
<stop offset="1" stop-color="#FEEF06"/>
</linearGradient>
<linearGradient id="paint41_linear_1_152" x1="94.3632" y1="182.09" x2="101.358" y2="175.715" gradientUnits="userSpaceOnUse">
<stop stop-color="#F36F56"/>
<stop offset="0.31" stop-color="#F99C4C"/>
<stop offset="0.55" stop-color="#FDB946"/>
<stop offset="0.68" stop-color="#FFC444"/>
<stop offset="0.8" stop-color="#FEC144"/>
<stop offset="0.87" stop-color="#FDB946"/>
<stop offset="0.92" stop-color="#FBAC49"/>
<stop offset="0.96" stop-color="#F8994D"/>
<stop offset="1" stop-color="#F57E53"/>
</linearGradient>
</defs>
</svg>
