<svg width="224" height="150" viewBox="0 0 224 150" fill="none" xmlns="http://www.w3.org/2000/svg">
<path d="M72.7155 46.2882L76.0583 42.9666L42.6355 9.35724L39.2928 12.6789L72.7155 46.2882Z" fill="#E9AF05"/>
<path d="M54.7701 24.8117C55.5029 24.0832 57.16 24.9319 58.9883 26.5812L56.4115 29.141C54.7618 26.9648 54.0787 25.4986 54.7701 24.8117ZM53.6893 34.1027L56.2854 31.5234C58.0971 33.9779 58.6707 35.2296 58.0088 35.8869C57.2833 36.6071 55.6649 35.8823 53.6893 34.1027Z" fill="#E4D184"/>
<path d="M72.7137 46.2892C72.4955 46.5064 72.2561 46.7024 71.9974 46.8725C71.4561 47.2358 70.8356 47.4984 70.147 47.6592C69.8902 47.7193 69.6214 47.7665 69.3452 47.7998C68.9512 47.8469 68.5378 47.8682 68.1134 47.8589C67.9026 47.8589 67.689 47.8497 67.4773 47.8349C67.1357 47.8099 66.7859 47.7683 66.4314 47.7101C66.2464 47.6833 66.0604 47.6481 65.8708 47.6102C65.5569 47.5529 65.2392 47.478 64.9115 47.3939C64.743 47.3505 64.57 47.3024 64.3969 47.2534C64.1014 47.1674 63.8031 47.074 63.5002 46.9742C63.3391 46.9187 63.1789 46.8623 63.0151 46.8041C62.7361 46.7024 62.4516 46.5952 62.1653 46.4787C62.0144 46.413 61.8606 46.3511 61.7041 46.2855C61.4381 46.1699 61.1665 46.0497 60.894 45.9212C60.7467 45.8519 60.5994 45.7835 60.4493 45.7123C60.2228 45.6041 60.0001 45.4923 59.7773 45.3739C59.6327 45.3018 59.4864 45.2269 59.3427 45.1493C59.1098 45.0272 58.8769 44.8997 58.6449 44.7656C58.5041 44.6898 58.3669 44.6112 58.226 44.5299C58.0005 44.3949 57.774 44.2609 57.5457 44.124C57.4113 44.0418 57.2769 43.9595 57.1406 43.8753C56.9243 43.7367 56.7015 43.5989 56.4824 43.4519C56.348 43.3697 56.2182 43.2791 56.0847 43.1903C55.8711 43.0489 55.6548 42.9037 55.443 42.7503C55.3123 42.6652 55.1843 42.5765 55.0573 42.4822C54.8474 42.337 54.6375 42.1863 54.4294 42.0292C54.3052 41.9376 54.1781 41.8424 54.0511 41.7481C53.8476 41.5965 53.6451 41.4384 53.4398 41.2785C53.3155 41.187 53.1921 41.089 53.0715 40.9873C52.8718 40.832 52.672 40.6711 52.4732 40.5047C52.3526 40.4095 52.2347 40.3106 52.1141 40.2098C51.918 40.0452 51.7247 39.8844 51.5286 39.7143C51.4108 39.6154 51.2939 39.5118 51.1733 39.4101C50.9836 39.2391 50.7912 39.0718 50.6043 38.898C50.4874 38.7935 50.3732 38.6918 50.2591 38.5846C50.0694 38.4135 49.8862 38.2425 49.7003 38.0622L49.3643 37.7442C49.1792 37.5639 48.9932 37.3846 48.8082 37.1988C48.7097 37.1063 48.6149 37.0111 48.5201 36.9159L48.4786 36.8743C48.2963 36.6912 48.115 36.5017 47.9391 36.3178C47.8287 36.2068 47.7219 36.0922 47.6169 35.9812C43.4567 31.5992 40.4445 26.9352 38.8923 22.8389C37.2288 18.4587 37.2288 14.7257 39.2882 12.6789C43.4208 8.57329 54.2536 12.7676 63.4827 22.0485C68.0213 26.6126 71.3263 31.5512 73.0212 35.8897C74.5973 39.9047 74.7851 43.3955 73.2955 45.5782C73.127 45.8325 72.9291 46.0701 72.7109 46.2873L72.7137 46.2892Z" fill="#E9AF05"/>
<path d="M76.0583 42.9666C71.9284 47.0694 61.0965 42.876 51.8665 33.5942C47.2422 28.9441 43.8995 23.9039 42.2378 19.5163C40.5743 15.1398 40.5761 11.4031 42.6355 9.35725C46.7672 5.25165 57.5973 9.44785 66.8273 18.7296C71.365 23.2928 74.6718 28.2323 76.3676 32.5672C78.1259 37.0499 78.1591 40.8791 76.0583 42.9666Z" fill="#FDDA08"/>
<path d="M73.8305 40.6873C77.3858 37.1134 73.7838 27.7117 65.7853 19.688C57.7868 11.6643 48.4207 8.05708 44.8655 11.631C41.3102 15.2049 44.9122 24.6066 52.9107 32.6303C60.9092 40.6539 70.2753 44.2612 73.8305 40.6873Z" fill="#E9AF05"/>
<path d="M73.3595 40.4525C76.7929 37.0011 73.3147 27.9218 65.5906 20.1735C57.8666 12.4251 48.8217 8.94181 45.3883 12.3933C41.9549 15.8447 45.4331 24.9239 53.1571 32.6723C60.8811 40.4206 69.926 43.904 73.3595 40.4525Z" fill="#FABD03"/>
<path d="M76.0583 42.9666L72.7137 46.2892C72.4955 46.5064 72.2561 46.7024 71.9974 46.8725C71.6145 47.1295 71.1892 47.3375 70.7298 47.491L74.0743 44.1684C74.8394 43.9114 75.5087 43.5129 76.0583 42.9666Z" fill="#DFA70A"/>
<path d="M70.7988 44.5086L67.4542 47.8312C67.1219 47.8081 66.7767 47.7655 66.4305 47.7091C66.3164 47.6943 66.204 47.6731 66.088 47.649L69.4262 44.3329C69.8984 44.4171 70.3541 44.4781 70.7988 44.5086Z" fill="#DFA70A"/>
<path d="M67.0915 43.7339L63.7506 47.0537C63.6668 47.0287 63.5867 47.001 63.5002 46.9742C63.3391 46.9187 63.1789 46.8623 63.015 46.8041C62.8797 46.7542 62.7444 46.7042 62.6063 46.6516L65.9472 43.3318C66.3366 43.4787 66.7159 43.6146 67.0915 43.7339Z" fill="#DFA70A"/>
<path d="M63.9081 42.4452L60.5635 45.7677C60.5257 45.7492 60.4871 45.7308 60.4493 45.7123C60.2229 45.6041 60.0001 45.4922 59.7773 45.3739C59.6981 45.3342 59.6171 45.2926 59.5352 45.25L62.8797 41.9275C63.224 42.1087 63.5665 42.2806 63.9081 42.4452Z" fill="#DFA70A"/>
<path d="M61.0063 40.8708L57.6617 44.1934C57.624 44.1693 57.5835 44.1481 57.5466 44.1231C57.4122 44.0408 57.2778 43.9585 57.1416 43.8744C56.9998 43.7847 56.8553 43.6923 56.7107 43.5999L60.0553 40.2773C60.3729 40.4844 60.6924 40.6804 61.0072 40.8708H61.0063Z" fill="#DFA70A"/>
<path d="M58.3117 39.0949L54.9671 42.4174C54.7857 42.2945 54.609 42.1632 54.4294 42.0282C54.3125 41.9441 54.1947 41.8517 54.075 41.7648L57.4196 38.4422C57.7151 38.6668 58.0115 38.885 58.3117 39.0949Z" fill="#DFA70A"/>
<path d="M55.7837 37.1553L52.4391 40.4779C52.3286 40.3928 52.2246 40.3013 52.1141 40.2107C51.942 40.0637 51.7689 39.9232 51.5995 39.7725L54.9404 36.4527C55.2193 36.694 55.5029 36.9251 55.7827 37.1544L55.7837 37.1553Z" fill="#DFA70A"/>
<path d="M53.3947 35.0706L50.0501 38.3932C49.9341 38.2832 49.82 38.175 49.7012 38.0622L49.3652 37.7442L49.2602 37.6388L52.6011 34.319C52.8672 34.5733 53.1305 34.8247 53.3938 35.0697L53.3947 35.0706Z" fill="#DFA70A"/>
<path d="M51.1475 32.8509L47.8029 36.1735C47.7384 36.1088 47.6768 36.0469 47.6188 35.9821C47.4273 35.7825 47.2386 35.58 47.0563 35.3766L50.4008 32.054C50.642 32.3231 50.8915 32.5875 51.1475 32.8509Z" fill="#DFA70A"/>
<path d="M49.0273 30.5L45.6827 33.8226C45.4434 33.5425 45.2105 33.2614 44.9821 32.9795L48.3267 29.6569C48.5514 29.9416 48.7843 30.2227 49.0273 30.5Z" fill="#DFA70A"/>
<path d="M47.0489 28.0141L43.7043 31.3367C43.4816 31.0399 43.268 30.7395 43.0572 30.4409L46.4017 27.1183C46.6098 27.4197 46.8261 27.7173 47.0489 28.0141Z" fill="#DFA70A"/>
<path d="M45.2289 25.3701L41.8843 28.6927C41.6818 28.37 41.4857 28.0529 41.2969 27.7377L44.6415 24.4151C44.8266 24.734 45.0236 25.0511 45.2289 25.3701Z" fill="#DFA70A"/>
<path d="M43.592 22.5384L40.2511 25.8582C40.0725 25.5125 39.905 25.1658 39.743 24.8246L43.0838 21.5049C43.2431 21.8441 43.4134 22.1871 43.592 22.5384Z" fill="#DFA70A"/>
<path d="M42.212 19.4571L38.8711 22.7769C38.7238 22.3905 38.5931 22.0068 38.4725 21.6343L41.8171 18.3117C41.934 18.688 42.0647 19.0707 42.2129 19.4571H42.212Z" fill="#DFA70A"/>
<path d="M41.2343 15.971L37.8898 19.2935C37.8078 18.8211 37.7498 18.3654 37.7195 17.9244L41.064 14.6018C41.0944 15.0428 41.1496 15.5022 41.2343 15.971Z" fill="#DFA70A"/>
<path d="M41.4212 11.3328L38.0803 14.6526C38.3399 13.8872 38.745 13.2225 39.2918 12.6798L42.6364 9.35724C42.0868 9.9036 41.6836 10.5702 41.4221 11.3328H41.4212Z" fill="#DFA70A"/>
<path d="M181.424 80.8941L181.487 138.018C181.492 141.899 178.363 145.048 174.497 145.053L63.8814 145.177C60.0157 145.181 56.8801 142.039 56.8755 138.157L56.812 81.0337C56.8074 77.1518 59.9366 74.0031 63.8022 73.9985L174.418 73.8746C178.284 73.87 181.419 77.0123 181.424 80.8941Z" fill="#2E2E2E"/>
<path d="M181.455 116.357L56.8432 116.488L56.8575 130.265L181.469 130.134L181.455 116.357Z" fill="black"/>
<path d="M159.779 102.653L125.525 116.407H125.524L115.709 120.349L102.847 125.514L93.3234 129.338L91.1231 130.221H91.1204L58.9478 143.141L58.0834 143.489C58.0429 143.505 58.0014 143.522 57.9609 143.537C54.4368 144.875 50.4819 143.139 49.078 139.611L42.27 122.514L41.5446 120.695L39.778 116.256L39.4972 115.551L34.5839 103.214L34.0582 101.894L32.2906 97.4552L31.6398 95.8198L28.1654 87.0946C26.7449 83.5261 28.4729 79.4778 32.0264 78.0514L67.9698 63.6184L95.4491 52.5839L101.465 50.1682L112.867 45.5902L129.342 38.9738L131.827 37.9762L133.723 37.2154C137.276 35.788 141.307 37.5242 142.728 41.0927L144.917 46.5896L144.945 46.6599L155.79 73.8968L163.64 93.6094C165.061 97.1779 163.333 101.226 159.779 102.653Z" fill="#3F4042"/>
<path d="M41.5158 86.0779L55.9727 80.2742C57.3088 79.7378 58.8273 80.3917 59.3614 81.7334L61.814 87.8943C62.3482 89.236 61.697 90.7608 60.3609 91.2972L45.904 97.1009C44.5679 97.6373 43.0494 96.9834 42.5153 95.6417L40.0627 89.4808C39.5285 88.1391 40.1797 86.6143 41.5158 86.0779Z" fill="#FABD03"/>
<g style="mix-blend-mode:multiply">
<path d="M66.2998 105.911L51.6529 111.793C51.0214 112.046 50.7139 112.766 50.9671 113.4L52.5744 117.436C52.8267 118.07 53.5439 118.379 54.1745 118.125L68.8214 112.243C69.4529 111.99 69.7604 111.27 69.5072 110.636L67.8998 106.6C67.6476 105.966 66.9304 105.657 66.2998 105.911Z" fill="#E3EFFD"/>
</g>
<g style="mix-blend-mode:multiply">
<path d="M86.0358 97.9868L71.3889 103.868C70.7574 104.122 70.4499 104.842 70.7031 105.475L72.3105 109.511C72.5627 110.145 73.2799 110.454 73.9105 110.2L88.5574 104.319C89.1889 104.065 89.4964 103.345 89.2433 102.712L87.6359 98.6755C87.3836 98.0413 86.6665 97.7326 86.0358 97.9868Z" fill="#E3EFFD"/>
</g>
<g style="mix-blend-mode:multiply">
<path d="M105.768 90.0734L91.1211 95.9533C90.4894 96.2069 90.182 96.9267 90.4345 97.561L92.041 101.596C92.2936 102.231 93.0104 102.539 93.642 102.286L108.289 96.406C108.92 96.1524 109.228 95.4326 108.975 94.7982L107.369 90.7628C107.116 90.1285 106.399 89.8198 105.768 90.0734Z" fill="#E3EFFD"/>
</g>
<g style="mix-blend-mode:multiply">
<path d="M125.508 82.1366L110.861 88.0182C110.229 88.2715 109.922 88.9916 110.175 89.6249L111.783 93.6612C112.035 94.2953 112.752 94.6041 113.383 94.3499L128.029 88.4684C128.661 88.2151 128.968 87.4949 128.715 86.8616L127.108 82.8254C126.856 82.1912 126.139 81.8824 125.508 82.1366Z" fill="#E3EFFD"/>
</g>
<path opacity="0.25" d="M95.4491 52.5829L94.2836 94.6744L94.0774 102.103L93.3234 129.338L58.0834 143.489C58.0428 143.505 58.0014 143.522 57.96 143.537L61.5117 115.179L62.4802 107.445L67.9689 63.6184L95.4491 52.5839V52.5829Z" fill="white"/>
<path opacity="0.25" d="M112.867 45.5893L114.427 86.5861L114.701 93.8211L115.71 120.349L102.847 125.514L102.356 98.7781L102.223 91.4868L101.465 50.1682L112.867 45.5893Z" fill="white"/>
<path d="M136.235 92.3817C135.985 91.7549 135.884 91.105 135.931 90.431C135.978 89.7571 136.221 89.1553 136.659 88.6265C137.097 88.0977 137.7 87.6798 138.464 87.3729C139.589 86.9208 140.604 86.8875 141.509 87.2721C142.414 87.6567 143.081 88.3861 143.509 89.4613C143.939 90.542 143.959 91.5349 143.567 92.4409C143.175 93.3459 142.417 94.0245 141.292 94.4766C140.528 94.7835 139.805 94.8972 139.124 94.8177C138.443 94.7382 137.854 94.471 137.357 94.0152C136.86 93.5595 136.485 93.015 136.234 92.3826L136.235 92.3817ZM138.82 91.3648C139.123 92.1265 139.465 92.6304 139.847 92.8754C140.097 93.039 140.375 93.0593 140.68 92.9364C140.986 92.8134 141.17 92.6082 141.233 92.3188C141.341 91.8769 141.243 91.2751 140.939 90.5133C140.638 89.758 140.296 89.2542 139.912 89.0027C139.671 88.8428 139.397 88.8243 139.091 88.9473C138.786 89.0702 138.597 89.2736 138.526 89.5593C138.419 90.0012 138.516 90.603 138.82 91.3648ZM146.241 84.25L148.18 83.4716L146.154 101.018L144.237 101.788L146.241 84.25ZM148.841 95.793C148.589 95.1607 148.485 94.5089 148.531 93.8387C148.576 93.1684 148.819 92.5675 149.259 92.0341C149.699 91.5016 150.298 91.0819 151.057 90.7777C152.188 90.3238 153.207 90.2905 154.113 90.6779C155.019 91.0652 155.686 91.7965 156.114 92.8717C156.543 93.9468 156.561 94.9379 156.171 95.8466C155.78 96.7545 155.02 97.4358 153.888 97.8907C153.13 98.1948 152.408 98.3067 151.723 98.2253C151.038 98.144 150.449 97.8768 149.957 97.4229C149.464 96.9689 149.091 96.4253 148.84 95.793H148.841ZM151.426 94.7761C151.729 95.5379 152.071 96.0417 152.453 96.2867C152.694 96.4466 152.968 96.4651 153.273 96.3422C153.579 96.2192 153.768 96.0158 153.839 95.7301C153.946 95.2882 153.849 94.6864 153.545 93.9246C153.242 93.1629 152.898 92.6563 152.514 92.4048C152.267 92.2476 151.99 92.2301 151.685 92.353C151.379 92.476 151.195 92.6812 151.132 92.9706C151.024 93.4125 151.122 94.0143 151.426 94.7761Z" fill="white"/>
<path d="M216.942 131.252L215.652 126.71L170.227 139.948L171.516 144.489L216.942 131.252Z" fill="#E9AF05"/>
<path d="M189.558 136.708C189.275 135.712 190.813 134.662 193.132 133.846L194.126 137.347C191.432 137.752 189.824 137.647 189.558 136.708ZM197.146 142.131L196.144 138.605C199.159 138.191 200.527 138.289 200.783 139.189C201.063 140.174 199.651 141.25 197.146 142.132V142.131Z" fill="#E4D184"/>
<path d="M216.942 131.254C217.027 131.551 217.083 131.856 217.107 132.166C217.163 132.816 217.094 133.489 216.902 134.174C216.832 134.428 216.742 134.688 216.639 134.947C216.491 135.317 216.31 135.691 216.098 136.06C215.996 136.245 215.885 136.428 215.77 136.608C215.584 136.896 215.379 137.185 215.157 137.468C215.045 137.618 214.924 137.765 214.8 137.913C214.598 138.162 214.381 138.405 214.149 138.653C214.03 138.78 213.904 138.909 213.779 139.038C213.562 139.257 213.336 139.474 213.104 139.693C212.978 139.807 212.852 139.922 212.723 140.038C212.499 140.234 212.269 140.433 212.03 140.629C211.9 140.73 211.771 140.836 211.639 140.943C211.411 141.121 211.175 141.302 210.931 141.48C210.801 141.577 210.669 141.673 210.535 141.771C210.331 141.918 210.126 142.06 209.916 142.2C209.783 142.292 209.648 142.385 209.511 142.474C209.292 142.621 209.068 142.763 208.84 142.902C208.706 142.99 208.571 143.074 208.433 143.158C208.206 143.292 207.981 143.426 207.751 143.561C207.614 143.639 207.478 143.718 207.338 143.797C207.113 143.921 206.885 144.051 206.652 144.173C206.516 144.251 206.373 144.322 206.233 144.397C206.006 144.517 205.776 144.638 205.54 144.751C205.403 144.824 205.264 144.895 205.12 144.96C204.893 145.076 204.66 145.187 204.423 145.295C204.283 145.36 204.139 145.426 203.995 145.493C203.765 145.599 203.53 145.702 203.291 145.805C203.151 145.87 203.007 145.932 202.86 145.989C202.628 146.091 202.393 146.189 202.151 146.283C202.009 146.344 201.866 146.4 201.721 146.457C201.483 146.55 201.248 146.643 201.006 146.734C200.864 146.79 200.716 146.843 200.57 146.9C200.33 146.985 200.09 147.074 199.849 147.154C199.702 147.207 199.558 147.259 199.409 147.307C199.169 147.392 198.93 147.47 198.684 147.547L198.245 147.689C197.999 147.766 197.753 147.843 197.501 147.916C197.373 147.958 197.245 147.995 197.116 148.033L197.06 148.05C196.812 148.122 196.56 148.19 196.314 148.257C196.164 148.3 196.013 148.34 195.865 148.378C190.037 149.93 184.515 150.336 180.194 149.73C175.571 149.085 172.312 147.287 171.517 144.49C169.923 138.875 178.799 131.36 191.343 127.705C197.513 125.908 203.415 125.376 208.017 125.973C212.28 126.519 215.417 128.035 216.605 130.396C216.746 130.667 216.858 130.955 216.943 131.252L216.942 131.254Z" fill="#E9AF05"/>
<path d="M215.652 126.71C217.245 132.321 208.37 139.835 195.825 143.491C189.54 145.323 183.531 145.838 178.902 145.189C174.282 144.546 171.021 142.745 170.227 139.947C168.633 134.334 177.509 126.822 190.054 123.166C196.221 121.369 202.124 120.836 206.724 121.431C211.484 122.042 214.841 123.855 215.651 126.709L215.652 126.71Z" fill="#FDDA08"/>
<path d="M195.493 142.099C206.347 138.922 214.005 132.416 212.598 127.566C211.19 122.716 201.25 121.36 190.396 124.537C179.542 127.714 171.884 134.221 173.292 139.07C174.699 143.92 184.639 145.276 195.493 142.099Z" fill="#E9AF05"/>
<path d="M195.649 141.903C206.131 138.835 213.526 132.551 212.166 127.867C210.807 123.184 201.208 121.874 190.726 124.942C180.245 128.01 172.85 134.293 174.209 138.977C175.569 143.661 185.168 144.971 195.649 141.903Z" fill="#FABD03"/>
<path d="M215.651 126.71L216.941 131.253C217.026 131.55 217.082 131.855 217.106 132.165C217.146 132.625 217.122 133.1 217.035 133.578L215.745 129.035C215.889 128.238 215.863 127.457 215.651 126.71Z" fill="#DFA70A"/>
<path d="M214.466 132.082L215.755 136.625C215.575 136.907 215.372 137.19 215.156 137.467C215.088 137.56 215.015 137.65 214.939 137.74L213.651 133.206C213.952 132.83 214.224 132.459 214.465 132.082H214.466Z" fill="#DFA70A"/>
<path d="M212.005 134.972L213.294 139.511C213.232 139.573 213.169 139.631 213.104 139.694C212.978 139.808 212.852 139.923 212.723 140.038C212.614 140.134 212.505 140.229 212.392 140.325L211.103 135.786C211.419 135.514 211.72 135.246 212.006 134.972H212.005Z" fill="#DFA70A"/>
<path d="M209.347 137.154L210.637 141.697C210.602 141.722 210.568 141.746 210.533 141.771C210.329 141.918 210.124 142.06 209.914 142.2C209.841 142.25 209.766 142.302 209.689 142.353L208.4 137.81C208.724 137.594 209.039 137.376 209.346 137.155L209.347 137.154Z" fill="#DFA70A"/>
<path d="M206.576 138.95L207.866 143.493C207.826 143.514 207.788 143.54 207.749 143.562C207.613 143.64 207.476 143.719 207.336 143.798C207.19 143.88 207.039 143.963 206.889 144.045L205.599 139.502C205.933 139.322 206.257 139.135 206.575 138.95H206.576Z" fill="#DFA70A"/>
<path d="M203.729 140.466L205.019 145.009C204.825 145.11 204.624 145.203 204.421 145.296C204.291 145.358 204.153 145.418 204.02 145.481L202.731 140.938C203.068 140.785 203.402 140.63 203.729 140.466Z" fill="#DFA70A"/>
<path d="M200.818 141.758L202.108 146.301C201.981 146.357 201.85 146.405 201.719 146.458C201.508 146.539 201.302 146.623 201.089 146.7L199.8 142.161C200.145 142.032 200.483 141.894 200.818 141.757V141.758Z" fill="#DFA70A"/>
<path d="M197.849 142.857L199.139 147.4C198.987 147.449 198.838 147.497 198.683 147.548L198.243 147.69L198.101 147.732L196.812 143.193C197.162 143.081 197.508 142.971 197.849 142.856V142.857Z" fill="#DFA70A"/>
<path d="M194.83 143.766L196.12 148.309C196.032 148.334 195.948 148.359 195.864 148.378C195.598 148.451 195.33 148.519 195.065 148.582L193.775 144.039C194.126 143.956 194.476 143.863 194.83 143.765V143.766Z" fill="#DFA70A"/>
<path d="M191.758 144.501L193.048 149.044C192.688 149.12 192.33 149.19 191.974 149.255L190.684 144.712C191.041 144.652 191.399 144.581 191.758 144.501Z" fill="#DFA70A"/>
<path d="M188.635 145.045L189.925 149.588C189.558 149.641 189.193 149.684 188.831 149.727L187.541 145.184C187.904 145.146 188.269 145.099 188.635 145.045Z" fill="#DFA70A"/>
<path d="M185.451 145.374L186.74 149.916C186.362 149.94 185.99 149.96 185.624 149.974L184.334 145.431C184.701 145.422 185.073 145.4 185.451 145.374Z" fill="#DFA70A"/>
<path d="M182.192 145.452L183.481 149.991C183.093 149.982 182.71 149.963 182.333 149.941L181.045 145.401C181.417 145.424 181.8 145.439 182.192 145.452Z" fill="#DFA70A"/>
<path d="M178.838 145.182L180.127 149.721C179.718 149.665 179.321 149.596 178.937 149.523L177.648 144.98C178.032 145.057 178.429 145.127 178.838 145.183V145.182Z" fill="#DFA70A"/>
<path d="M175.325 144.365L176.615 148.908C176.163 148.753 175.737 148.584 175.337 148.398L174.047 143.856C174.448 144.041 174.874 144.213 175.325 144.365Z" fill="#DFA70A"/>
<path d="M171.366 141.968L172.655 146.507C172.112 145.911 171.727 145.233 171.516 144.492L170.227 139.949C170.438 140.696 170.827 141.372 171.366 141.969V141.968Z" fill="#DFA70A"/>
<g style="mix-blend-mode:multiply">
<path d="M209.454 94.3203C214.914 81.5404 216.402 66.8569 212.633 53.4585C212.07 51.5642 206.463 33.3631 187.719 30.2125C187.292 30.1404 185.062 30.0369 182.078 30.3604C177.98 30.5481 170.927 31.553 165.794 35.5014L175.398 45.1558L175.467 45.2251L144.945 46.6599L128.4 47.4383L129.342 38.9738L131.827 37.9763L135.493 5.03995L142.539 12.1242L143.815 13.4074C144.23 12.9655 144.659 12.5319 145.1 12.1085L146.209 13.2225C152.79 6.22051 162.623 1.38364 173.738 0.253934C177.672 0.0459267 181.743 0.302007 185.871 1.08689C201.846 4.19683 212.279 15.3469 217.126 30.5167C219.561 38.077 220.553 45.9203 220.894 53.8153C221.346 68.0874 216.66 82.1783 209.454 94.3203Z" fill="#EDEDED"/>
</g>
<g style="mix-blend-mode:multiply">
<path d="M42.27 122.514L41.5446 120.695C39.7752 126.229 35.5984 130.867 29.9357 133.049C29.9357 133.049 29.9351 133.049 29.9338 133.049C29.7479 133.102 29.561 133.153 29.3732 133.201C24.122 134.54 18.8322 133.61 14.5284 131.025C10.2337 128.454 6.90847 124.231 5.58187 118.984C3.11464 109.226 8.38421 99.3208 17.5194 95.8013C17.5203 95.8004 17.5213 95.8004 17.5213 95.8004C17.7072 95.7477 17.8941 95.6969 18.0819 95.6488C23.0744 94.3758 28.1018 95.1496 32.2906 97.4543L31.6397 95.8189C32.576 96.1841 33.4819 96.6213 34.3491 97.1252C38.7616 99.6832 42.177 103.96 43.5303 109.311C44.6912 113.905 44.137 118.534 42.27 122.513V122.514Z" fill="#EDEDED"/>
</g>
<path d="M195.702 114.495C201.52 108.901 206.195 101.95 209.454 94.3203C214.914 81.5404 216.402 66.8569 212.633 53.4585C212.07 51.5642 206.463 33.3631 187.719 30.2125C187.292 30.1404 185.062 30.0369 182.078 30.3604C177.966 30.8042 172.424 32.0578 168.187 35.3165L177.86 45.0402L175.398 45.1557L144.917 46.5896L130.794 47.2534L131.827 37.9763L135.493 5.03993L135.752 2.70933L144.933 11.9393L145.1 12.1085L146.209 13.2225C152.79 6.22049 162.623 1.38363 173.738 0.25392C178.402 -0.22126 183.294 -0.0428365 188.265 0.901978C204.239 4.01192 214.673 15.162 219.52 30.3318C221.955 37.8921 222.946 45.7354 223.288 53.6304C224.027 76.9855 211.009 99.857 195.702 114.495Z" fill="#FDDA08"/>
<path d="M41.5446 120.695C39.7752 126.229 35.5984 130.867 29.9357 133.049C29.9357 133.049 29.9351 133.049 29.9339 133.049C29.2176 133.325 28.4775 133.562 27.7161 133.756C22.465 135.094 17.1751 134.164 12.8713 131.579C8.57665 129.009 5.2514 124.786 3.9248 119.539C1.31211 109.204 7.37617 98.706 17.5195 95.8013C17.5204 95.8004 17.5213 95.8004 17.5213 95.8004C17.7073 95.7477 17.8941 95.6969 18.0819 95.6488C23.0744 94.3758 28.1019 95.1496 32.2906 97.4543C32.426 97.5273 32.5595 97.6031 32.692 97.6799C37.1045 100.238 40.52 104.515 41.8733 109.865C42.8104 113.573 42.63 117.302 41.5446 120.694V120.695Z" fill="#FDDA08"/>
<path d="M22.8995 131.716C32.2578 131.716 39.8442 124.098 39.8442 114.7C39.8442 105.303 32.2578 97.6845 22.8995 97.6845C13.5412 97.6845 5.95474 105.303 5.95474 114.7C5.95474 124.098 13.5412 131.716 22.8995 131.716Z" fill="#E9AF05"/>
<path d="M34.711 126.581C41.1011 120.164 41.1011 109.76 34.711 103.343C28.3209 96.9263 17.9605 96.9263 11.5703 103.343C5.18021 109.76 5.18021 120.164 11.5703 126.581C17.9604 132.998 28.3209 132.998 34.711 126.581Z" fill="#FABD03"/>
<path d="M168.414 55.4165L164.848 58.4959L195.859 94.361L199.425 91.2816L168.414 55.4165Z" fill="#E9AF05"/>
<path d="M184.826 78.0967C184.045 78.7715 182.45 77.8101 180.741 76.0369L183.489 73.6629C184.984 75.95 185.564 77.4597 184.826 78.0967ZM186.549 68.9037L183.78 71.2953C182.143 68.7197 181.658 67.431 182.363 66.8218C183.136 66.1534 184.7 66.99 186.549 68.9037Z" fill="#E4D184"/>
<path d="M168.416 55.4165C168.649 55.215 168.901 55.0356 169.171 54.884C169.735 54.5595 170.373 54.3413 171.071 54.2285C171.33 54.1869 171.603 54.1583 171.881 54.1444C172.277 54.1241 172.691 54.1324 173.114 54.1712C173.324 54.1869 173.536 54.2101 173.747 54.2396C174.086 54.2886 174.433 54.3543 174.782 54.4375C174.964 54.4772 175.148 54.5253 175.334 54.5761C175.643 54.6556 175.955 54.7518 176.276 54.859C176.441 54.9136 176.61 54.9746 176.779 55.0347C177.068 55.141 177.359 55.2556 177.654 55.3758C177.811 55.4424 177.967 55.5099 178.126 55.5792C178.398 55.7003 178.674 55.8279 178.952 55.9629C179.098 56.0387 179.248 56.1117 179.399 56.1875C179.657 56.3216 179.919 56.4602 180.182 56.6081C180.325 56.6867 180.466 56.7662 180.612 56.8476C180.83 56.9715 181.045 57.099 181.258 57.2312C181.397 57.3135 181.538 57.3986 181.676 57.4864C181.901 57.6241 182.124 57.7684 182.345 57.9181C182.481 58.0032 182.612 58.0919 182.747 58.1825C182.963 58.3323 183.179 58.483 183.398 58.6355C183.526 58.727 183.655 58.8176 183.784 58.9119C183.991 59.0654 184.203 59.2179 184.411 59.3806C184.539 59.4722 184.663 59.572 184.791 59.6691C184.994 59.8253 185.199 59.9843 185.4 60.1526C185.524 60.2469 185.646 60.3439 185.766 60.4475C185.966 60.6065 186.164 60.772 186.362 60.943C186.48 61.0438 186.6 61.1464 186.72 61.2499C186.913 61.4154 187.104 61.5864 187.297 61.7612C187.415 61.8619 187.531 61.9673 187.644 62.0773C187.833 62.2456 188.021 62.4203 188.208 62.6006C188.322 62.7041 188.433 62.8105 188.546 62.9195C188.73 63.097 188.912 63.2718 189.095 63.4548C189.206 63.5611 189.315 63.6739 189.429 63.783C189.606 63.967 189.787 64.1472 189.961 64.334C190.07 64.4459 190.177 64.5559 190.283 64.6714C190.461 64.8554 190.632 65.0384 190.804 65.2317L191.117 65.5719C191.289 65.7642 191.462 65.9564 191.633 66.1552C191.726 66.2541 191.813 66.3558 191.901 66.4575L191.939 66.5019C192.109 66.697 192.276 66.8985 192.439 67.0945C192.541 67.2128 192.641 67.3339 192.736 67.4532C196.583 72.1153 199.264 76.979 200.528 81.1733C201.884 85.6589 201.625 89.3836 199.428 91.2806C195.021 95.0876 184.505 90.1454 175.943 80.2415C171.731 75.3704 168.777 70.2127 167.387 65.7669C166.093 61.6521 166.148 58.1557 167.786 56.0821C167.972 55.8399 168.186 55.6171 168.418 55.4156L168.416 55.4165Z" fill="#E9AF05"/>
<path d="M164.848 58.4959C169.253 54.6917 179.768 59.6321 188.331 69.537C192.622 74.4995 195.606 79.7617 196.96 84.2537C198.316 88.7356 198.055 92.463 195.858 94.3601C191.451 98.1661 180.939 93.2239 172.375 83.3181C168.165 78.4489 165.209 73.2903 163.818 68.8464C162.376 64.2508 162.608 60.429 164.848 58.4941V58.4959Z" fill="#FDDA08"/>
<path d="M193.793 91.9446C197.588 88.6285 194.648 78.9974 187.226 70.4329C179.804 61.8685 170.712 57.614 166.917 60.9301C163.122 64.2463 166.062 73.8774 173.484 82.4418C180.905 91.0062 189.998 95.2608 193.793 91.9446Z" fill="#E9AF05"/>
<path d="M193.325 91.1476C196.989 87.9451 194.15 78.6444 186.983 70.3738C179.816 62.1033 171.036 57.9949 167.371 61.1974C163.706 64.3999 166.545 73.7007 173.712 81.9712C180.879 90.2418 189.66 94.3502 193.325 91.1476Z" fill="#FABD03"/>
<path d="M164.849 58.4968L168.416 55.4165C168.649 55.215 168.901 55.0356 169.171 54.884C169.57 54.6538 170.009 54.4772 170.478 54.3561L166.911 57.4374C166.131 57.6408 165.435 57.9912 164.848 58.4978L164.849 58.4968Z" fill="#DFA70A"/>
<path d="M170.203 57.3255L173.769 54.2452C174.1 54.2914 174.44 54.358 174.782 54.4384C174.894 54.4615 175.005 54.4902 175.12 54.5216L171.56 57.5964C171.094 57.479 170.644 57.3865 170.203 57.3255Z" fill="#DFA70A"/>
<path d="M173.846 58.3582L177.409 55.2806C177.491 55.3111 177.569 55.3444 177.653 55.3777C177.81 55.4442 177.966 55.5117 178.125 55.581C178.257 55.6402 178.389 55.7003 178.522 55.7622L174.959 58.8398C174.581 58.666 174.213 58.5042 173.846 58.3582Z" fill="#DFA70A"/>
<path d="M176.933 59.866L180.5 56.7847C180.536 56.806 180.573 56.8272 180.61 56.8485C180.828 56.9724 181.043 57.0999 181.256 57.2321C181.332 57.2774 181.411 57.3246 181.489 57.3727L177.923 60.4539C177.591 60.2496 177.262 60.0536 176.933 59.866Z" fill="#DFA70A"/>
<path d="M179.719 61.6401L183.285 58.5597C183.321 58.5865 183.36 58.6106 183.396 58.6374C183.524 58.7289 183.653 58.8195 183.783 58.9138C183.918 59.0136 184.056 59.1153 184.193 59.2179L180.627 62.2983C180.324 62.069 180.019 61.8518 179.718 61.6401H179.719Z" fill="#DFA70A"/>
<path d="M182.284 63.6L185.85 60.5187C186.022 60.6537 186.19 60.7979 186.36 60.9439C186.471 61.0364 186.582 61.1372 186.695 61.2315L183.129 64.3118C182.85 64.0668 182.569 63.8283 182.284 63.599V63.6Z" fill="#DFA70A"/>
<path d="M184.671 65.7115L188.237 62.6302C188.342 62.7226 188.44 62.8216 188.543 62.9195C188.705 63.0776 188.868 63.2311 189.025 63.392L185.463 66.4695C185.201 66.2098 184.935 65.9592 184.671 65.7105V65.7115Z" fill="#DFA70A"/>
<path d="M186.91 67.9579L190.476 64.8776C190.585 64.9959 190.691 65.1115 190.801 65.2317L191.114 65.5719L191.212 65.6847L187.649 68.7622C187.401 68.4904 187.157 68.2214 186.91 67.9579Z" fill="#DFA70A"/>
<path d="M188.997 70.3301L192.563 67.2498C192.623 67.3182 192.68 67.3848 192.734 67.4541C192.911 67.6667 193.085 67.8821 193.253 68.0975L189.686 71.1788C189.465 70.8941 189.233 70.613 188.997 70.3311V70.3301Z" fill="#DFA70A"/>
<path d="M190.949 72.8235L194.516 69.7431C194.735 70.0399 194.949 70.3366 195.156 70.6334L191.589 73.7147C191.386 73.4142 191.172 73.1184 190.949 72.8244V72.8235Z" fill="#DFA70A"/>
<path d="M192.751 75.4416L196.318 72.3612C196.519 72.6728 196.712 72.988 196.901 73.3005L193.335 76.3818C193.149 76.0665 192.953 75.755 192.751 75.4425V75.4416Z" fill="#DFA70A"/>
<path d="M194.383 78.2067L197.95 75.1263C198.129 75.4619 198.303 75.792 198.47 76.1202L194.903 79.2005C194.741 78.8695 194.567 78.5395 194.383 78.2067Z" fill="#DFA70A"/>
<path d="M195.819 81.1456L199.382 78.068C199.537 78.4249 199.68 78.7826 199.818 79.1349L196.255 82.2124C196.12 81.863 195.973 81.508 195.819 81.1456Z" fill="#DFA70A"/>
<path d="M196.982 84.3165L200.545 81.239C200.666 81.6356 200.77 82.0266 200.864 82.4066L197.297 85.4869C197.206 85.1033 197.103 84.7122 196.982 84.3165Z" fill="#DFA70A"/>
<path d="M197.716 87.8619L201.282 84.7816C201.331 85.2586 201.357 85.7171 201.358 86.1599L197.791 89.2412C197.791 88.7984 197.768 88.3371 197.717 87.8628L197.716 87.8619Z" fill="#DFA70A"/>
<path d="M197.208 92.475L200.771 89.3975C200.458 90.1426 200.008 90.7777 199.426 91.2806L195.859 94.361C196.445 93.8544 196.894 93.2174 197.208 92.475Z" fill="#DFA70A"/>
</svg>
