<svg width="400" height="400" viewBox="0 0 400 400" fill="none" xmlns="http://www.w3.org/2000/svg">
<path d="M120.241 63.9224C120.241 88.6401 104.196 109.593 83.7248 110.762C62.4642 111.975 44.6174 91.5336 44.6174 65.0618C44.6174 38.59 62.4642 17.6109 83.7248 18.1838C104.196 18.7351 120.241 39.2048 120.241 63.9224Z" fill="url(#paint0_linear_2_329)"/>
<path d="M122.618 63.9224C122.618 88.6401 106.573 109.593 86.1018 110.762C64.8413 111.975 46.9945 91.5336 46.9945 65.0618C46.9945 38.59 64.8413 17.6109 86.1018 18.1838C106.573 18.7351 122.618 39.2048 122.618 63.9224Z" fill="url(#paint1_linear_2_329)"/>
<path d="M120.358 63.9563C120.358 87.2459 105.223 106.952 85.9518 108.003C65.9819 109.093 49.2544 89.8679 49.2544 65.0276C49.2544 40.1873 65.9819 20.4583 85.9518 20.9462C105.223 21.4171 120.358 40.6667 120.358 63.9563Z" fill="url(#paint2_linear_2_329)"/>
<path d="M78.1835 66.1885C79.7333 63.6773 80.5084 59.9218 80.5084 54.9208C80.5084 49.9199 79.7204 46.4578 78.1443 43.8814C76.5678 41.3051 74.3079 40.0169 71.3649 40.0169C65.3564 40.0169 62.3521 44.9853 62.3521 54.9208C62.3521 59.7911 63.1358 63.5141 64.7031 66.0904C66.2708 68.6668 68.491 69.955 71.3646 69.955C74.2381 69.955 76.6328 68.6993 78.1832 66.1881L78.1835 66.1885ZM71.4174 63.2046C70.5464 63.2046 69.9151 62.5252 69.5236 61.1664C69.1318 59.8081 68.9357 57.7479 68.9357 54.9864C68.9357 52.2248 69.1318 50.1761 69.5236 48.8389C69.9154 47.5016 70.5464 46.8332 71.4174 46.8332C73.0894 46.8332 73.9255 49.5512 73.9255 54.9864C73.9255 60.4215 73.0897 63.2046 71.4174 63.2046Z" fill="white"/>
<path d="M104.895 62.9272C103.319 60.3509 101.059 59.0627 98.1161 59.0627C92.1076 59.0627 89.1033 64.0311 89.1033 73.9666C89.1033 78.8149 89.8873 82.5273 91.4547 85.1037C93.022 87.68 95.2426 88.9682 98.1161 88.9682C100.99 88.9682 103.384 87.7126 104.934 85.2013C106.484 82.6901 107.26 78.9456 107.26 73.9666C107.26 68.9876 106.472 65.5036 104.895 62.9272ZM98.1686 82.2499C97.2976 82.2499 96.6663 81.5706 96.2745 80.2118C95.8827 78.8534 95.6866 76.7933 95.6866 74.0317C95.6866 71.2702 95.8827 69.2214 96.2745 67.8842C96.6663 66.547 97.2976 65.8786 98.1686 65.8786C99.8406 65.8786 100.676 68.5966 100.676 74.0317C100.676 79.4669 99.8406 82.2499 98.1686 82.2499Z" fill="white"/>
<path d="M97.787 41.1985C97.6377 40.8819 97.3654 40.6735 97.0711 40.6735H93.1975C92.5896 40.6735 92.0294 41.0992 91.7344 41.7629L71.7104 86.8328C71.5675 87.1541 71.5715 87.5566 71.7209 87.8732C71.8702 88.1899 72.1425 88.3949 72.4368 88.3949H76.8062C77.1083 88.3949 77.3863 88.1831 77.533 87.8538L97.7978 42.239C97.9408 41.9177 97.9367 41.5152 97.7873 41.199L97.787 41.1985Z" fill="white"/>
<g style="mix-blend-mode:multiply" opacity="0.3">
<path style="mix-blend-mode:multiply" opacity="0.3" d="M69.6242 44.6006C68.3671 39.4851 68.4247 31.7158 74.5555 20.2372C58.7403 25.9247 46.9945 43.8282 46.9945 65.2445C46.9945 91.7163 64.8413 112.157 86.1018 110.944C93.9412 110.497 101.118 107.157 106.983 101.856C106.802 94.7966 105.571 87.0687 102.111 79.9408C92.5977 60.3416 73.569 60.6502 69.6242 44.601V44.6006Z" fill="url(#paint3_linear_2_329)"/>
</g>
<mask id="mask0_2_329" style="mask-type:luminance" maskUnits="userSpaceOnUse" x="29" y="0" width="84" height="76">
<path d="M79.7136 0C44.0966 0 40.0662 37.9808 40.0662 37.9808H29.8508V41.4323L49.9321 75.9093L74.4695 35.8869H64.8047L78.4813 15.8738C78.4813 15.8738 94.1986 19.3798 99.6236 21.6543C106.634 24.8809 112.148 32.2033 112.148 32.2033C112.148 32.2033 106.672 0.000845541 79.7133 0.000845541L79.7136 0Z" fill="white"/>
</mask>
<g mask="url(#mask0_2_329)">
<path d="M111.395 38.908V39.0521C110.333 37.3272 108.429 34.931 107.289 33.543C107.268 33.4817 107.232 33.4204 107.211 33.3591C106.575 31.5454 105.717 29.5825 104.597 27.623C103.484 25.6579 102.069 23.7237 100.421 21.9426C100.223 21.7118 99.9951 21.5076 99.7841 21.2894C99.6764 21.1829 99.5677 21.073 99.4583 20.9664L99.2985 20.8041C99.2423 20.75 99.1843 20.7014 99.1281 20.6489C98.9019 20.4452 98.6757 20.2393 98.4478 20.0317L98.2777 19.8765L98.0986 19.7324C97.9801 19.6351 97.8619 19.5375 97.7433 19.4419C97.276 19.0394 96.7717 18.6911 96.28 18.3233C96.0294 18.1444 95.7669 17.9804 95.5119 17.8109C95.3859 17.7259 95.2569 17.6392 95.1279 17.5564C94.9958 17.4786 94.8623 17.3995 94.7316 17.3217C92.6245 16.0568 90.326 15.1419 87.9685 14.6384C87.6739 14.5805 87.3796 14.523 87.0819 14.4651C86.7859 14.4165 86.4852 14.3856 86.1909 14.3442L85.7445 14.2845L85.2968 14.2558L84.8491 14.2232C84.7005 14.2144 84.5531 14.1962 84.4028 14.2C84.1051 14.1983 83.8077 14.1945 83.5087 14.1928C83.4359 14.1928 83.357 14.1873 83.2886 14.1928L83.0898 14.2055L82.6922 14.2309L82.2973 14.2541C82.2624 14.2558 82.238 14.2558 82.1927 14.2596L81.7873 14.2955L81.2454 14.3408L80.84 14.3767L80.7716 14.3822L80.7473 14.3839C80.7473 14.3839 80.606 14.3839 80.8431 14.3894L79.967 14.5429C79.8227 14.5699 79.6771 14.586 79.5328 14.624L79.1034 14.7268L78.6736 14.8278L78.4596 14.8785C78.3881 14.8946 78.3184 14.92 78.2486 14.9398C77.9679 15.0248 77.6871 15.1077 77.4077 15.1943C77.2665 15.2303 77.13 15.2882 76.9932 15.3368L76.5834 15.4903L76.1736 15.6366L75.773 15.8116C75.5058 15.9308 75.2386 16.0352 74.9792 16.1616C74.7211 16.2914 74.4617 16.4217 74.205 16.5531C72.1632 17.632 70.3276 19.0272 68.7657 20.6202L68.4711 20.9123L68.1917 21.2243C68.0065 21.4302 67.8151 21.6268 67.639 21.8378C67.6316 21.8449 67.6255 21.8559 67.6177 21.8631C67.2746 22.2855 66.9268 22.6825 66.6186 23.1192C66.5367 23.2257 66.4561 23.3339 66.3772 23.4422L66.2556 23.6011L66.1431 23.7707C65.9928 23.9909 65.8441 24.2129 65.6954 24.431C65.6589 24.4852 65.6196 24.5376 65.583 24.5934L65.4814 24.7629C65.4116 24.8766 65.3432 24.9904 65.2748 25.1003C65.1414 25.3277 64.9954 25.537 64.8755 25.7716C63.8616 27.576 63.0887 29.3804 62.5635 31.1019C62.0335 32.8196 61.7195 34.4313 61.5387 35.8547C61.5191 36.0336 61.4991 36.2086 61.4794 36.3815C61.4628 36.5527 61.434 36.7205 61.4279 36.8884C61.4053 37.2241 61.3822 37.5433 61.3595 37.8485C61.3443 38.1588 61.3443 38.4564 61.3338 38.7363C61.3294 38.8771 61.3216 39.0141 61.3203 39.146C61.3247 39.2813 61.3277 39.4132 61.3294 39.5392C61.3324 39.7937 61.3355 40.0334 61.3385 40.2574C61.3372 40.3204 61.3463 40.353 61.3494 40.3965C61.3538 40.438 61.3585 40.4794 61.3629 40.5191C61.369 40.5986 61.3782 40.5876 61.3843 40.6599C61.3887 40.7212 61.3948 40.75 61.3995 40.75H71.3931L65.3209 48.7526L51.2041 67.1038L31.0124 40.7504H41.6284C41.6437 40.7504 41.6603 40.5339 41.6769 40.3644C41.7178 39.9983 41.7619 39.6406 41.8103 39.206C41.8377 38.9896 41.8618 38.7875 41.8909 38.5545C41.9061 38.4408 41.9197 38.3326 41.9349 38.2134C41.9485 38.0962 41.9623 37.9698 41.982 37.8671C42.0565 37.4304 42.1337 36.9704 42.2157 36.4796C42.2597 36.2361 42.3024 35.987 42.3477 35.7308C42.3965 35.4746 42.4541 35.2146 42.5117 34.9479C42.6271 34.4156 42.7392 33.8563 42.8791 33.2805C43.0278 32.7085 43.1829 32.1149 43.3421 31.4976C43.4196 31.1873 43.5212 30.8825 43.6154 30.5667C43.7109 30.2564 43.8097 29.9368 43.91 29.6121C44.7343 27.0408 45.8593 24.2404 47.3637 21.4251C48.8619 18.6082 50.7703 15.8023 53.0352 13.2006C53.3099 12.8666 53.6137 12.5618 53.9066 12.2426C54.0553 12.0857 54.2026 11.9268 54.3513 11.7678L54.5775 11.5298L54.8081 11.3023C55.1194 11.0009 55.4336 10.6961 55.7462 10.3913L55.9829 10.1638L56.2288 9.94734C56.3944 9.80107 56.5583 9.6569 56.7236 9.51231C57.3718 8.92213 58.0688 8.38986 58.761 7.84152C59.1101 7.57433 59.4715 7.32532 59.8312 7.06743C60.0086 6.94102 60.1895 6.81462 60.37 6.68482C60.5552 6.5656 60.7405 6.44681 60.9254 6.32758C63.8795 4.40398 67.1435 2.94415 70.5319 2.07071C70.9555 1.97136 71.3819 1.87032 71.8069 1.77096C72.2319 1.67711 72.6647 1.612 73.0928 1.53464L73.7366 1.42641L74.3848 1.35073L75.0313 1.27675C75.247 1.25349 75.4611 1.22432 75.6782 1.21544C76.1093 1.19219 76.5421 1.13047 76.9746 1.10722C77.0809 1.10172 77.1899 1.0531 77.298 1.0531H77.6228L78.2679 1.09622L78.9131 1.12159C79.1284 1.12159 79.3442 1.15583 79.5582 1.16852L80.8411 1.26068C81.1327 1.26618 80.9413 1.26956 81.0155 1.27167L81.0487 1.27717L81.1171 1.28605L81.2505 1.30761L81.5208 1.34735L82.0582 1.42683L82.3285 1.46657L82.4619 1.48644L82.6275 1.5135L83.3075 1.63272L83.9876 1.75532L84.3245 1.81831C84.4353 1.83988 84.5342 1.86905 84.6402 1.89399C85.0547 1.99884 85.4689 2.10495 85.8834 2.20811C86.09 2.25673 86.2932 2.32733 86.4967 2.39032L87.1087 2.58353L87.7159 2.77674L88.3153 3.00249C88.7129 3.15596 89.1122 3.30013 89.5023 3.46627C89.8925 3.63961 90.2796 3.81295 90.6667 3.98586C93.738 5.43681 96.5401 7.37267 98.9493 9.62646C99.101 9.76555 99.2514 9.90634 99.4018 10.045C99.5491 10.1892 99.6934 10.3354 99.8376 10.4834C100.126 10.7756 100.416 11.0571 100.694 11.3569C101.242 11.9686 101.788 12.555 102.288 13.19C102.415 13.3451 102.54 13.502 102.667 13.6555L102.854 13.8863L103.033 14.1264C103.272 14.4477 103.507 14.7669 103.739 15.0827L103.913 15.3208L104.08 15.566C104.188 15.73 104.299 15.8928 104.407 16.0551C104.622 16.3819 104.849 16.6922 105.043 17.0296C106.144 18.7959 107.076 20.5859 107.847 22.351C108.223 23.208 108.559 24.0615 108.855 24.9041C109.77 27.4771 110.358 29.9258 110.728 32.1073C110.769 32.3817 110.813 32.6505 110.854 32.9156C110.893 33.179 110.94 33.4373 110.966 33.6952C111.024 34.2093 111.082 34.7022 111.135 35.1766C111.181 35.6531 111.205 36.1113 111.238 36.5464C111.252 36.7628 111.27 36.9742 111.281 37.1835C111.287 37.3894 111.323 37.5915 111.331 37.7897C111.34 38.1829 111.393 38.5604 111.393 38.9084L111.395 38.908Z" fill="url(#paint4_linear_2_329)"/>
<path style="mix-blend-mode:multiply" opacity="0.4" d="M111.395 38.908V39.0521C110.333 37.3272 108.429 34.931 107.289 33.543C107.268 33.4817 107.232 33.4204 107.211 33.3591C106.575 31.5454 105.717 29.5825 104.597 27.623C103.484 25.6579 102.069 23.7238 100.421 21.9426C100.223 21.7118 99.9951 21.5076 99.7841 21.2894C99.6764 21.1829 99.5677 21.073 99.4583 20.9665L99.2985 20.8041C99.2423 20.75 99.1843 20.7014 99.1281 20.649C98.9019 20.4452 98.6757 20.2393 98.4478 20.0317L98.2777 19.8765L98.0986 19.7324C97.9801 19.6351 97.8619 19.5375 97.7433 19.4419C97.276 19.0395 96.7717 18.6911 96.28 18.3233C96.0294 18.1445 95.7669 17.9804 95.5119 17.8109C95.3859 17.7259 95.2569 17.6392 95.1279 17.5564C94.9958 17.4786 94.8623 17.3995 94.7316 17.3217C92.6245 16.0568 90.326 15.1419 87.9685 14.6384C87.6739 14.5805 87.3796 14.523 87.0819 14.4651C86.7859 14.4165 86.4852 14.3856 86.1909 14.3442L85.7446 14.2846L85.2968 14.2558L84.8491 14.2233C84.7005 14.2144 84.5531 14.1962 84.4028 14.2C84.1051 14.1983 83.8077 14.1945 83.5087 14.1928C83.4359 14.1928 83.357 14.1873 83.2886 14.1928L83.0898 14.2055L82.6922 14.2309L82.2973 14.2541C82.2624 14.2558 82.238 14.2558 82.1927 14.2596L81.7873 14.2956L81.2454 14.3408L80.84 14.3767L80.7716 14.3822L80.7473 14.3839C80.7473 14.3839 80.606 14.3839 80.8431 14.3894L79.967 14.5429C79.8227 14.5699 79.6771 14.586 79.5328 14.624L79.1034 14.7268L78.6736 14.8278L78.4596 14.8786C78.3881 14.8946 78.3184 14.92 78.2486 14.9399C77.9679 15.0248 77.6871 15.1077 77.4077 15.1944C77.2665 15.2303 77.13 15.2882 76.9932 15.3368L76.5834 15.4903L76.1736 15.6366L75.773 15.8116C75.5058 15.9308 75.2386 16.0353 74.9792 16.1617C74.7211 16.2915 74.4617 16.4217 74.205 16.5532C72.1632 17.6321 70.3276 19.0272 68.7657 20.6202L68.4711 20.9123L68.1917 21.2243C68.0065 21.4302 67.8151 21.6268 67.639 21.8378C67.6316 21.845 67.6255 21.856 67.6177 21.8631C72.1036 15.2607 79.3706 10.9713 87.5713 10.9713C95.772 10.9713 103.396 15.4734 107.85 22.3502C108.227 23.2071 108.562 24.0607 108.858 24.9033C109.774 27.4763 110.361 29.925 110.731 32.1065C110.772 32.3808 110.816 32.6497 110.857 32.9148C110.897 33.1782 110.944 33.4365 110.97 33.6944C111.027 34.2085 111.085 34.7014 111.138 35.1758C111.184 35.6522 111.208 36.1105 111.242 36.5455C111.255 36.762 111.274 36.9734 111.284 37.1827C111.29 37.3885 111.327 37.5906 111.334 37.7889C111.343 38.1821 111.396 38.5596 111.396 38.9076L111.395 38.908Z" fill="url(#paint5_linear_2_329)"/>
</g>
<path d="M37.1458 114.756V118.609C37.1458 119.854 43.3758 120.863 51.0608 120.863C58.7457 120.863 64.9757 119.854 64.9757 118.609V114.756H37.1458Z" fill="url(#paint6_linear_2_329)"/>
<path d="M64.9757 114.756C64.9757 116.001 58.7457 117.01 51.0608 117.01C43.3758 117.01 37.1458 116.001 37.1458 114.756C37.1458 113.511 43.3758 112.502 51.0608 112.502C58.7457 112.502 64.9757 113.511 64.9757 114.756Z" fill="url(#paint7_linear_2_329)"/>
<path d="M51.0608 117.166C44.2547 117.166 37.1377 116.354 37.1377 114.789C37.1377 114.703 37.1624 114.552 37.2312 114.552C37.2999 114.552 37.2705 114.67 37.2705 114.756C37.2705 115.749 42.9339 116.855 51.0608 116.855C59.1876 116.855 64.8511 115.749 64.8511 114.756C64.8511 114.67 64.8629 114.589 64.9317 114.589C65.0004 114.589 64.9838 114.704 64.9838 114.79C64.9838 116.355 57.8668 117.166 51.0608 117.166Z" fill="url(#paint8_linear_2_329)"/>
<path d="M49.7457 114.882C49.8822 114.764 50.0275 114.647 50.183 114.532C50.337 114.418 50.5375 114.314 50.7807 114.221C51.0252 114.129 51.331 114.053 51.6978 113.995C52.0649 113.936 52.5238 113.905 53.0717 113.902C53.6095 113.899 54.1138 113.92 54.5862 113.966C55.0573 114.011 55.4728 114.08 55.8318 114.172C56.1891 114.263 56.481 114.376 56.7063 114.51C56.9298 114.645 57.0629 114.799 57.1059 114.973L58.6725 114.993C58.7863 114.994 58.8869 115.005 58.9729 115.027C59.0603 115.05 59.103 115.078 59.103 115.112L59.1036 115.273L57.0893 115.249C57.0185 115.446 56.8387 115.626 56.5491 115.79C56.2613 115.954 55.8931 116.096 55.4447 116.215L54.7112 116.088C54.6455 116.075 54.5917 116.06 54.5493 116.04C54.507 116.021 54.4867 116 54.4863 115.977C54.4863 115.947 54.5429 115.911 54.6563 115.871C54.7698 115.832 54.8978 115.782 55.0404 115.724C55.183 115.665 55.3228 115.596 55.4607 115.516C55.5975 115.437 55.6889 115.341 55.7363 115.23L50.9819 115.172C50.8569 115.286 50.716 115.399 50.5619 115.51C50.4065 115.621 50.2012 115.72 49.9452 115.809C49.6892 115.897 49.3702 115.969 48.9885 116.024C48.6055 116.079 48.1259 116.109 47.5461 116.112C47.1103 116.115 46.6863 116.094 46.2707 116.051C45.8552 116.007 45.486 115.941 45.1636 115.854C44.8412 115.766 44.5771 115.658 44.3695 115.529C44.1636 115.4 44.0478 115.252 44.0237 115.084L42.7337 115.068C42.62 115.067 42.5194 115.056 42.4289 115.035C42.3399 115.013 42.2945 114.985 42.2945 114.949L42.2938 114.788L44.0572 114.809C44.1351 114.639 44.295 114.491 44.5395 114.365C44.7837 114.239 45.082 114.127 45.4346 114.029L46.0252 114.131C46.2047 114.162 46.2938 114.199 46.2938 114.241C46.2938 114.264 46.2575 114.292 46.1834 114.326C46.1078 114.36 46.0205 114.4 45.9185 114.447C45.8183 114.494 45.7194 114.55 45.6249 114.613C45.5291 114.676 45.4579 114.748 45.4102 114.827L49.7447 114.881L49.7457 114.882ZM45.3946 115.101C45.4302 115.207 45.5091 115.298 45.629 115.374C45.7489 115.451 45.8975 115.514 46.077 115.563C46.2565 115.613 46.4577 115.648 46.6808 115.672C46.9054 115.695 47.1401 115.706 47.3849 115.704C47.6704 115.703 47.9197 115.687 48.1324 115.658C48.3437 115.629 48.5299 115.59 48.6915 115.54C48.8517 115.49 48.9929 115.432 49.1121 115.366C49.2313 115.301 49.3373 115.229 49.4335 115.152L45.3949 115.101H45.3946ZM55.7445 114.957C55.7092 114.85 55.6225 114.756 55.4884 114.675C55.354 114.595 55.1816 114.527 54.973 114.472C54.7644 114.417 54.5209 114.377 54.2422 114.35C53.9651 114.323 53.659 114.31 53.3237 114.312C53.0264 114.314 52.7686 114.331 52.5543 114.362C52.3402 114.394 52.1536 114.436 51.9951 114.489C51.838 114.542 51.7025 114.604 51.5935 114.674C51.4831 114.745 51.3798 114.821 51.2853 114.901L55.7438 114.956L55.7445 114.957Z" fill="#FCB048"/>
<path d="M51.0628 112.746C44.8585 112.746 38.3982 113.427 37.3649 114.747C37.4052 114.793 37.4428 114.843 37.4777 114.895C38.3487 113.979 43.683 113.057 51.0628 113.057C58.4426 113.057 64.0518 114.027 64.7081 114.966C64.7403 114.914 64.7749 114.865 64.8121 114.819C63.9587 113.453 57.3771 112.746 51.0624 112.746H51.0628Z" fill="url(#paint9_linear_2_329)"/>
<path d="M33.2776 110.709V114.561C33.2776 115.807 39.5077 116.816 47.1926 116.816C54.8775 116.816 61.1075 115.807 61.1075 114.561V110.709H33.2776Z" fill="url(#paint10_linear_2_329)"/>
<path d="M61.1075 110.709C61.1075 111.954 54.8775 112.963 47.1926 112.963C39.5077 112.963 33.2776 111.954 33.2776 110.709C33.2776 109.464 39.5077 108.455 47.1926 108.455C54.8775 108.455 61.1075 109.464 61.1075 110.709Z" fill="url(#paint11_linear_2_329)"/>
<path d="M47.1926 113.119C40.3865 113.119 33.2695 112.307 33.2695 110.742C33.2695 110.656 33.2943 110.505 33.363 110.505C33.4318 110.505 33.4023 110.623 33.4023 110.709C33.4023 111.701 39.0657 112.807 47.1926 112.807C55.3195 112.807 60.9829 111.701 60.9829 110.709C60.9829 110.623 60.9948 110.542 61.0635 110.542C61.1323 110.542 61.1157 110.657 61.1157 110.743C61.1157 112.308 53.9987 113.119 47.1926 113.119Z" fill="url(#paint12_linear_2_329)"/>
<path d="M45.8776 110.835C46.014 110.717 46.1593 110.601 46.3148 110.486C46.4689 110.371 46.6694 110.267 46.9125 110.174C47.157 110.082 47.4628 110.007 47.83 109.948C48.1971 109.889 48.656 109.859 49.2039 109.855C49.7417 109.852 50.246 109.873 50.7184 109.919C51.1895 109.965 51.605 110.034 51.964 110.125C52.3216 110.216 52.6132 110.329 52.8384 110.464C53.0619 110.598 53.195 110.752 53.238 110.926L54.8047 110.946C54.9185 110.947 55.0191 110.958 55.1051 110.981C55.1928 111.003 55.2351 111.031 55.2351 111.065L55.2358 111.226L53.2215 111.202C53.1507 111.4 52.9708 111.58 52.6813 111.743C52.3934 111.907 52.0253 112.049 51.5769 112.169L50.8434 112.041C50.7777 112.029 50.7238 112.013 50.6815 111.994C50.6392 111.975 50.6185 111.953 50.6185 111.931C50.6185 111.9 50.6751 111.864 50.7885 111.825C50.902 111.785 51.03 111.736 51.1725 111.677C51.3151 111.619 51.4547 111.55 51.5928 111.47C51.7296 111.39 51.8211 111.295 51.8685 111.184L47.1144 111.125C46.9894 111.24 46.8485 111.353 46.6944 111.463C46.539 111.574 46.3337 111.674 46.0777 111.762C45.8217 111.851 45.5027 111.923 45.121 111.978C44.738 112.033 44.2584 112.062 43.6786 112.066C43.2428 112.068 42.8188 112.048 42.4032 112.004C41.9877 111.96 41.6189 111.895 41.2962 111.807C40.9737 111.72 40.7096 111.611 40.502 111.482C40.2961 111.354 40.1803 111.206 40.1562 111.038L38.8663 111.022C38.7525 111.021 38.6519 111.01 38.5615 110.988C38.4724 110.967 38.4273 110.938 38.427 110.902L38.4263 110.741L40.1897 110.762C40.2676 110.593 40.4275 110.445 40.672 110.319C40.9162 110.193 41.2145 110.081 41.5671 109.983L42.1577 110.084C42.3372 110.115 42.4263 110.152 42.4263 110.194C42.4263 110.217 42.39 110.245 42.3159 110.279C42.2403 110.313 42.153 110.354 42.051 110.401C41.9508 110.448 41.8519 110.503 41.7574 110.566C41.6616 110.629 41.5904 110.7 41.5427 110.781L45.8772 110.834L45.8776 110.835ZM41.5264 111.054C41.562 111.16 41.6409 111.251 41.7608 111.327C41.8807 111.404 42.0294 111.467 42.2088 111.516C42.3883 111.566 42.5895 111.602 42.8127 111.625C43.0372 111.648 43.2719 111.659 43.5168 111.657C43.8022 111.656 44.0515 111.64 44.2642 111.611C44.4755 111.582 44.6618 111.543 44.8233 111.493C44.9835 111.444 45.1244 111.386 45.2439 111.32C45.3631 111.254 45.4691 111.183 45.5653 111.106L41.5264 111.055V111.054ZM51.8763 110.91C51.8407 110.803 51.7544 110.709 51.6203 110.628C51.4858 110.548 51.3138 110.48 51.1048 110.426C50.8962 110.371 50.6527 110.33 50.3743 110.303C50.0973 110.277 49.7911 110.264 49.4559 110.266C49.1585 110.268 48.9008 110.285 48.6864 110.316C48.4724 110.348 48.2858 110.39 48.1273 110.443C47.9702 110.496 47.8347 110.557 47.7256 110.628C47.6152 110.699 47.512 110.774 47.4175 110.855L51.8759 110.91H51.8763Z" fill="#FCB048"/>
<path d="M47.1943 108.699C40.99 108.699 34.5297 109.38 33.4965 110.699C33.5368 110.746 33.5744 110.796 33.6092 110.848C34.4803 109.932 39.8145 109.01 47.1943 109.01C54.5741 109.01 60.1834 109.98 60.8397 110.918C60.8719 110.867 60.9064 110.818 60.9436 110.771C60.0902 109.405 53.5087 108.699 47.194 108.699H47.1943Z" fill="url(#paint13_linear_2_329)"/>
<path d="M36.6155 106.674V110.527C36.6155 111.772 42.8456 112.781 50.5305 112.781C58.2154 112.781 64.4454 111.772 64.4454 110.527V106.674H36.6155Z" fill="url(#paint14_linear_2_329)"/>
<path d="M64.4454 106.674C64.4454 107.919 58.2154 108.928 50.5305 108.928C42.8456 108.928 36.6155 107.919 36.6155 106.674C36.6155 105.429 42.8456 104.42 50.5305 104.42C58.2154 104.42 64.4454 105.429 64.4454 106.674Z" fill="url(#paint15_linear_2_329)"/>
<path d="M50.5301 109.083C43.724 109.083 36.6071 108.272 36.6071 106.706C36.6071 106.621 36.6318 106.469 36.7005 106.469C36.7693 106.469 36.7398 106.587 36.7398 106.673C36.7398 107.666 42.4033 108.772 50.5301 108.772C58.657 108.772 64.3204 107.666 64.3204 106.673C64.3204 106.588 64.3323 106.507 64.401 106.507C64.4698 106.507 64.4532 106.621 64.4532 106.708C64.4532 108.273 57.3362 109.083 50.5301 109.083Z" fill="url(#paint16_linear_2_329)"/>
<path d="M49.2154 106.799C49.3519 106.681 49.4972 106.565 49.6526 106.45C49.8067 106.336 50.0072 106.232 50.2504 106.139C50.4949 106.046 50.8007 105.971 51.1678 105.912C51.5349 105.854 51.9938 105.823 52.5418 105.82C53.0796 105.816 53.5838 105.838 54.0563 105.884C54.5273 105.929 54.9429 105.998 55.3019 106.09C55.6595 106.181 55.9511 106.294 56.1763 106.428C56.3998 106.563 56.5329 106.717 56.5759 106.891L58.1426 106.911C58.2563 106.911 58.3569 106.923 58.443 106.945C58.5307 106.968 58.573 106.996 58.573 107.03L58.5737 107.191L56.5593 107.167C56.4885 107.364 56.3087 107.544 56.0191 107.708C55.7313 107.872 55.3632 108.013 54.9148 108.133L54.1812 108.006C54.1155 107.993 54.0617 107.978 54.0194 107.958C53.977 107.939 53.9564 107.918 53.9564 107.895C53.9564 107.864 54.0129 107.829 54.1264 107.79C54.2398 107.75 54.3678 107.7 54.5104 107.642C54.653 107.584 54.7925 107.514 54.9307 107.434C55.0675 107.355 55.1589 107.259 55.2064 107.149L50.4519 107.09C50.3269 107.204 50.186 107.317 50.0319 107.428C49.8765 107.539 49.6713 107.639 49.4152 107.727C49.1592 107.815 48.8402 107.887 48.4585 107.943C48.0755 107.998 47.596 108.027 47.0162 108.031C46.5803 108.033 46.1563 108.013 45.7408 107.969C45.3252 107.925 44.9561 107.859 44.6337 107.772C44.3113 107.684 44.0471 107.576 43.8395 107.447C43.6336 107.318 43.5178 107.17 43.4937 107.003L42.2038 106.986C42.09 106.985 41.9894 106.974 41.899 106.953C41.8099 106.931 41.7645 106.903 41.7645 106.867L41.7639 106.706L43.5276 106.727C43.6055 106.558 43.7653 106.41 44.0099 106.284C44.254 106.158 44.5524 106.046 44.9049 105.948L45.4956 106.049C45.6751 106.08 45.7641 106.117 45.7641 106.159C45.7641 106.182 45.7279 106.21 45.6537 106.244C45.5782 106.278 45.4908 106.318 45.3889 106.365C45.2886 106.412 45.1898 106.468 45.0953 106.531C44.9994 106.594 44.9283 106.665 44.8806 106.745L49.2151 106.799L49.2154 106.799ZM44.8643 107.019C44.8999 107.125 44.9788 107.215 45.0987 107.292C45.2185 107.368 45.3672 107.431 45.5467 107.481C45.7262 107.53 45.9274 107.566 46.1505 107.59C46.3751 107.612 46.6098 107.623 46.8546 107.622C47.1401 107.62 47.3894 107.605 47.602 107.576C47.8134 107.547 47.9996 107.508 48.1612 107.458C48.3214 107.408 48.4626 107.351 48.5818 107.285C48.701 107.219 48.807 107.147 48.9032 107.07L44.8646 107.02L44.8643 107.019ZM55.2141 106.875C55.1789 106.768 55.0926 106.674 54.9581 106.593C54.8237 106.513 54.6513 106.445 54.4427 106.39C54.2341 106.335 53.9906 106.295 53.7122 106.268C53.4352 106.241 53.129 106.228 52.7937 106.23C52.4964 106.232 52.2387 106.249 52.0243 106.28C51.8103 106.312 51.6237 106.354 51.4652 106.407C51.308 106.46 51.1726 106.522 51.0635 106.592C50.9531 106.663 50.8498 106.738 50.7553 106.819L55.2138 106.874L55.2141 106.875Z" fill="#FCB048"/>
<path d="M50.5321 104.664C44.3279 104.664 37.8675 105.345 36.8343 106.665C36.8746 106.711 36.9122 106.761 36.9471 106.813C37.8181 105.897 43.1524 104.975 50.5321 104.975C57.9119 104.975 63.5212 105.945 64.1775 106.884C64.2097 106.832 64.2442 106.783 64.2815 106.736C63.428 105.37 56.8465 104.664 50.5318 104.664H50.5321Z" fill="url(#paint17_linear_2_329)"/>
<path d="M38.6407 102.627V106.479C38.6407 107.724 44.8707 108.734 52.5556 108.734C60.2405 108.734 66.4706 107.724 66.4706 106.479V102.627H38.6407Z" fill="url(#paint18_linear_2_329)"/>
<path d="M52.5556 104.881C60.2406 104.881 66.4706 103.872 66.4706 102.627C66.4706 101.382 60.2406 100.372 52.5556 100.372C44.8706 100.372 38.6407 101.382 38.6407 102.627C38.6407 103.872 44.8706 104.881 52.5556 104.881Z" fill="url(#paint19_linear_2_329)"/>
<path d="M52.5556 105.036C45.7495 105.036 38.6326 104.225 38.6326 102.66C38.6326 102.574 38.6573 102.422 38.726 102.422C38.7948 102.422 38.7653 102.541 38.7653 102.627C38.7653 103.619 44.4288 104.725 52.5556 104.725C60.6825 104.725 66.3459 103.619 66.3459 102.627C66.3459 102.541 66.3578 102.46 66.4265 102.46C66.4953 102.46 66.4787 102.575 66.4787 102.661C66.4787 104.226 59.3617 105.036 52.5556 105.036Z" fill="url(#paint20_linear_2_329)"/>
<path d="M51.241 102.752C51.3775 102.634 51.5227 102.518 51.6782 102.403C51.8323 102.288 52.0331 102.184 52.2759 102.092C52.5204 101.999 52.8262 101.924 53.1934 101.865C53.5605 101.807 54.0194 101.776 54.5673 101.773C55.1051 101.769 55.6094 101.791 56.0818 101.837C56.5529 101.882 56.9684 101.951 57.3274 102.042C57.6847 102.134 57.9766 102.247 58.2018 102.381C58.4253 102.516 58.5584 102.67 58.6015 102.844L60.1681 102.863C60.2819 102.864 60.3825 102.876 60.4685 102.898C60.5559 102.92 60.5985 102.948 60.5985 102.983L60.5992 103.144L58.5849 103.12C58.5141 103.317 58.3342 103.497 58.0447 103.661C57.7568 103.824 57.3887 103.966 56.9403 104.086L56.2068 103.959C56.1411 103.946 56.0872 103.931 56.0449 103.911C56.0026 103.892 55.9822 103.871 55.9819 103.848C55.9819 103.817 56.0385 103.782 56.1519 103.742C56.2654 103.703 56.3934 103.653 56.536 103.595C56.6785 103.536 56.8181 103.467 56.9562 103.387C57.0931 103.308 57.1845 103.212 57.2319 103.101L52.4778 103.043C52.3528 103.157 52.2119 103.27 52.0578 103.381C51.9024 103.492 51.6972 103.591 51.4411 103.68C51.1851 103.768 50.8661 103.84 50.4844 103.895C50.1014 103.95 49.6218 103.98 49.042 103.983C48.6062 103.986 48.1822 103.965 47.7666 103.922C47.3511 103.878 46.9823 103.812 46.6596 103.725C46.3371 103.637 46.073 103.529 45.8654 103.4C45.6595 103.271 45.5437 103.123 45.5196 102.956L44.2297 102.939C44.1159 102.938 44.0153 102.927 43.9249 102.906C43.8358 102.884 43.7907 102.856 43.7904 102.82L43.7897 102.659L45.5531 102.68C45.631 102.51 45.7909 102.362 46.0354 102.236C46.2799 102.11 46.5779 101.998 46.9305 101.9L47.5211 102.001C47.7006 102.033 47.7897 102.07 47.7897 102.112C47.7897 102.135 47.7534 102.163 47.6793 102.197C47.6037 102.231 47.5164 102.271 47.4144 102.318C47.3142 102.365 47.2153 102.42 47.1208 102.483C47.025 102.546 46.9539 102.618 46.9061 102.698L51.2406 102.752H51.241ZM46.8898 102.972C46.9254 103.077 47.0043 103.168 47.1242 103.245C47.2441 103.322 47.3928 103.384 47.5722 103.434C47.7517 103.483 47.9529 103.519 48.1761 103.542C48.4006 103.566 48.6353 103.576 48.8802 103.575C49.1657 103.573 49.4149 103.558 49.6276 103.529C49.8389 103.5 50.0252 103.46 50.1867 103.41C50.3469 103.361 50.4881 103.303 50.6073 103.237C50.7265 103.171 50.8325 103.1 50.9287 103.023L46.8898 102.972V102.972ZM57.2397 102.827C57.2041 102.721 57.1178 102.627 56.9837 102.546C56.8492 102.466 56.6772 102.398 56.4686 102.343C56.2599 102.288 56.0164 102.247 55.7381 102.221C55.461 102.194 55.1549 102.182 54.8196 102.184C54.5223 102.185 54.2645 102.202 54.0502 102.233C53.8361 102.265 53.6495 102.307 53.491 102.36C53.3339 102.413 53.1984 102.475 53.0894 102.546C52.979 102.616 52.8757 102.692 52.7812 102.772L57.2397 102.827Z" fill="#FCB048"/>
<path d="M52.5577 100.616C46.3534 100.616 39.8931 101.298 38.8598 102.617C38.9001 102.664 38.9377 102.713 38.9729 102.766C39.844 101.85 45.1782 100.928 52.558 100.928C59.9378 100.928 65.547 101.898 66.2034 102.836C66.2355 102.785 66.2701 102.736 66.3073 102.689C65.4539 101.323 58.8723 100.616 52.5577 100.616Z" fill="url(#paint21_linear_2_329)"/>
<path d="M37.1458 98.2603V102.113C37.1458 103.358 43.3758 104.367 51.0608 104.367C58.7457 104.367 64.9757 103.358 64.9757 102.113V98.2603H37.1458Z" fill="url(#paint22_linear_2_329)"/>
<path d="M64.9757 98.2603C64.9757 99.5053 58.7457 100.515 51.0608 100.515C43.3758 100.515 37.1458 99.5053 37.1458 98.2603C37.1458 97.0152 43.3758 96.0061 51.0608 96.0061C58.7457 96.0061 64.9757 97.0152 64.9757 98.2603Z" fill="url(#paint23_linear_2_329)"/>
<path d="M51.0608 100.67C44.2547 100.67 37.1377 99.8584 37.1377 98.2933C37.1377 98.2075 37.1624 98.0561 37.2312 98.0561C37.2999 98.0561 37.2705 98.1745 37.2705 98.2603C37.2705 99.253 42.9339 100.359 51.0608 100.359C59.1876 100.359 64.8511 99.253 64.8511 98.2603C64.8511 98.1745 64.8629 98.0937 64.9317 98.0937C65.0004 98.0937 64.9838 98.2083 64.9838 98.2946C64.9838 99.8597 57.8668 100.67 51.0608 100.67Z" fill="url(#paint24_linear_2_329)"/>
<path d="M49.7457 98.3859C49.8822 98.2679 50.0275 98.1517 50.183 98.0367C50.337 97.9221 50.5375 97.8181 50.7807 97.7255C51.0252 97.6329 51.331 97.5577 51.6978 97.4989C52.0649 97.4406 52.5238 97.4097 53.0717 97.4063C53.6095 97.4029 54.1138 97.4245 54.5862 97.4702C55.0573 97.5158 55.4728 97.5847 55.8318 97.676C56.1891 97.7674 56.481 97.8802 56.7063 98.0147C56.9298 98.1491 57.0629 98.3034 57.1059 98.4772L58.6725 98.4971C58.7863 98.4979 58.8869 98.5093 58.9729 98.5317C59.0603 98.5541 59.103 98.582 59.103 98.6163L59.1036 98.7774L57.0893 98.7533C57.0185 98.9507 56.8387 99.1308 56.5491 99.2944C56.2613 99.458 55.8931 99.6001 55.4447 99.7197L54.7112 99.5925C54.6455 99.5798 54.5917 99.5641 54.5493 99.5447C54.507 99.5257 54.4867 99.5045 54.4863 99.4817C54.4863 99.4508 54.5429 99.4153 54.6563 99.376C54.7698 99.3363 54.8978 99.2868 55.0404 99.2285C55.183 99.1701 55.3228 99.1008 55.4607 99.0209C55.5975 98.941 55.6889 98.8459 55.7363 98.7351L50.9819 98.6763C50.8569 98.7909 50.716 98.9038 50.5619 99.0145C50.4065 99.1253 50.2012 99.2251 49.9452 99.3134C49.6892 99.4018 49.3702 99.4737 48.9885 99.529C48.6055 99.584 48.1259 99.6136 47.5461 99.617C47.1103 99.6195 46.6863 99.5988 46.2707 99.5553C45.8552 99.5113 45.486 99.4458 45.1636 99.3582C44.8412 99.2707 44.5771 99.1625 44.3695 99.0336C44.1636 98.9046 44.0478 98.7566 44.0237 98.5892L42.7337 98.5727C42.62 98.5719 42.5194 98.5609 42.4289 98.5393C42.3399 98.5178 42.2945 98.4895 42.2945 98.4535L42.2938 98.2924L44.0572 98.3136C44.1351 98.1441 44.295 97.9961 44.5395 97.8701C44.7837 97.7441 45.082 97.6321 45.4346 97.534L46.0252 97.635C46.2047 97.6667 46.2938 97.7035 46.2938 97.7458C46.2938 97.7686 46.2575 97.797 46.1834 97.8308C46.1078 97.8646 46.0205 97.9052 45.9185 97.9521C45.8183 97.999 45.7194 98.0544 45.6249 98.1174C45.5291 98.1804 45.4579 98.2519 45.4102 98.3322L49.7447 98.3859H49.7457ZM45.3946 98.6053C45.4302 98.711 45.5091 98.8019 45.629 98.8784C45.7489 98.9549 45.8975 99.0179 46.077 99.0674C46.2565 99.1169 46.4577 99.1528 46.6808 99.176C46.9054 99.1989 47.1401 99.2099 47.3849 99.2086C47.6704 99.2069 47.9197 99.1913 48.1324 99.1625C48.3437 99.1333 48.5299 99.094 48.6915 99.0441C48.8517 98.9942 48.9929 98.9367 49.1121 98.8708C49.2313 98.8048 49.3373 98.7334 49.4335 98.6565L45.3949 98.6057L45.3946 98.6053ZM55.7445 98.4611C55.7092 98.3542 55.6225 98.2603 55.4884 98.1796C55.354 98.0992 55.1816 98.0312 54.973 97.9766C54.7644 97.9217 54.5209 97.8811 54.2422 97.8545C53.9651 97.8278 53.659 97.8151 53.3237 97.8173C53.0264 97.8189 52.7686 97.8359 52.5543 97.8671C52.3402 97.8988 52.1536 97.9407 51.9951 97.994C51.838 98.0468 51.7025 98.109 51.5935 98.1791C51.4831 98.2497 51.3798 98.3254 51.2853 98.4057L55.7438 98.4611H55.7445Z" fill="#FCB048"/>
<path d="M51.0628 96.25C44.8585 96.25 38.3982 96.9315 37.3649 98.251C37.4052 98.2975 37.4428 98.3474 37.4777 98.3994C38.3487 97.4833 43.683 96.5612 51.0628 96.5612C58.4426 96.5612 64.0518 97.5314 64.7081 98.47C64.7403 98.4184 64.7749 98.3694 64.8121 98.3229C63.9587 96.9569 57.3771 96.25 51.0624 96.25H51.0628Z" fill="url(#paint25_linear_2_329)"/>
<path d="M33.2776 94.2135V98.0667C33.2776 99.3117 39.5077 100.321 47.1926 100.321C54.8775 100.321 61.1075 99.3117 61.1075 98.0667V94.2135H33.2776Z" fill="url(#paint26_linear_2_329)"/>
<path d="M47.1926 96.4678C54.8776 96.4678 61.1075 95.4585 61.1075 94.2136C61.1075 92.9686 54.8776 91.9594 47.1926 91.9594C39.5076 91.9594 33.2776 92.9686 33.2776 94.2136C33.2776 95.4585 39.5076 96.4678 47.1926 96.4678Z" fill="url(#paint27_linear_2_329)"/>
<path d="M47.1926 96.6229C40.3865 96.6229 33.2695 95.8112 33.2695 94.2461C33.2695 94.1603 33.2943 94.0089 33.363 94.0089C33.4318 94.0089 33.4023 94.1269 33.4023 94.2131C33.4023 95.2058 39.0657 96.3118 47.1926 96.3118C55.3195 96.3118 60.9829 95.2058 60.9829 94.2131C60.9829 94.1273 60.9948 94.0465 61.0635 94.0465C61.1323 94.0465 61.1157 94.1611 61.1157 94.2474C61.1157 95.8125 53.9987 96.6229 47.1926 96.6229Z" fill="url(#paint28_linear_2_329)"/>
<path d="M45.8776 94.3391C46.014 94.2211 46.1593 94.1049 46.3148 93.9899C46.4689 93.8753 46.6694 93.7713 46.9125 93.6787C47.157 93.5861 47.4628 93.5109 47.83 93.4521C48.1971 93.3938 48.656 93.3629 49.2039 93.3595C49.7417 93.3562 50.246 93.3777 50.7184 93.4234C51.1895 93.469 51.605 93.5379 51.964 93.6293C52.3216 93.7206 52.6132 93.8335 52.8384 93.9679C53.0619 94.1023 53.195 94.2567 53.238 94.4304L54.8047 94.4503C54.9185 94.4511 55.0191 94.4625 55.1051 94.4849C55.1928 94.5074 55.2351 94.5353 55.2351 94.5695L55.2358 94.7306L53.2215 94.7065C53.1507 94.9039 52.9708 95.084 52.6813 95.2476C52.3934 95.4112 52.0253 95.5533 51.5769 95.6729L50.8434 95.5457C50.7777 95.533 50.7238 95.5174 50.6815 95.4979C50.6392 95.4789 50.6185 95.4577 50.6185 95.4349C50.6185 95.4041 50.6751 95.3685 50.7885 95.3288C50.902 95.2891 51.03 95.2396 51.1725 95.1813C51.3151 95.1229 51.4547 95.0536 51.5928 94.9737C51.7296 94.8938 51.8211 94.7986 51.8685 94.6879L47.1144 94.6291C46.9894 94.7437 46.8485 94.8566 46.6944 94.9673C46.539 95.0781 46.3337 95.1779 46.0777 95.2662C45.8217 95.3546 45.5027 95.4265 45.121 95.4818C44.738 95.5372 44.2584 95.5664 43.6786 95.5698C43.2428 95.5723 42.8188 95.552 42.4032 95.5081C41.9877 95.4641 41.6189 95.3986 41.2962 95.311C40.9737 95.2235 40.7096 95.1153 40.502 94.9864C40.2961 94.8574 40.1803 94.7094 40.1562 94.542L38.8663 94.5255C38.7525 94.5247 38.6519 94.5137 38.5615 94.4921C38.4724 94.4706 38.4273 94.4423 38.427 94.4063L38.4263 94.2452L40.1897 94.2664C40.2676 94.0968 40.4275 93.9489 40.672 93.8229C40.9162 93.6969 41.2145 93.5849 41.5671 93.4868L42.1577 93.5878C42.3372 93.6191 42.4263 93.6559 42.4263 93.6982C42.4263 93.721 42.39 93.7493 42.3159 93.7832C42.2403 93.817 42.153 93.8576 42.051 93.9045C41.9508 93.9514 41.8519 94.0064 41.7574 94.0698C41.6616 94.1328 41.5904 94.2046 41.5427 94.2846L45.8772 94.3387L45.8776 94.3391ZM41.5264 94.5585C41.562 94.6642 41.6409 94.7551 41.7608 94.8316C41.8807 94.9081 42.0294 94.9711 42.2088 95.0206C42.3883 95.0701 42.5895 95.106 42.8127 95.1292C43.0372 95.1525 43.2719 95.1631 43.5168 95.1618C43.8022 95.1601 44.0515 95.1445 44.2642 95.1157C44.4755 95.0866 44.6618 95.0472 44.8233 94.9973C44.9835 94.9475 45.1244 94.89 45.2439 94.824C45.3631 94.7581 45.4691 94.6866 45.5653 94.6097L41.5264 94.5589V94.5585ZM51.8763 94.4143C51.8407 94.3074 51.7544 94.2135 51.6203 94.1328C51.4858 94.0525 51.3138 93.9844 51.1048 93.9299C50.8962 93.8749 50.6527 93.8343 50.3743 93.8073C50.0973 93.7806 49.7911 93.7684 49.4559 93.77C49.1585 93.7717 48.9008 93.7886 48.6864 93.8199C48.4724 93.8516 48.2858 93.8935 48.1273 93.9468C47.9702 93.9996 47.8347 94.0618 47.7256 94.1319C47.6152 94.2025 47.512 94.2778 47.4175 94.3585L51.8759 94.4139L51.8763 94.4143Z" fill="#FCB048"/>
<path d="M47.1943 92.2033C40.99 92.2033 34.5297 92.8848 33.4965 94.2043C33.5368 94.2508 33.5744 94.3006 33.6092 94.3526C34.4803 93.4365 39.8145 92.5144 47.1943 92.5144C54.5741 92.5144 60.1834 93.4847 60.8397 94.4232C60.8719 94.3717 60.9064 94.3226 60.9436 94.2761C60.0902 92.9102 53.5087 92.2033 47.194 92.2033H47.1943Z" fill="url(#paint29_linear_2_329)"/>
<path d="M36.6155 90.1782V94.0309C36.6155 95.276 42.8456 96.2851 50.5305 96.2851C58.2154 96.2851 64.4454 95.276 64.4454 94.0309V90.1782H36.6155Z" fill="url(#paint30_linear_2_329)"/>
<path d="M50.5305 92.4324C58.2155 92.4324 64.4454 91.4232 64.4454 90.1782C64.4454 88.9333 58.2155 87.924 50.5305 87.924C42.8455 87.924 36.6155 88.9333 36.6155 90.1782C36.6155 91.4232 42.8455 92.4324 50.5305 92.4324Z" fill="url(#paint31_linear_2_329)"/>
<path d="M50.5301 92.588C43.724 92.588 36.6071 91.7763 36.6071 90.2112C36.6071 90.1254 36.6318 89.974 36.7005 89.974C36.7693 89.974 36.7398 90.0924 36.7398 90.1782C36.7398 91.1709 42.4033 92.2768 50.5301 92.2768C58.657 92.2768 64.3204 91.1709 64.3204 90.1782C64.3204 90.0924 64.3323 90.0116 64.401 90.0116C64.4698 90.0116 64.4532 90.1262 64.4532 90.2124C64.4532 91.7775 57.3362 92.588 50.5301 92.588Z" fill="url(#paint32_linear_2_329)"/>
<path d="M49.2154 90.3038C49.3519 90.1858 49.4972 90.0695 49.6526 89.9545C49.8067 89.84 50.0072 89.736 50.2504 89.6434C50.4949 89.5508 50.8007 89.4755 51.1678 89.4168C51.5349 89.3584 51.9938 89.3276 52.5418 89.3242C53.0796 89.3208 53.5838 89.3424 54.0563 89.388C54.5273 89.4337 54.9429 89.5026 55.3019 89.5939C55.6595 89.6852 55.9511 89.7981 56.1763 89.9326C56.3998 90.067 56.5329 90.2213 56.5759 90.3951L58.1426 90.4149C58.2563 90.4158 58.3569 90.4272 58.443 90.4496C58.5307 90.472 58.573 90.4999 58.573 90.5342L58.5737 90.6952L56.5593 90.6711C56.4885 90.8686 56.3087 91.0487 56.0191 91.2123C55.7313 91.3759 55.3632 91.518 54.9148 91.6376L54.1812 91.5103C54.1155 91.4977 54.0617 91.482 54.0194 91.4626C53.977 91.4435 53.9564 91.4224 53.9564 91.3996C53.9564 91.3687 54.0129 91.3332 54.1264 91.2935C54.2398 91.2537 54.3678 91.2043 54.5104 91.1459C54.653 91.0876 54.7925 91.0182 54.9307 90.9383C55.0675 90.8584 55.1589 90.7633 55.2064 90.6525L50.4519 90.5938C50.3269 90.7083 50.186 90.8212 50.0319 90.932C49.8765 91.0428 49.6713 91.1425 49.4152 91.2309C49.1592 91.3192 48.8402 91.3911 48.4585 91.4465C48.0755 91.5019 47.596 91.5311 47.0162 91.5344C46.5803 91.537 46.1563 91.5163 45.7408 91.4727C45.3252 91.4287 44.9561 91.3632 44.6337 91.2757C44.3113 91.1882 44.0471 91.08 43.8395 90.951C43.6336 90.8221 43.5178 90.6741 43.4937 90.5067L42.2038 90.4902C42.09 90.4893 41.9894 90.4784 41.899 90.4568C41.8099 90.4352 41.7645 90.4069 41.7645 90.371L41.7639 90.2099L43.5276 90.231C43.6055 90.0615 43.7653 89.9135 44.0099 89.7876C44.254 89.6616 44.5524 89.5495 44.9049 89.4515L45.4956 89.5525C45.6751 89.5838 45.7641 89.6206 45.7641 89.6633C45.7641 89.6861 45.7279 89.7144 45.6537 89.7482C45.5782 89.7821 45.4908 89.8226 45.3889 89.8696C45.2886 89.9165 45.1898 89.9719 45.0953 90.0349C44.9994 90.0979 44.9283 90.1697 44.8806 90.2496L49.2151 90.3033L49.2154 90.3038ZM44.8643 90.5232C44.8999 90.6289 44.9788 90.7198 45.0987 90.7963C45.2185 90.8732 45.3672 90.9358 45.5467 90.9853C45.7262 91.0347 45.9274 91.0707 46.1505 91.0939C46.3751 91.1172 46.6098 91.1277 46.8546 91.1265C47.1401 91.1248 47.3894 91.1091 47.602 91.0804C47.8134 91.0512 47.9996 91.0119 48.1612 90.962C48.3214 90.9121 48.4626 90.8546 48.5818 90.7887C48.701 90.7227 48.807 90.6513 48.9032 90.5743L44.8646 90.5236L44.8643 90.5232ZM55.2141 90.379C55.1789 90.272 55.0926 90.1782 54.9581 90.0974C54.8237 90.0171 54.6513 89.9491 54.4427 89.8945C54.2341 89.8396 53.9906 89.799 53.7122 89.7719C53.4352 89.7453 53.129 89.733 52.7937 89.7347C52.4964 89.7364 52.2387 89.7533 52.0243 89.7846C51.8103 89.8163 51.6237 89.8582 51.4652 89.9114C51.308 89.9643 51.1726 90.0264 51.0635 90.0966C50.9531 90.1672 50.8498 90.2429 50.7553 90.3232L55.2138 90.3786L55.2141 90.379Z" fill="#FCB048"/>
<path d="M50.5321 88.168C44.3279 88.168 37.8675 88.8495 36.8343 90.1689C36.8746 90.2154 36.9122 90.2653 36.9471 90.3173C37.8181 89.4012 43.1524 88.4791 50.5321 88.4791C57.9119 88.4791 63.5212 89.4494 64.1775 90.3879C64.2097 90.3364 64.2442 90.2873 64.2815 90.2408C63.428 88.8748 56.8465 88.168 50.5318 88.168H50.5321Z" fill="url(#paint33_linear_2_329)"/>
<path d="M34.8792 86.1315V89.9842C34.8792 91.2292 41.1092 92.2384 48.7941 92.2384C56.4791 92.2384 62.7091 91.2292 62.7091 89.9842V86.1315H34.8792Z" fill="url(#paint34_linear_2_329)"/>
<path d="M48.7942 88.3857C56.4792 88.3857 62.7091 87.3764 62.7091 86.1315C62.7091 84.8865 56.4792 83.8773 48.7942 83.8773C41.1091 83.8773 34.8792 84.8865 34.8792 86.1315C34.8792 87.3764 41.1091 88.3857 48.7942 88.3857Z" fill="url(#paint35_linear_2_329)"/>
<path d="M48.7942 88.5408C41.9881 88.5408 34.8711 87.7291 34.8711 86.164C34.8711 86.0782 34.8958 85.9268 34.9646 85.9268C35.0333 85.9268 35.0038 86.0448 35.0038 86.131C35.0038 87.1237 40.6673 88.2296 48.7942 88.2296C56.921 88.2296 62.5845 87.1237 62.5845 86.131C62.5845 86.0452 62.5963 85.9644 62.6651 85.9644C62.7338 85.9644 62.7172 86.079 62.7172 86.1653C62.7172 87.7304 55.6002 88.5408 48.7942 88.5408Z" fill="url(#paint36_linear_2_329)"/>
<path d="M47.4794 86.257C47.6159 86.1391 47.7612 86.0228 47.9167 85.9078C48.0707 85.7932 48.2716 85.6892 48.5144 85.5966C48.7589 85.5041 49.0647 85.4288 49.4318 85.37C49.7989 85.3117 50.2578 85.2808 50.8058 85.2774C51.3436 85.2741 51.8478 85.2956 52.3203 85.3413C52.7913 85.3869 53.2069 85.4559 53.5659 85.5472C53.9235 85.6385 54.2151 85.7514 54.4403 85.8858C54.6638 86.0207 54.7969 86.1746 54.8399 86.3483L56.4066 86.3682C56.5204 86.369 56.6209 86.3805 56.707 86.4029C56.7947 86.4253 56.837 86.4532 56.837 86.4874L56.8377 86.6485L54.8233 86.6244C54.7525 86.8214 54.5727 87.0019 54.2832 87.1655C53.9953 87.3292 53.6272 87.4712 53.1788 87.5908L52.4452 87.4636C52.3795 87.4509 52.3257 87.4353 52.2834 87.4158C52.241 87.3968 52.2204 87.3757 52.2204 87.3528C52.2204 87.322 52.2769 87.2864 52.3904 87.2467C52.5038 87.207 52.6318 87.1575 52.7744 87.0992C52.917 87.0408 53.0565 86.9715 53.1947 86.8916C53.3315 86.8117 53.423 86.7166 53.4704 86.6058L48.7162 86.547C48.5913 86.6616 48.4504 86.7745 48.2963 86.8852C48.1408 86.996 47.9356 87.0958 47.6796 87.1841C47.4236 87.2725 47.1045 87.3444 46.7229 87.3998C46.3398 87.4547 45.8603 87.4843 45.2805 87.4877C44.8446 87.4902 44.4206 87.4699 44.0051 87.426C43.5896 87.382 43.2204 87.3165 42.898 87.229C42.5756 87.1414 42.3115 87.0332 42.1039 86.9043C41.898 86.7753 41.7821 86.6273 41.7581 86.4599L40.4681 86.4434C40.3543 86.4426 40.2537 86.4316 40.1633 86.41C40.0743 86.3885 40.0292 86.3602 40.0289 86.3242L40.0282 86.1632L41.7919 86.1843C41.8698 86.0148 42.0297 85.8668 42.2742 85.7408C42.5184 85.6148 42.8167 85.5028 43.1693 85.4047L43.7599 85.5057C43.9394 85.537 44.0285 85.5738 44.0285 85.6161C44.0285 85.6389 43.9922 85.6672 43.9181 85.7011C43.8425 85.7349 43.7552 85.7755 43.6532 85.8224C43.553 85.8693 43.4541 85.9247 43.3596 85.9877C43.2638 86.0507 43.1927 86.1221 43.1449 86.2025L47.4794 86.2562V86.257ZM43.1283 86.4764C43.1639 86.5821 43.2428 86.673 43.3627 86.7495C43.4826 86.826 43.6312 86.889 43.8107 86.9385C43.9902 86.988 44.1914 87.0239 44.4145 87.0472C44.6391 87.0704 44.8738 87.081 45.1186 87.0797C45.4045 87.078 45.6534 87.0624 45.8661 87.0336C46.0774 87.0045 46.2636 86.9651 46.4252 86.9153C46.5854 86.8654 46.7263 86.8079 46.8458 86.7419C46.965 86.676 47.071 86.6045 47.1672 86.5276L43.1283 86.4768V86.4764ZM53.4782 86.3323C53.4429 86.2253 53.3566 86.1314 53.2221 86.0507C53.0877 85.9704 52.9156 85.9023 52.7067 85.8478C52.4981 85.7928 52.2546 85.7522 51.9762 85.7252C51.6992 85.6985 51.393 85.6863 51.0577 85.688C50.7604 85.6896 50.5027 85.7066 50.2883 85.7378C50.0743 85.7691 49.8877 85.8114 49.7292 85.8647C49.572 85.9175 49.4366 85.9797 49.3275 86.0498C49.2171 86.1204 49.1138 86.1961 49.0193 86.2765L53.4778 86.3318L53.4782 86.3323Z" fill="#FCB048"/>
<path d="M48.7962 84.1212C42.5919 84.1212 36.1316 84.8027 35.0983 86.1221C35.1386 86.1686 35.1762 86.2185 35.2111 86.2705C36.0821 85.3544 41.4164 84.4323 48.7962 84.4323C56.176 84.4323 61.7852 85.4026 62.4415 86.3411C62.4737 86.2895 62.5083 86.2405 62.5455 86.194C61.6921 84.828 55.1105 84.1212 48.7958 84.1212H48.7962Z" fill="url(#paint37_linear_2_329)"/>
<path d="M66.6673 88.8473L64.1524 91.0804C63.3396 91.8021 66.2921 98.7245 70.7465 106.542C75.2009 114.36 79.4708 120.112 80.2836 119.39L82.7984 117.157L66.6676 88.8469L66.6673 88.8473Z" fill="url(#paint38_linear_2_329)"/>
<path d="M82.7981 117.158C81.9853 117.879 77.7155 112.127 73.261 104.309C68.8066 96.4914 65.8545 89.5694 66.667 88.8477C67.4798 88.1261 71.7496 93.8787 76.204 101.696C80.6584 109.514 83.6106 116.436 82.7981 117.158Z" fill="url(#paint39_linear_2_329)"/>
<path d="M73.1598 104.399C69.2147 97.4756 65.6195 89.7656 66.6413 88.8583C66.6975 88.8084 66.8102 88.7458 66.8502 88.816C66.8902 88.8862 66.7957 88.9243 66.7398 88.9741C66.0919 89.5495 68.6526 95.952 73.363 104.219C78.0735 112.486 82.0781 117.606 82.7263 117.031C82.7826 116.981 82.8418 116.946 82.8818 117.017C82.9217 117.087 82.8371 117.136 82.7812 117.186C81.7595 118.093 77.1052 111.323 73.1602 104.399H73.1598Z" fill="url(#paint40_linear_2_329)"/>
<path d="M73.8887 101.738C74.0448 101.808 74.205 101.889 74.3699 101.98C74.5341 102.07 74.718 102.214 74.9195 102.408C75.1217 102.603 75.3483 102.87 75.5989 103.21C75.8498 103.549 76.136 103.998 76.4557 104.554C76.7697 105.099 77.048 105.624 77.2919 106.131C77.535 106.637 77.7311 107.1 77.8794 107.518C78.0271 107.934 78.1223 108.297 78.1653 108.603C78.2069 108.909 78.1836 109.134 78.0952 109.278L78.9903 110.883C79.0556 111 79.1064 111.109 79.1416 111.209C79.1779 111.311 79.184 111.37 79.1616 111.39L79.057 111.484L77.9052 109.421C77.7355 109.463 77.5134 109.385 77.2387 109.186C76.9651 108.988 76.6589 108.695 76.3209 108.309L75.9789 107.489C75.9491 107.415 75.9281 107.35 75.9162 107.296C75.9044 107.242 75.9061 107.209 75.921 107.196C75.9413 107.177 75.9972 107.215 76.0886 107.307C76.1804 107.399 76.2867 107.501 76.4076 107.612C76.5285 107.724 76.6545 107.826 76.7866 107.92C76.9176 108.013 77.0331 108.05 77.133 108.035L74.4156 103.164C74.2683 103.104 74.1132 103.026 73.9516 102.933C73.7891 102.839 73.6052 102.688 73.399 102.479C73.1927 102.27 72.9611 101.987 72.7037 101.631C72.4456 101.273 72.1486 100.803 71.8099 100.215C71.5556 99.773 71.3233 99.3295 71.1109 98.8814C70.8986 98.4332 70.7279 98.0198 70.5979 97.641C70.4682 97.2622 70.3855 96.9307 70.3493 96.6449C70.3141 96.3604 70.3435 96.1571 70.439 96.0357L69.7021 94.7141C69.6368 94.5979 69.5856 94.4892 69.5473 94.3848C69.5098 94.2816 69.5023 94.2191 69.5253 94.1984L69.63 94.1045L70.6385 95.9106C70.7946 95.8916 70.9836 95.9685 71.2075 96.1439C71.4313 96.3194 71.6775 96.5578 71.9458 96.8597L72.2221 97.5192C72.3054 97.72 72.3332 97.8316 72.3057 97.8566C72.2908 97.8697 72.2516 97.8494 72.1862 97.7936C72.1202 97.7361 72.0433 97.671 71.9535 97.5945C71.8645 97.5196 71.7713 97.4507 71.6752 97.3915C71.5783 97.3307 71.4903 97.2998 71.4103 97.2977L73.8876 101.738L73.8887 101.738ZM71.2234 97.4389C71.175 97.5361 71.1614 97.6693 71.1811 97.8354C71.2004 98.0016 71.2457 98.1897 71.3175 98.4007C71.3893 98.6117 71.4825 98.8374 71.5966 99.078C71.7117 99.3198 71.8404 99.565 71.9837 99.8132C72.1503 100.103 72.3047 100.347 72.447 100.547C72.5885 100.745 72.722 100.912 72.8483 101.047C72.9736 101.181 73.0931 101.291 73.2052 101.374C73.3173 101.457 73.4254 101.524 73.5314 101.577L71.2237 97.4385L71.2234 97.4389ZM77.3166 107.884C77.366 107.786 77.3772 107.644 77.3518 107.46C77.3264 107.277 77.2709 107.062 77.1855 106.818C77.1005 106.575 76.9861 106.303 76.8421 106.004C76.6989 105.707 76.5295 105.388 76.3341 105.048C76.1607 104.747 76.0002 104.494 75.8556 104.295C75.711 104.095 75.5755 103.93 75.4489 103.799C75.3232 103.67 75.2044 103.568 75.0953 103.498C74.9852 103.427 74.8762 103.365 74.7688 103.316L77.3169 107.883L77.3166 107.884Z" fill="#FCB048"/>
<path d="M76.0459 101.84C72.4497 95.528 68.2604 89.3513 66.8001 89.0651C66.7933 89.1331 66.7825 89.2004 66.7686 89.2659C67.8713 89.621 71.5654 94.5129 75.8427 102.02C80.2301 109.72 82.7382 115.796 82.5059 117.008C82.558 117.011 82.6102 117.017 82.6624 117.028C83.0593 115.368 79.7058 108.263 76.0459 101.84V101.84Z" fill="url(#paint41_linear_2_329)"/>
<defs>
<linearGradient id="paint0_linear_2_329" x1="55.8017" y1="127.968" x2="135.158" y2="6.44658" gradientUnits="userSpaceOnUse">
<stop stop-color="#444B8C"/>
<stop offset="1" stop-color="#26264F"/>
</linearGradient>
<linearGradient id="paint1_linear_2_329" x1="20.8854" y1="216.965" x2="100.243" y2="95.4433" gradientUnits="userSpaceOnUse">
<stop stop-color="#AA80F9"/>
<stop offset="1" stop-color="#6165D7"/>
</linearGradient>
<linearGradient id="paint2_linear_2_329" x1="104.853" y1="36.7641" x2="-18.7963" y2="146.335" gradientUnits="userSpaceOnUse">
<stop stop-color="#AA80F9"/>
<stop offset="1" stop-color="#6165D7"/>
</linearGradient>
<linearGradient id="paint3_linear_2_329" x1="46.9945" y1="65.6161" x2="106.983" y2="65.6161" gradientUnits="userSpaceOnUse">
<stop stop-color="#AA80F9"/>
<stop offset="1" stop-color="#6165D7"/>
</linearGradient>
<linearGradient id="paint4_linear_2_329" x1="53.8792" y1="69.5419" x2="104.148" y2="14.3549" gradientUnits="userSpaceOnUse">
<stop stop-color="#FCB148"/>
<stop offset="0.05" stop-color="#FDB946"/>
<stop offset="0.14" stop-color="#FEC144"/>
<stop offset="0.32" stop-color="#FFC444"/>
<stop offset="0.48" stop-color="#FDB946"/>
<stop offset="0.78" stop-color="#F99C4C"/>
<stop offset="0.87" stop-color="#F8924F"/>
<stop offset="1" stop-color="#F8924F"/>
</linearGradient>
<linearGradient id="paint5_linear_2_329" x1="85.179" y1="37.8608" x2="103.762" y2="17.4599" gradientUnits="userSpaceOnUse">
<stop stop-color="#FCB148"/>
<stop offset="0.05" stop-color="#FDB946"/>
<stop offset="0.14" stop-color="#FEC144"/>
<stop offset="0.32" stop-color="#FFC444"/>
<stop offset="0.48" stop-color="#FDB946"/>
<stop offset="0.78" stop-color="#F99C4C"/>
<stop offset="0.87" stop-color="#F8924F"/>
<stop offset="1" stop-color="#F8924F"/>
</linearGradient>
<linearGradient id="paint6_linear_2_329" x1="34.7667" y1="117.81" x2="66.7831" y2="117.81" gradientUnits="userSpaceOnUse">
<stop stop-color="#FCB148"/>
<stop offset="0.05" stop-color="#FDB946"/>
<stop offset="0.14" stop-color="#FEC144"/>
<stop offset="0.32" stop-color="#FFC444"/>
<stop offset="0.48" stop-color="#FDB946"/>
<stop offset="0.78" stop-color="#F99C4C"/>
<stop offset="0.87" stop-color="#F8924F"/>
<stop offset="1" stop-color="#F8924F"/>
</linearGradient>
<linearGradient id="paint7_linear_2_329" x1="50.9222" y1="113.307" x2="53.5321" y2="130.809" gradientUnits="userSpaceOnUse">
<stop stop-color="#FFDB44"/>
<stop offset="1" stop-color="#FEEF06"/>
</linearGradient>
<linearGradient id="paint8_linear_2_329" x1="50.8488" y1="112.521" x2="51.6505" y2="117.895" gradientUnits="userSpaceOnUse">
<stop stop-color="#FFDB44"/>
<stop offset="1" stop-color="#FEEF06"/>
</linearGradient>
<linearGradient id="paint9_linear_2_329" x1="51.3361" y1="117.37" x2="50.537" y2="112.014" gradientUnits="userSpaceOnUse">
<stop stop-color="#F36F56"/>
<stop offset="0.31" stop-color="#F99C4C"/>
<stop offset="0.55" stop-color="#FDB946"/>
<stop offset="0.68" stop-color="#FFC444"/>
<stop offset="0.8" stop-color="#FEC144"/>
<stop offset="0.87" stop-color="#FDB946"/>
<stop offset="0.92" stop-color="#FBAC49"/>
<stop offset="0.96" stop-color="#F8994D"/>
<stop offset="1" stop-color="#F57E53"/>
</linearGradient>
<linearGradient id="paint10_linear_2_329" x1="30.8985" y1="113.762" x2="62.915" y2="113.762" gradientUnits="userSpaceOnUse">
<stop stop-color="#FCB148"/>
<stop offset="0.05" stop-color="#FDB946"/>
<stop offset="0.14" stop-color="#FEC144"/>
<stop offset="0.32" stop-color="#FFC444"/>
<stop offset="0.48" stop-color="#FDB946"/>
<stop offset="0.78" stop-color="#F99C4C"/>
<stop offset="0.87" stop-color="#F8924F"/>
<stop offset="1" stop-color="#F8924F"/>
</linearGradient>
<linearGradient id="paint11_linear_2_329" x1="47.0537" y1="109.26" x2="49.6636" y2="126.762" gradientUnits="userSpaceOnUse">
<stop stop-color="#FFDB44"/>
<stop offset="1" stop-color="#FEEF06"/>
</linearGradient>
<linearGradient id="paint12_linear_2_329" x1="46.9806" y1="108.474" x2="47.7818" y2="113.849" gradientUnits="userSpaceOnUse">
<stop stop-color="#FFDB44"/>
<stop offset="1" stop-color="#FEEF06"/>
</linearGradient>
<linearGradient id="paint13_linear_2_329" x1="47.4676" y1="113.323" x2="46.669" y2="107.967" gradientUnits="userSpaceOnUse">
<stop stop-color="#F36F56"/>
<stop offset="0.31" stop-color="#F99C4C"/>
<stop offset="0.55" stop-color="#FDB946"/>
<stop offset="0.68" stop-color="#FFC444"/>
<stop offset="0.8" stop-color="#FEC144"/>
<stop offset="0.87" stop-color="#FDB946"/>
<stop offset="0.92" stop-color="#FBAC49"/>
<stop offset="0.96" stop-color="#F8994D"/>
<stop offset="1" stop-color="#F57E53"/>
</linearGradient>
<linearGradient id="paint14_linear_2_329" x1="34.2364" y1="109.727" x2="66.2529" y2="109.727" gradientUnits="userSpaceOnUse">
<stop stop-color="#FCB148"/>
<stop offset="0.05" stop-color="#FDB946"/>
<stop offset="0.14" stop-color="#FEC144"/>
<stop offset="0.32" stop-color="#FFC444"/>
<stop offset="0.48" stop-color="#FDB946"/>
<stop offset="0.78" stop-color="#F99C4C"/>
<stop offset="0.87" stop-color="#F8924F"/>
<stop offset="1" stop-color="#F8924F"/>
</linearGradient>
<linearGradient id="paint15_linear_2_329" x1="50.3916" y1="105.225" x2="53.0015" y2="122.727" gradientUnits="userSpaceOnUse">
<stop stop-color="#FFDB44"/>
<stop offset="1" stop-color="#FEEF06"/>
</linearGradient>
<linearGradient id="paint16_linear_2_329" x1="50.3185" y1="104.438" x2="51.1197" y2="109.813" gradientUnits="userSpaceOnUse">
<stop stop-color="#FFDB44"/>
<stop offset="1" stop-color="#FEEF06"/>
</linearGradient>
<linearGradient id="paint17_linear_2_329" x1="50.8054" y1="109.288" x2="50.0069" y2="103.932" gradientUnits="userSpaceOnUse">
<stop stop-color="#F36F56"/>
<stop offset="0.31" stop-color="#F99C4C"/>
<stop offset="0.55" stop-color="#FDB946"/>
<stop offset="0.68" stop-color="#FFC444"/>
<stop offset="0.8" stop-color="#FEC144"/>
<stop offset="0.87" stop-color="#FDB946"/>
<stop offset="0.92" stop-color="#FBAC49"/>
<stop offset="0.96" stop-color="#F8994D"/>
<stop offset="1" stop-color="#F57E53"/>
</linearGradient>
<linearGradient id="paint18_linear_2_329" x1="36.2616" y1="105.68" x2="68.2783" y2="105.68" gradientUnits="userSpaceOnUse">
<stop stop-color="#FCB148"/>
<stop offset="0.05" stop-color="#FDB946"/>
<stop offset="0.14" stop-color="#FEC144"/>
<stop offset="0.32" stop-color="#FFC444"/>
<stop offset="0.48" stop-color="#FDB946"/>
<stop offset="0.78" stop-color="#F99C4C"/>
<stop offset="0.87" stop-color="#F8924F"/>
<stop offset="1" stop-color="#F8924F"/>
</linearGradient>
<linearGradient id="paint19_linear_2_329" x1="52.4171" y1="101.178" x2="55.027" y2="118.68" gradientUnits="userSpaceOnUse">
<stop stop-color="#FFDB44"/>
<stop offset="1" stop-color="#FEEF06"/>
</linearGradient>
<linearGradient id="paint20_linear_2_329" x1="52.3436" y1="100.391" x2="53.1453" y2="105.767" gradientUnits="userSpaceOnUse">
<stop stop-color="#FFDB44"/>
<stop offset="1" stop-color="#FEEF06"/>
</linearGradient>
<linearGradient id="paint21_linear_2_329" x1="52.831" y1="105.241" x2="52.0324" y2="99.8848" gradientUnits="userSpaceOnUse">
<stop stop-color="#F36F56"/>
<stop offset="0.31" stop-color="#F99C4C"/>
<stop offset="0.55" stop-color="#FDB946"/>
<stop offset="0.68" stop-color="#FFC444"/>
<stop offset="0.8" stop-color="#FEC144"/>
<stop offset="0.87" stop-color="#FDB946"/>
<stop offset="0.92" stop-color="#FBAC49"/>
<stop offset="0.96" stop-color="#F8994D"/>
<stop offset="1" stop-color="#F57E53"/>
</linearGradient>
<linearGradient id="paint22_linear_2_329" x1="34.7667" y1="101.314" x2="66.7831" y2="101.314" gradientUnits="userSpaceOnUse">
<stop stop-color="#FCB148"/>
<stop offset="0.05" stop-color="#FDB946"/>
<stop offset="0.14" stop-color="#FEC144"/>
<stop offset="0.32" stop-color="#FFC444"/>
<stop offset="0.48" stop-color="#FDB946"/>
<stop offset="0.78" stop-color="#F99C4C"/>
<stop offset="0.87" stop-color="#F8924F"/>
<stop offset="1" stop-color="#F8924F"/>
</linearGradient>
<linearGradient id="paint23_linear_2_329" x1="50.9222" y1="96.8119" x2="53.5321" y2="114.314" gradientUnits="userSpaceOnUse">
<stop stop-color="#FFDB44"/>
<stop offset="1" stop-color="#FEEF06"/>
</linearGradient>
<linearGradient id="paint24_linear_2_329" x1="50.8488" y1="96.0251" x2="51.6505" y2="101.4" gradientUnits="userSpaceOnUse">
<stop stop-color="#FFDB44"/>
<stop offset="1" stop-color="#FEEF06"/>
</linearGradient>
<linearGradient id="paint25_linear_2_329" x1="51.3361" y1="100.874" x2="50.537" y2="95.5185" gradientUnits="userSpaceOnUse">
<stop stop-color="#F36F56"/>
<stop offset="0.31" stop-color="#F99C4C"/>
<stop offset="0.55" stop-color="#FDB946"/>
<stop offset="0.68" stop-color="#FFC444"/>
<stop offset="0.8" stop-color="#FEC144"/>
<stop offset="0.87" stop-color="#FDB946"/>
<stop offset="0.92" stop-color="#FBAC49"/>
<stop offset="0.96" stop-color="#F8994D"/>
<stop offset="1" stop-color="#F57E53"/>
</linearGradient>
<linearGradient id="paint26_linear_2_329" x1="30.8985" y1="97.2668" x2="62.915" y2="97.2668" gradientUnits="userSpaceOnUse">
<stop stop-color="#FCB148"/>
<stop offset="0.05" stop-color="#FDB946"/>
<stop offset="0.14" stop-color="#FEC144"/>
<stop offset="0.32" stop-color="#FFC444"/>
<stop offset="0.48" stop-color="#FDB946"/>
<stop offset="0.78" stop-color="#F99C4C"/>
<stop offset="0.87" stop-color="#F8924F"/>
<stop offset="1" stop-color="#F8924F"/>
</linearGradient>
<linearGradient id="paint27_linear_2_329" x1="47.0537" y1="92.7647" x2="49.6636" y2="110.267" gradientUnits="userSpaceOnUse">
<stop stop-color="#FFDB44"/>
<stop offset="1" stop-color="#FEEF06"/>
</linearGradient>
<linearGradient id="paint28_linear_2_329" x1="46.9806" y1="91.9779" x2="47.7818" y2="97.3531" gradientUnits="userSpaceOnUse">
<stop stop-color="#FFDB44"/>
<stop offset="1" stop-color="#FEEF06"/>
</linearGradient>
<linearGradient id="paint29_linear_2_329" x1="47.4676" y1="96.8275" x2="46.669" y2="91.4712" gradientUnits="userSpaceOnUse">
<stop stop-color="#F36F56"/>
<stop offset="0.31" stop-color="#F99C4C"/>
<stop offset="0.55" stop-color="#FDB946"/>
<stop offset="0.68" stop-color="#FFC444"/>
<stop offset="0.8" stop-color="#FEC144"/>
<stop offset="0.87" stop-color="#FDB946"/>
<stop offset="0.92" stop-color="#FBAC49"/>
<stop offset="0.96" stop-color="#F8994D"/>
<stop offset="1" stop-color="#F57E53"/>
</linearGradient>
<linearGradient id="paint30_linear_2_329" x1="34.2364" y1="93.2319" x2="66.2529" y2="93.2319" gradientUnits="userSpaceOnUse">
<stop stop-color="#FCB148"/>
<stop offset="0.05" stop-color="#FDB946"/>
<stop offset="0.14" stop-color="#FEC144"/>
<stop offset="0.32" stop-color="#FFC444"/>
<stop offset="0.48" stop-color="#FDB946"/>
<stop offset="0.78" stop-color="#F99C4C"/>
<stop offset="0.87" stop-color="#F8924F"/>
<stop offset="1" stop-color="#F8924F"/>
</linearGradient>
<linearGradient id="paint31_linear_2_329" x1="50.3916" y1="88.7298" x2="53.0015" y2="106.232" gradientUnits="userSpaceOnUse">
<stop stop-color="#FFDB44"/>
<stop offset="1" stop-color="#FEEF06"/>
</linearGradient>
<linearGradient id="paint32_linear_2_329" x1="50.3185" y1="87.943" x2="51.1197" y2="93.3182" gradientUnits="userSpaceOnUse">
<stop stop-color="#FFDB44"/>
<stop offset="1" stop-color="#FEEF06"/>
</linearGradient>
<linearGradient id="paint33_linear_2_329" x1="50.8054" y1="92.7922" x2="50.0069" y2="87.4364" gradientUnits="userSpaceOnUse">
<stop stop-color="#F36F56"/>
<stop offset="0.31" stop-color="#F99C4C"/>
<stop offset="0.55" stop-color="#FDB946"/>
<stop offset="0.68" stop-color="#FFC444"/>
<stop offset="0.8" stop-color="#FEC144"/>
<stop offset="0.87" stop-color="#FDB946"/>
<stop offset="0.92" stop-color="#FBAC49"/>
<stop offset="0.96" stop-color="#F8994D"/>
<stop offset="1" stop-color="#F57E53"/>
</linearGradient>
<linearGradient id="paint34_linear_2_329" x1="32.5001" y1="89.1847" x2="64.5169" y2="89.1847" gradientUnits="userSpaceOnUse">
<stop stop-color="#FCB148"/>
<stop offset="0.05" stop-color="#FDB946"/>
<stop offset="0.14" stop-color="#FEC144"/>
<stop offset="0.32" stop-color="#FFC444"/>
<stop offset="0.48" stop-color="#FDB946"/>
<stop offset="0.78" stop-color="#F99C4C"/>
<stop offset="0.87" stop-color="#F8924F"/>
<stop offset="1" stop-color="#F8924F"/>
</linearGradient>
<linearGradient id="paint35_linear_2_329" x1="48.6556" y1="84.6826" x2="51.2655" y2="102.184" gradientUnits="userSpaceOnUse">
<stop stop-color="#FFDB44"/>
<stop offset="1" stop-color="#FEEF06"/>
</linearGradient>
<linearGradient id="paint36_linear_2_329" x1="48.5822" y1="83.8958" x2="49.3839" y2="89.271" gradientUnits="userSpaceOnUse">
<stop stop-color="#FFDB44"/>
<stop offset="1" stop-color="#FEEF06"/>
</linearGradient>
<linearGradient id="paint37_linear_2_329" x1="49.0695" y1="88.745" x2="48.2709" y2="83.3891" gradientUnits="userSpaceOnUse">
<stop stop-color="#F36F56"/>
<stop offset="0.31" stop-color="#F99C4C"/>
<stop offset="0.55" stop-color="#FDB946"/>
<stop offset="0.68" stop-color="#FFC444"/>
<stop offset="0.8" stop-color="#FEC144"/>
<stop offset="0.87" stop-color="#FDB946"/>
<stop offset="0.92" stop-color="#FBAC49"/>
<stop offset="0.96" stop-color="#F8994D"/>
<stop offset="1" stop-color="#F57E53"/>
</linearGradient>
<linearGradient id="paint38_linear_2_329" x1="63.2925" y1="88.1954" x2="87.6424" y2="115.622" gradientUnits="userSpaceOnUse">
<stop stop-color="#FCB148"/>
<stop offset="0.05" stop-color="#FDB946"/>
<stop offset="0.14" stop-color="#FEC144"/>
<stop offset="0.32" stop-color="#FFC444"/>
<stop offset="0.48" stop-color="#FDB946"/>
<stop offset="0.78" stop-color="#F99C4C"/>
<stop offset="0.87" stop-color="#F8924F"/>
<stop offset="1" stop-color="#F8924F"/>
</linearGradient>
<linearGradient id="paint39_linear_2_329" x1="75.5942" y1="102.021" x2="63.0241" y2="111.162" gradientUnits="userSpaceOnUse">
<stop stop-color="#FFDB44"/>
<stop offset="1" stop-color="#FEEF06"/>
</linearGradient>
<linearGradient id="paint40_linear_2_329" x1="76.0652" y1="101.491" x2="72.2047" y2="104.298" gradientUnits="userSpaceOnUse">
<stop stop-color="#FFDB44"/>
<stop offset="1" stop-color="#FEEF06"/>
</linearGradient>
<linearGradient id="paint41_linear_2_329" x1="73.1863" y1="104.8" x2="77.0329" y2="102.003" gradientUnits="userSpaceOnUse">
<stop stop-color="#F36F56"/>
<stop offset="0.31" stop-color="#F99C4C"/>
<stop offset="0.55" stop-color="#FDB946"/>
<stop offset="0.68" stop-color="#FFC444"/>
<stop offset="0.8" stop-color="#FEC144"/>
<stop offset="0.87" stop-color="#FDB946"/>
<stop offset="0.92" stop-color="#FBAC49"/>
<stop offset="0.96" stop-color="#F8994D"/>
<stop offset="1" stop-color="#F57E53"/>
</linearGradient>
</defs>
</svg>
